<svg id="Layer_1" data-name="Layer 1" xmlns="http://www.w3.org/2000/svg" viewBox="0 0 142.05 25.5"><defs><style>.cls-1{fill:#fff;}</style></defs><path class="cls-1" d="M20.26,18.53H6.43a4.28,4.28,0,0,0,1.76,2.68,5.85,5.85,0,0,0,3.47,1,6.85,6.85,0,0,0,2.53-.43,6,6,0,0,0,2.06-1.34l2.82,3.06c-1.72,2-4.24,3-7.54,3a11.89,11.89,0,0,1-5.48-1.21,8.83,8.83,0,0,1-3.67-3.35A9.24,9.24,0,0,1,1.09,17a9.33,9.33,0,0,1,1.27-4.84A8.89,8.89,0,0,1,5.87,8.82a10.31,10.31,0,0,1,5-1.21,10.2,10.2,0,0,1,4.86,1.16,8.36,8.36,0,0,1,3.41,3.31,9.87,9.87,0,0,1,1.25,5C20.37,17.17,20.33,17.64,20.26,18.53ZM7.85,12.64a4.36,4.36,0,0,0-1.49,2.79h9a4.38,4.38,0,0,0-1.5-2.77,4.46,4.46,0,0,0-3-1A4.59,4.59,0,0,0,7.85,12.64Z" transform="translate(-1.09 -0.95)"/><path class="cls-1" d="M22.88,1h5.31V26.18H22.88Z" transform="translate(-1.09 -0.95)"/><path class="cls-1" d="M49.91,18.53H36.07a4.29,4.29,0,0,0,1.77,2.68,5.85,5.85,0,0,0,3.47,1,6.85,6.85,0,0,0,2.53-.43,6,6,0,0,0,2.06-1.34l2.82,3.06q-2.58,3-7.55,3a11.87,11.87,0,0,1-5.47-1.21A8.77,8.77,0,0,1,32,21.89,9.24,9.24,0,0,1,30.74,17,9.33,9.33,0,0,1,32,12.19a8.93,8.93,0,0,1,3.5-3.37,10.36,10.36,0,0,1,5-1.21,10.24,10.24,0,0,1,4.87,1.16,8.36,8.36,0,0,1,3.41,3.31,9.86,9.86,0,0,1,1.24,5C50,17.17,50,17.64,49.91,18.53ZM37.5,12.64A4.36,4.36,0,0,0,36,15.43h9a4.42,4.42,0,0,0-1.5-2.77,4.48,4.48,0,0,0-3-1A4.59,4.59,0,0,0,37.5,12.64Z" transform="translate(-1.09 -0.95)"/><path class="cls-1" d="M56.12,25.24a8.94,8.94,0,0,1-3.64-3.35A9.17,9.17,0,0,1,51.17,17a9.17,9.17,0,0,1,1.31-4.86,8.94,8.94,0,0,1,3.64-3.35,11.28,11.28,0,0,1,5.25-1.21,10.23,10.23,0,0,1,5.05,1.21,7.07,7.07,0,0,1,3.14,3.45l-4.11,2.21A4.49,4.49,0,0,0,61.34,12a4.69,4.69,0,0,0-3.44,1.36A5.06,5.06,0,0,0,56.54,17a5.06,5.06,0,0,0,1.36,3.71,4.69,4.69,0,0,0,3.44,1.36,4.45,4.45,0,0,0,4.11-2.52l4.11,2.24a7.18,7.18,0,0,1-3.14,3.4,10,10,0,0,1-5.05,1.23A11.16,11.16,0,0,1,56.12,25.24Z" transform="translate(-1.09 -0.95)"/><path class="cls-1" d="M83.67,25.29a5.31,5.31,0,0,1-1.92.87,9.86,9.86,0,0,1-2.4.29,7.11,7.11,0,0,1-5-1.67,6.37,6.37,0,0,1-1.79-4.89V12.37H69.7V8.29h2.82V3.84h5.31V8.29h4.55v4.08H77.83v7.45a2.47,2.47,0,0,0,.59,1.78,2.21,2.21,0,0,0,1.68.63,3.39,3.39,0,0,0,2.15-.68Z" transform="translate(-1.09 -0.95)"/><path class="cls-1" d="M102.88,18.53H89a4.29,4.29,0,0,0,1.77,2.68,5.85,5.85,0,0,0,3.47,1,6.85,6.85,0,0,0,2.53-.43,6,6,0,0,0,2.06-1.34l2.82,3.06c-1.72,2-4.24,3-7.54,3a11.89,11.89,0,0,1-5.48-1.21A8.77,8.77,0,0,1,85,21.89,9.24,9.24,0,0,1,83.71,17,9.33,9.33,0,0,1,85,12.19a8.93,8.93,0,0,1,3.5-3.37,10.36,10.36,0,0,1,5-1.21,10.21,10.21,0,0,1,4.87,1.16,8.36,8.36,0,0,1,3.41,3.31,9.87,9.87,0,0,1,1.25,5C103,17.17,103,17.64,102.88,18.53ZM90.47,12.64A4.36,4.36,0,0,0,89,15.43h9a4.38,4.38,0,0,0-1.5-2.77,4.48,4.48,0,0,0-3-1A4.59,4.59,0,0,0,90.47,12.64Z" transform="translate(-1.09 -0.95)"/><path class="cls-1" d="M109.09,25.24a9,9,0,0,1-3.64-3.35A9.17,9.17,0,0,1,104.14,17a9.17,9.17,0,0,1,1.31-4.86,9,9,0,0,1,3.64-3.35,11.28,11.28,0,0,1,5.25-1.21,10.23,10.23,0,0,1,5,1.21,7.14,7.14,0,0,1,3.15,3.45l-4.12,2.21A4.49,4.49,0,0,0,114.31,12a4.69,4.69,0,0,0-3.44,1.36A5.06,5.06,0,0,0,109.51,17a5.06,5.06,0,0,0,1.36,3.71,4.69,4.69,0,0,0,3.44,1.36,4.45,4.45,0,0,0,4.11-2.52l4.12,2.24a7.25,7.25,0,0,1-3.15,3.4,10,10,0,0,1-5,1.23A11.16,11.16,0,0,1,109.09,25.24Z" transform="translate(-1.09 -0.95)"/><path class="cls-1" d="M141.05,9.65q2.08,2,2.09,6V26.18h-5.31V16.52a4.76,4.76,0,0,0-1-3.25,3.49,3.49,0,0,0-2.75-1.07,4.26,4.26,0,0,0-3.2,1.24,5.16,5.16,0,0,0-1.19,3.69v9.05h-5.3V1h5.3V9.79a7.14,7.14,0,0,1,2.55-1.62,9.35,9.35,0,0,1,3.27-.56A7.55,7.55,0,0,1,141.05,9.65Z" transform="translate(-1.09 -0.95)"/></svg>