<?xml version="1.0" encoding="UTF-8"?>
<svg version="1.1" xmlns="http://www.w3.org/2000/svg" width="160" height="160">
<path d="M0 0 C52.8 0 105.6 0 160 0 C160 52.8 160 105.6 160 160 C107.2 160 54.4 160 0 160 C0 107.2 0 54.4 0 0 Z " fill="#0260AA" transform="translate(0,0)"/>
<path d="M0 0 C23.76 0 47.52 0 72 0 C72 0.33 72 0.66 72 1 C71.05253906 1.12955078 71.05253906 1.12955078 70.0859375 1.26171875 C61.99375718 2.53268079 54.60013363 4.97772464 47 8 C46.13503906 8.33515625 45.27007812 8.6703125 44.37890625 9.015625 C27.11384519 16.61338586 14.33798291 33.08814269 7 50 C-0.24739143 69.23629658 -0.50654059 91.43073137 7.8359375 110.34375 C11.16167854 117.42057046 14.88984178 124.04944441 20 130 C20.49628906 130.63808594 20.99257813 131.27617187 21.50390625 131.93359375 C31.11544529 143.81484562 43.84502094 150.24251741 58 155 C58.81855469 155.30292969 59.63710938 155.60585937 60.48046875 155.91796875 C78.48198348 161.86265501 99.67963539 157.88384462 116.37109375 149.88671875 C121.29234067 147.39864865 125.70651435 144.45738581 130 141 C130.75539062 140.41863281 131.51078125 139.83726562 132.2890625 139.23828125 C147.62694051 126.66754618 156.53499337 107.30921856 159 88 C159.33 88 159.66 88 160 88 C160 111.76 160 135.52 160 160 C107.2 160 54.4 160 0 160 C0 107.2 0 54.4 0 0 Z " fill="#FCFEFD" transform="translate(0,0)"/>
<path d="M0 0 C3.65992073 1.93162483 4.74425659 4.12812449 6 8 C6.61875 7.360625 7.2375 6.72125 7.875 6.0625 C11.56666902 2.47940948 14.66421063 2.59547676 19.64453125 2.66015625 C22 3 22 3 24.125 5.0625 C25.17889273 8.60056847 25.40806474 11.3274173 25 15 C23.6875 16.9375 23.6875 16.9375 22 18 C21.01 18 20.02 18 19 18 C19 18.66 19 19.32 19 20 C24.94 20 30.88 20 37 20 C37 20.66 37 21.32 37 22 C29.08 22 21.16 22 13 22 C13 24.64 13 27.28 13 30 C20.92 30 28.84 30 37 30 C36.505 31.485 36.505 31.485 36 33 C28.41 33 20.82 33 13 33 C13 45.54 13 58.08 13 71 C20.26 71 27.52 71 35 71 C35 59.45 35 47.9 35 36 C35.66 36 36.32 36 37 36 C37 48.54 37 61.08 37 74 C20.56875778 74.04010881 20.56875778 74.04010881 13.58789062 74.04882812 C8.81647638 74.0548159 4.04508125 74.06191446 -0.72631836 74.07543945 C-4.57125114 74.08627061 -8.41616345 74.09227732 -12.26111031 74.09487724 C-13.73118983 74.09673108 -15.20126818 74.10035091 -16.67133904 74.10573006 C-18.72354467 74.11294355 -20.77566467 74.11399081 -22.82788086 74.11352539 C-23.99814316 74.115746 -25.16840546 74.11796661 -26.37413025 74.12025452 C-29 74 -29 74 -30 73 C-30.08868299 70.04294679 -30.11520296 67.10934944 -30.09765625 64.15234375 C-30.09553383 62.82270348 -30.09553383 62.82270348 -30.09336853 61.46620178 C-30.08775215 58.62326746 -30.07519691 55.78041069 -30.0625 52.9375 C-30.05748711 51.01497509 -30.05292384 49.09244896 -30.04882812 47.16992188 C-30.03777741 42.44658451 -30.02050183 37.72330542 -30 33 C-30.99 32.67 -31.98 32.34 -33 32 C-33 27.71 -33 23.42 -33 19 C-24.75 19 -16.5 19 -8 19 C-8.99 17.35 -9.98 15.7 -11 14 C-11.63557808 10.90685332 -11.59442989 8.1011295 -11 5 C-7.87693521 0.49911251 -5.45237786 -0.92806432 0 0 Z " fill="#D1EDF8" transform="translate(76,43)"/>
<path d="M0 0 C0.33 0 0.66 0 1 0 C1 1.65 1 3.3 1 5 C1.64066406 4.86722656 2.28132813 4.73445313 2.94140625 4.59765625 C7.94983993 3.57506994 12.93111794 2.66115853 18 2 C18 2.66 18 3.32 18 4 C17.34 4 16.68 4 16 4 C16 4.66 16 5.32 16 6 C21.94 6 27.88 6 34 6 C34 6.66 34 7.32 34 8 C26.08 8 18.16 8 10 8 C10 10.64 10 13.28 10 16 C17.92 16 25.84 16 34 16 C33.505 17.485 33.505 17.485 33 19 C25.41 19 17.82 19 10 19 C10 31.54 10 44.08 10 57 C17.26 57 24.52 57 32 57 C32 45.45 32 33.9 32 22 C32.66 22 33.32 22 34 22 C34 34.54 34 47.08 34 60 C12.22 60 -9.56 60 -32 60 C-32 47.79 -32 35.58 -32 23 C-31.34 23 -30.68 23 -30 23 C-30 34.22 -30 45.44 -30 57 C-22.74 57 -15.48 57 -8 57 C-8 44.46 -8 31.92 -8 19 C-15.59 19 -23.18 19 -31 19 C-31.33 18.01 -31.66 17.02 -32 16 C-24.08 16 -16.16 16 -8 16 C-8 13.36 -8 10.72 -8 8 C-15.59 8 -23.18 8 -31 8 C-31.33 7.34 -31.66 6.68 -32 6 C-24.41 6 -16.82 6 -9 6 C-9 5.01 -9 4.02 -9 3 C-6.69 3.33 -4.38 3.66 -2 4 C-1.34 2.68 -0.68 1.36 0 0 Z " fill="#E1F7FB" transform="translate(79,57)"/>
<path d="M0 0 C23.76 0 47.52 0 72 0 C72 23.1 72 46.2 72 70 C71.67 70 71.34 70 71 70 C70.85304688 69.16339844 70.70609375 68.32679687 70.5546875 67.46484375 C66.68519499 47.38351194 57.61541234 28.52969045 40.33203125 16.49609375 C39.56246094 16.00238281 38.79289062 15.50867187 38 15 C36.99324219 14.35160156 35.98648438 13.70320312 34.94921875 13.03515625 C24.08332657 6.31448801 12.73307414 2.34106657 0 1 C0 0.67 0 0.34 0 0 Z " fill="#FCFDFC" transform="translate(88,0)"/>
<path d="M0 0 C6.6 0 13.2 0 20 0 C20 12.21 20 24.42 20 37 C13.4 37 6.8 37 0 37 C0 24.79 0 12.58 0 0 Z " fill="#0160AC" transform="translate(50,76)"/>
<path d="M0 0 C3.96 0 7.92 0 12 0 C12 15.51 12 31.02 12 47 C8.04 47 4.08 47 0 47 C0 31.49 0 15.98 0 0 Z " fill="#095E9D" transform="translate(74,66)"/>
<path d="M0 0 C1.084021 0.00523682 2.16804199 0.01047363 3.28491211 0.01586914 C5.03964844 0.02070312 5.03964844 0.02070312 6.82983398 0.02563477 C8.67738281 0.03820313 8.67738281 0.03820313 10.56225586 0.05102539 C12.41560547 0.05779297 12.41560547 0.05779297 14.30639648 0.06469727 C17.37089703 0.07652931 20.43530307 0.09301366 23.49975586 0.11352539 C23.49975586 0.77352539 23.49975586 1.43352539 23.49975586 2.11352539 C15.24975586 2.11352539 6.99975586 2.11352539 -1.50024414 2.11352539 C-1.31461914 5.30008789 -1.31461914 5.30008789 -1.12524414 8.55102539 C-1.05563477 9.74598633 -0.98602539 10.94094727 -0.91430664 12.17211914 C-0.77766602 13.1427832 -0.64102539 14.11344727 -0.50024414 15.11352539 C0.15975586 15.44352539 0.81975586 15.77352539 1.49975586 16.11352539 C1.82975586 29.31352539 2.15975586 42.51352539 2.49975586 56.11352539 C24.27975586 56.11352539 46.05975586 56.11352539 68.49975586 56.11352539 C68.82975586 42.91352539 69.15975586 29.71352539 69.49975586 16.11352539 C70.98475586 16.60852539 70.98475586 16.60852539 72.49975586 17.11352539 C72.45561661 22.73747405 72.38579797 28.36029855 72.29223633 33.98364258 C72.264023 35.89631195 72.24281025 37.80909799 72.22875977 39.72192383 C72.20733505 42.47285712 72.16068846 45.22238714 72.10913086 47.97290039 C72.10790222 48.82720642 72.10667358 49.68151245 72.10540771 50.56170654 C71.95827209 56.53505235 71.95827209 56.53505235 69.46166992 59.68481445 C68.49052246 60.39202637 68.49052246 60.39202637 67.49975586 61.11352539 C67.49975586 60.12352539 67.49975586 59.13352539 67.49975586 58.11352539 C45.05975586 58.44352539 22.61975586 58.77352539 -0.50024414 59.11352539 C-0.81274414 40.17602539 -0.81274414 40.17602539 -0.88818359 34.25439453 C-0.92051745 32.67746701 -0.95389728 31.10056045 -0.98852539 29.52368164 C-0.99476929 28.72764526 -1.00101318 27.93160889 -1.00744629 27.1114502 C-1.13592623 22.0166366 -2.0347115 17.81460086 -3.8513031 13.04747009 C-4.72546397 10.44233547 -4.64337457 8.31416053 -4.25024414 5.61352539 C-4.08782227 4.36055664 -4.08782227 4.36055664 -3.92211914 3.08227539 C-3.29403151 0.15119979 -3.05822361 0.13886085 0 0 Z M4.49975586 61.11352539 C25.28975586 61.11352539 46.07975586 61.11352539 67.49975586 61.11352539 C67.49975586 62.10352539 67.49975586 63.09352539 67.49975586 64.11352539 C46.37975586 64.11352539 25.25975586 64.11352539 3.49975586 64.11352539 C3.82975586 63.12352539 4.15975586 62.13352539 4.49975586 61.11352539 Z " fill="#0B5D9D" transform="translate(44.500244140625,59.886474609375)"/>
<path d="M0 0 C7.26 0.33 14.52 0.66 22 1 C22 5.29 22 9.58 22 14 C21.01 14.33 20.02 14.66 19 15 C19 28.2 19 41.4 19 55 C18.67 55 18.34 55 18 55 C18 42.79 18 30.58 18 18 C17.34 18 16.68 18 16 18 C16 29.55 16 41.1 16 53 C8.74 53 1.48 53 -6 53 C-6 40.46 -6 27.92 -6 15 C-5.67 15 -5.34 15 -5 15 C-5 27.21 -5 39.42 -5 52 C1.6 52 8.2 52 15 52 C14.96519531 49.36386719 14.93039063 46.72773437 14.89453125 44.01171875 C14.87113856 41.46005334 14.85292037 38.90839984 14.83520508 36.35668945 C14.82011359 34.58254657 14.79963809 32.80844102 14.77368164 31.03442383 C14.73731359 28.48509513 14.72027762 25.93625941 14.70703125 23.38671875 C14.69154739 22.59287277 14.67606354 21.79902679 14.66011047 20.98112488 C14.65942383 18.73706055 14.65942383 18.73706055 15 15 C15.99 14.01 16.98 13.02 18 12 C10.08 12 2.16 12 -6 12 C-6 9.36 -6 6.72 -6 4 C1.92 4 9.84 4 18 4 C18 3.34 18 2.68 18 2 C12.06 2 6.12 2 0 2 C0 1.34 0 0.68 0 0 Z " fill="#89B7D8" transform="translate(95,61)"/>
<path d="M0 0 C1.32 0.33 2.64 0.66 4 1 C5.80459606 1.14442951 7.61287591 1.24605629 9.421875 1.31640625 C10.44667969 1.35830078 11.47148438 1.40019531 12.52734375 1.44335938 C13.59082031 1.48267578 14.65429688 1.52199219 15.75 1.5625 C16.82894531 1.60568359 17.90789063 1.64886719 19.01953125 1.69335938 C21.67956428 1.79928989 24.33968812 1.90136421 27 2 C27 4.64 27 7.28 27 10 C19.08 10 11.16 10 3 10 C3.99 10.99 4.98 11.98 6 13 C6.26163168 15.87082157 6.34888634 18.51986493 6.29296875 21.38671875 C6.28872391 22.20372757 6.28447906 23.02073639 6.28010559 23.86250305 C6.26331691 26.47117107 6.22566519 29.07906562 6.1875 31.6875 C6.17245337 33.45636905 6.15876492 35.22525021 6.14648438 36.99414062 C6.11596473 41.32996456 6.05724638 45.6641169 6 50 C12.6 50 19.2 50 26 50 C26 37.79 26 25.58 26 13 C26.33 13 26.66 13 27 13 C27 25.54 27 38.08 27 51 C19.74 51 12.48 51 5 51 C5 39.78 5 28.56 5 17 C4.34 17 3.68 17 3 17 C3 28.88 3 40.76 3 53 C2.67 53 2.34 53 2 53 C2 39.8 2 26.6 2 13 C1.34 13 0.68 13 0 13 C0 8.71 0 4.42 0 0 Z " fill="#85B4D3" transform="translate(44,63)"/>
<path d="M0 0 C0.33 0 0.66 0 1 0 C1 1.65 1 3.3 1 5 C1.96099609 4.80083984 1.96099609 4.80083984 2.94140625 4.59765625 C7.94983993 3.57506994 12.93111794 2.66115853 18 2 C18 2.66 18 3.32 18 4 C17.34 4 16.68 4 16 4 C16 4.66 16 5.32 16 6 C21.94 6 27.88 6 34 6 C34 6.66 34 7.32 34 8 C26.08 8 18.16 8 10 8 C10 10.64 10 13.28 10 16 C17.92 16 25.84 16 34 16 C33.505 17.485 33.505 17.485 33 19 C25.41 19 17.82 19 10 19 C10 19.66 10 20.32 10 21 C9.34 21 8.68 21 8 21 C8 32.88 8 44.76 8 57 C3.38 57 -1.24 57 -6 57 C-6.04932895 50.05827886 -6.08568574 43.11665908 -6.10986328 36.17480469 C-6.11993924 33.81183089 -6.13360029 31.44886961 -6.15087891 29.0859375 C-6.17505724 25.69528112 -6.18646699 22.30478916 -6.1953125 18.9140625 C-6.20563507 17.85256989 -6.21595764 16.79107727 -6.22659302 15.69741821 C-6.22674408 14.71655243 -6.22689514 13.73568665 -6.22705078 12.72509766 C-6.23371262 11.42603989 -6.23371262 11.42603989 -6.24050903 10.10073853 C-6 8 -6 8 -4 6 C-5.65 6 -7.3 6 -9 6 C-9 5.01 -9 4.02 -9 3 C-6.69 3.33 -4.38 3.66 -2 4 C-1.34 2.68 -0.68 1.36 0 0 Z M-5 9 C-5 24.51 -5 40.02 -5 56 C-1.04 56 2.92 56 7 56 C7 40.49 7 24.98 7 9 C3.04 9 -0.92 9 -5 9 Z " fill="#C2E0F2" transform="translate(79,57)"/>
<path d="M0 0 C6.6 0 13.2 0 20 0 C20 12.21 20 24.42 20 37 C13.4 37 6.8 37 0 37 C0 26.11 0 15.22 0 4 C0.33 4 0.66 4 1 4 C1 14.56 1 25.12 1 36 C1.66 36 2.32 36 3 36 C3 25.77 3 15.54 3 5 C3.99 5 4.98 5 6 5 C6 15.23 6 25.46 6 36 C9.96 36 13.92 36 18 36 C18 24.78 18 13.56 18 2 C12.06 2 6.12 2 0 2 C0 1.34 0 0.68 0 0 Z " fill="#055EA0" transform="translate(90,76)"/>
<path d="M0 0 C1.084021 0.00523682 2.16804199 0.01047363 3.28491211 0.01586914 C5.03964844 0.02070312 5.03964844 0.02070312 6.82983398 0.02563477 C8.67738281 0.03820313 8.67738281 0.03820313 10.56225586 0.05102539 C12.41560547 0.05779297 12.41560547 0.05779297 14.30639648 0.06469727 C17.37089703 0.07652931 20.43530307 0.09301366 23.49975586 0.11352539 C23.49975586 0.77352539 23.49975586 1.43352539 23.49975586 2.11352539 C15.24975586 2.11352539 6.99975586 2.11352539 -1.50024414 2.11352539 C-1.31461914 5.30008789 -1.31461914 5.30008789 -1.12524414 8.55102539 C-1.05563477 9.74598633 -0.98602539 10.94094727 -0.91430664 12.17211914 C-0.77766602 13.1427832 -0.64102539 14.11344727 -0.50024414 15.11352539 C0.15975586 15.44352539 0.81975586 15.77352539 1.49975586 16.11352539 C1.82975586 29.31352539 2.15975586 42.51352539 2.49975586 56.11352539 C34.17975586 56.60852539 34.17975586 56.60852539 66.49975586 57.11352539 C66.49975586 57.44352539 66.49975586 57.77352539 66.49975586 58.11352539 C44.38975586 58.44352539 22.27975586 58.77352539 -0.50024414 59.11352539 C-0.81274414 40.17602539 -0.81274414 40.17602539 -0.88818359 34.25439453 C-0.92051745 32.67746701 -0.95389728 31.10056045 -0.98852539 29.52368164 C-0.99476929 28.72764526 -1.00101318 27.93160889 -1.00744629 27.1114502 C-1.13592623 22.0166366 -2.0347115 17.81460086 -3.8513031 13.04747009 C-4.72546397 10.44233547 -4.64337457 8.31416053 -4.25024414 5.61352539 C-4.08782227 4.36055664 -4.08782227 4.36055664 -3.92211914 3.08227539 C-3.29403151 0.15119979 -3.05822361 0.13886085 0 0 Z " fill="#155C93" transform="translate(44.500244140625,59.886474609375)"/>
<path d="M0 0 C2.475 0.99 2.475 0.99 5 2 C4.74307373 2.51796143 4.48614746 3.03592285 4.22143555 3.56958008 C-3.11634368 18.45158067 -8.2320666 31.64525053 -8.125 48.4375 C-8.12306641 49.17669678 -8.12113281 49.91589355 -8.11914062 50.67749023 C-8.07822028 55.84766154 -7.74499625 60.87815081 -7 66 C-7.33 65.34 -7.66 64.68 -8 64 C-8.66 64 -9.32 64 -10 64 C-10.07640543 57.73787296 -10.12874837 51.47586729 -10.16479492 45.21337891 C-10.17983076 43.08540352 -10.20026483 40.95745886 -10.22631836 38.82958984 C-10.26293089 35.76131583 -10.27977881 32.69345351 -10.29296875 29.625 C-10.30845261 28.68197021 -10.32393646 27.73894043 -10.33988953 26.76733398 C-10.34138846 20.81158356 -9.42172935 16.45238257 -7 11 C-5.35 11 -3.7 11 -2 11 C-2.061875 9.1128125 -2.061875 9.1128125 -2.125 7.1875 C-2.2390374 3.70935927 -2.05925681 3.08888522 0 0 Z " fill="#EDF9FB" transform="translate(10,32)"/>
<path d="M0 0 C21.12 0 42.24 0 64 0 C64 0.99 64 1.98 64 3 C43.21 3 22.42 3 1 3 C0.67 2.01 0.34 1.02 0 0 Z " fill="#0063BB" transform="translate(48,118)"/>
<path d="M0 0 C0.33 0 0.66 0 1 0 C1.20455552 4.49932223 1.32806276 8.99743915 1.4375 13.5 C1.49615234 14.7684375 1.55480469 16.036875 1.61523438 17.34375 C1.80855206 27.94860604 1.80855206 27.94860604 -2.40234375 32.65625 C-3.02488037 33.22150391 -3.64741699 33.78675781 -4.28881836 34.36914062 C-6.11941868 36.11381321 -7.00234008 37.6948557 -8 40 C-9.32 40 -10.64 40 -12 40 C-13.09402885 36.68144582 -13.16624301 35.35888933 -11.671875 32.1328125 C-11.03765625 31.14023438 -10.4034375 30.14765625 -9.75 29.125 C-5.33059752 22.1306564 -2.66994182 15.67006236 -1.3125 7.5625 C-1.18294922 6.83095703 -1.05339844 6.09941406 -0.91992188 5.34570312 C-0.60570185 3.565123 -0.30175932 1.78273417 0 0 Z " fill="#FCFAF3" transform="translate(159,88)"/>
<path d="M0 0 C3.75 0.5625 3.75 0.5625 5.75 2.5625 C5.375 5.6875 5.375 5.6875 4.75 8.5625 C3.76 8.8925 2.77 9.2225 1.75 9.5625 C1.75 10.2225 1.75 10.8825 1.75 11.5625 C-3.17737019 13.53344808 -7.03020872 13.7424928 -12.25 13.5625 C-10.67859866 7.11975451 -7.36140466 0.17399684 0 0 Z " fill="#235F90" transform="translate(92.25,48.4375)"/>
<path d="M0 0 C0.66 0 1.32 0 2 0 C1.86722656 0.58265625 1.73445312 1.1653125 1.59765625 1.765625 C0.33388961 7.63245407 -0.33998293 13.34267644 -0.65625 19.3359375 C-1.00470244 22.03644391 -1.79520827 23.59997838 -3 26 C-3.31438484 28.45343022 -3.31438484 28.45343022 -3.25 31 C-3.25515625 31.845625 -3.2603125 32.69125 -3.265625 33.5625 C-2.97994327 36.18404996 -2.18664749 37.67098292 -1 40 C-0.60937209 41.94771415 -0.28023286 43.90836579 0 45.875 C0.6505351 50.1189671 1.57973578 53.94210224 3 58 C3 59.32 3 60.64 3 62 C3.928125 62.0928125 3.928125 62.0928125 4.875 62.1875 C7 63 7 63 8.3125 65.4375 C9 68 9 68 8 70 C5 69 5 69 3.53515625 66.65625 C-6.55293963 45.03507898 -8.00198027 22.64908328 0 0 Z " fill="#1C5E93" transform="translate(6,50)"/>
<path d="M0 0 C1.29873047 0.00966797 2.59746094 0.01933594 3.93554688 0.02929688 C5.30729764 0.0543629 6.67904243 0.07975774 8.05078125 0.10546875 C9.43423049 0.12051855 10.81769526 0.13420645 12.20117188 0.14648438 C15.58893332 0.18189652 18.97591264 0.23128821 22.36328125 0.29296875 C22.36328125 0.62296875 22.36328125 0.95296875 22.36328125 1.29296875 C21.73164062 1.37933594 21.1 1.46570313 20.44921875 1.5546875 C8.63925043 3.40956725 -2.13021226 7.6855636 -12.63671875 13.29296875 C-13.96821682 13.96329338 -15.30097655 14.63114173 -16.63671875 15.29296875 C-16.30671875 14.30296875 -15.97671875 13.31296875 -15.63671875 12.29296875 C-14.97671875 12.29296875 -14.31671875 12.29296875 -13.63671875 12.29296875 C-13.63671875 11.63296875 -13.63671875 10.97296875 -13.63671875 10.29296875 C-12.99734375 10.00421875 -12.35796875 9.71546875 -11.69921875 9.41796875 C-9.48465796 8.46473424 -9.48465796 8.46473424 -8.63671875 6.29296875 C-8.96671875 5.30296875 -9.29671875 4.31296875 -9.63671875 3.29296875 C-6.94488093 -0.38234367 -4.34935652 -0.05697847 0 0 Z " fill="#FBFAF5" transform="translate(49.63671875,-0.29296875)"/>
<path d="M0 0 C6.6 0 13.2 0 20 0 C19.67 0.66 19.34 1.32 19 2 C13.39 2 7.78 2 2 2 C2 13.22 2 24.44 2 36 C7.61 36 13.22 36 19 36 C19 25.44 19 14.88 19 4 C19.33 4 19.66 4 20 4 C20 14.89 20 25.78 20 37 C13.4 37 6.8 37 0 37 C0 24.79 0 12.58 0 0 Z " fill="#145990" transform="translate(50,76)"/>
<path d="M0 0 C7.59 0 15.18 0 23 0 C23 1.98 23 3.96 23 6 C15.41 6 7.82 6 0 6 C0 4.02 0 2.04 0 0 Z " fill="#055FA6" transform="translate(47,66)"/>
<path d="M0 0 C7.59 0 15.18 0 23 0 C23 1.98 23 3.96 23 6 C15.41 6 7.82 6 0 6 C0 4.02 0 2.04 0 0 Z " fill="#0361AF" transform="translate(90,66)"/>
<path d="M0 0 C0.99 0 1.98 0 3 0 C3 0.99 3 1.98 3 3 C3.969375 2.979375 4.93875 2.95875 5.9375 2.9375 C9 3 9 3 10 4 C10.9075 3.979375 11.815 3.95875 12.75 3.9375 C16 4 16 4 18.08984375 4.96484375 C22.2873605 6.45792018 26.38715993 6.46659857 30.8125 6.625 C31.69615234 6.66367188 32.57980469 6.70234375 33.49023438 6.7421875 C35.65982972 6.83600784 37.82988547 6.91907326 40 7 C40 7.66 40 8.32 40 9 C40.99 9.66 41.98 10.32 43 11 C26.56969518 11.8196937 12.65235782 9.69618795 -2 2 C-1.34 1.34 -0.68 0.68 0 0 Z " fill="#0C63AA" transform="translate(45,148)"/>
<path d="M0 0 C1 2 1 2 0.43359375 4.20703125 C-2.72728974 12.47491081 -6.59280828 15.83566399 -14.2734375 20.03125 C-17.83023233 22.02691769 -21.16103829 24.41272681 -24.5 26.75 C-27.51054841 28.2552742 -29.67731285 28.23181538 -33 28 C-29.78780143 25.4705876 -26.4006305 23.43940533 -22.875 21.375 C-13.62569765 15.79071251 -6.04094444 9.01230328 0 0 Z " fill="#F3FCFD" transform="translate(145,125)"/>
<path d="M0 0 C0.33 0 0.66 0 1 0 C1 13.86 1 27.72 1 42 C0.01 42 -0.98 42 -2 42 C-2.04934926 36.34001954 -2.08569529 30.68016364 -2.10986328 25.02001953 C-2.11993582 23.09356506 -2.13359443 21.16712592 -2.15087891 19.24072266 C-2.17507241 16.47554748 -2.18647036 13.710574 -2.1953125 10.9453125 C-2.20563507 10.0806839 -2.21595764 9.2160553 -2.22659302 8.32522583 C-2.22699106 6.21546479 -2.12265243 4.10619282 -2 2 C-1.34 1.34 -0.68 0.68 0 0 Z " fill="#0062B1" transform="translate(77,70)"/>
<path d="M0 0 C10.89 0 21.78 0 33 0 C31.95206337 4.19174654 31.08236365 5.21592961 28 8 C25.8125 7.34375 25.8125 7.34375 23.625 6.6875 C22.25601563 6.27951172 22.25601563 6.27951172 20.859375 5.86328125 C19.03232919 5.31167316 17.20892493 4.747756 15.390625 4.16796875 C10.2317116 2.54178953 5.38914637 1.49899503 0 1 C0 0.67 0 0.34 0 0 Z " fill="#EFF9F9" transform="translate(88,0)"/>
<path d="M0 0 C0.66 0 1.32 0 2 0 C2.94864925 4.77278898 3.13171421 9.39465977 3.09765625 14.2421875 C3.09553383 15.39474533 3.09553383 15.39474533 3.09336853 16.57058716 C3.08780683 19.00543239 3.0752616 21.44018294 3.0625 23.875 C3.05748004 25.53385283 3.05291801 27.19270712 3.04882812 28.8515625 C3.03784998 32.9010777 3.02061206 36.95052284 3 41 C2.01 41 1.02 41 0 41 C0 27.47 0 13.94 0 0 Z " fill="#0063B0" transform="translate(82,71)"/>
<path d="M0 0 C6.6 0 13.2 0 20 0 C20 12.21 20 24.42 20 37 C14.72 37 9.44 37 4 37 C4 36.67 4 36.34 4 36 C8.62 36 13.24 36 18 36 C18 24.78 18 13.56 18 2 C12.06 2 6.12 2 0 2 C0 1.34 0 0.68 0 0 Z " fill="#145A91" transform="translate(90,76)"/>
<path d="M0 0 C3 -0.3125 3 -0.3125 6 0 C8 2 8 2 8.23046875 4.3125 C8.20919922 5.6428125 8.20919922 5.6428125 8.1875 7 C8.17783203 8.3303125 8.17783203 8.3303125 8.16796875 9.6875 C8 12 8 12 7 14 C3.23914141 13.47765853 0.58873942 12.87637713 -2 10 C-2.46913089 5.62144505 -2.46943529 3.70415293 0 0 Z " fill="#0E5FA2" transform="translate(70,47)"/>
<path d="M0 0 C0 0.66 0 1.32 0 2 C1.65 2 3.3 2 5 2 C5 2.33 5 2.66 5 3 C3.35 3.33 1.7 3.66 0 4 C-0.66 6.97 -1.32 9.94 -2 13 C-0.68 13.66 0.64 14.32 2 15 C1.01 15.495 1.01 15.495 0 16 C0 16.99 0 17.98 0 19 C-8.58 19 -17.16 19 -26 19 C-26 22.96 -26 26.92 -26 31 C-26.33 31 -26.66 31 -27 31 C-27 26.71 -27 22.42 -27 18 C-18.75 18 -10.5 18 -2 18 C-2.99 16.35 -3.98 14.7 -5 13 C-5.71541992 8.84074495 -5.63127603 5.17646896 -3.625 1.4375 C-2 0 -2 0 0 0 Z " fill="#A5D2F2" transform="translate(70,44)"/>
<path d="M0 0 C0.66 0.33 1.32 0.66 2 1 C2 4.78706732 1.5745952 8.26513121 1 12 C2.60681641 11.98259766 2.60681641 11.98259766 4.24609375 11.96484375 C5.64322743 11.95546701 7.04036299 11.94636669 8.4375 11.9375 C9.14455078 11.92912109 9.85160156 11.92074219 10.58007812 11.91210938 C12.38693559 11.90346412 14.19387603 11.94779989 16 12 C17 13 17 13 17.09765625 15.72265625 C17.08605469 16.82480469 17.07445313 17.92695312 17.0625 19.0625 C17.05347656 20.16722656 17.04445313 21.27195312 17.03515625 22.41015625 C17.02355469 23.26480469 17.01195313 24.11945313 17 25 C16.34 25 15.68 25 15 25 C15 21.37 15 17.74 15 14 C8.07 14 1.14 14 -6 14 C-5.34 13.67 -4.68 13.34 -4 13 C-3.67 12.01 -3.34 11.02 -3 10 C-2.34 10 -1.68 10 -1 10 C-1.33 7.03 -1.66 4.06 -2 1 C-1.34 0.67 -0.68 0.34 0 0 Z " fill="#115A94" transform="translate(102,48)"/>
<path d="M0 0 C-0.20625 0.61875 -0.4125 1.2375 -0.625 1.875 C-0.810625 2.926875 -0.810625 2.926875 -1 4 C-0.34 4.66 0.32 5.32 1 6 C-11.87 6 -24.74 6 -38 6 C-38 5.67 -38 5.34 -38 5 C-37.0570105 4.94054199 -37.0570105 4.94054199 -36.0949707 4.87988281 C-19.86338754 3.87157187 -19.86338754 3.87157187 -4.23046875 -0.29296875 C-2 -1 -2 -1 0 0 Z " fill="#E2F8FC" transform="translate(111,154)"/>
<path d="M0 0 C0.99 0.33 1.98 0.66 3 1 C2.67 14.2 2.34 27.4 2 41 C1.01 40.67 0.02 40.34 -1 40 C-0.67 26.8 -0.34 13.6 0 0 Z " fill="#155A92" transform="translate(114,76)"/>
<path d="M0 0 C1.9375 0.3125 1.9375 0.3125 4 1 C4.33 1.99 4.66 2.98 5 4 C5.99 4.33 6.98 4.66 8 5 C8 5.99 8 6.98 8 8 C8.86044922 8.19335938 8.86044922 8.19335938 9.73828125 8.390625 C13.43135964 9.3856513 16.85171978 10.80989202 20 13 C21 15.75 21 15.75 21 18 C22.65 18.33 24.3 18.66 26 19 C25.67 19.66 25.34 20.32 25 21 C19.88912093 19.40285029 16.13672063 16.27184413 12 13 C10.96875 12.21625 9.9375 11.4325 8.875 10.625 C5.36858195 7.42348787 2.71350451 3.87780963 0 0 Z " fill="#19629C" transform="translate(18,128)"/>
<path d="M0 0 C0.99 0.33 1.98 0.66 3 1 C3 2.32 3 3.64 3 5 C1.78763672 5.07347656 1.78763672 5.07347656 0.55078125 5.1484375 C-0.51785156 5.22320312 -1.58648437 5.29796875 -2.6875 5.375 C-3.74324219 5.44460937 -4.79898438 5.51421875 -5.88671875 5.5859375 C-8.9559086 5.9941359 -11.26648053 6.55197347 -14 8 C-14.33 8.99 -14.66 9.98 -15 11 C-17 8 -17 8 -17 5 C-18.32 4.34 -19.64 3.68 -21 3 C-19.68 2.34 -18.36 1.68 -17 1 C-17 1.66 -17 2.32 -17 3 C-16.01 3 -15.02 3 -14 3 C-14 3.66 -14 4.32 -14 5 C-13.34 4.71125 -12.68 4.4225 -12 4.125 C-9.56032196 3.21012074 -7.27300865 2.54102545 -4.75 1.9375 C-1.22687834 1.39837692 -1.22687834 1.39837692 0 0 Z " fill="#1E5C91" transform="translate(97,41)"/>
<path d="M0 0 C0.66 0 1.32 0 2 0 C1.86722656 0.58265625 1.73445312 1.1653125 1.59765625 1.765625 C0.33388961 7.63245407 -0.33998293 13.34267644 -0.65625 19.3359375 C-1 22 -1 22 -1.9921875 23.9296875 C-3.41101144 26.84432582 -3.4318162 29.53026992 -3.625 32.75 C-3.69976562 33.92046875 -3.77453125 35.0909375 -3.8515625 36.296875 C-3.90054687 37.18890625 -3.94953125 38.0809375 -4 39 C-4.33 39 -4.66 39 -5 39 C-5.45244253 25.46023837 -4.55979967 12.9062156 0 0 Z " fill="#256395" transform="translate(6,50)"/>
<path d="M0 0 C-0.1875 2.875 -0.1875 2.875 -1 6 C-5.12200122 8.83387584 -10.18968459 8.18863982 -15 8 C-15 7.34 -15 6.68 -15 6 C-14.21625 5.731875 -13.4325 5.46375 -12.625 5.1875 C-9.71885077 4.15185568 -9.71885077 4.15185568 -8 1 C-5.07175348 0.02391783 -3.04386724 -0.08226668 0 0 Z " fill="#0764B5" transform="translate(96,51)"/>
<path d="M0 0 C1.65 0 3.3 0 5 0 C4.28199219 0.70769531 3.56398438 1.41539063 2.82421875 2.14453125 C0.05955493 4.90919507 -2.56896477 7.78373855 -5.1875 10.6875 C-9.81944444 15.81944444 -9.81944444 15.81944444 -12 18 C-11.35667469 11.24508424 -8.17187691 6.33770322 -3 2 C-2.01 2 -1.02 2 0 2 C0 1.34 0 0.68 0 0 Z " fill="#DFF6FC" transform="translate(27,16)"/>
<path d="M0 0 C0.33 0 0.66 0 1 0 C1.13987946 5.6587601 0.70769275 10.82619964 -0.375 16.375 C-0.50132812 17.08527344 -0.62765625 17.79554687 -0.7578125 18.52734375 C-1.7485546 23.7485546 -1.7485546 23.7485546 -4 26 C-4.1954625 23.75067773 -4.38108226 21.50049858 -4.5625 19.25 C-4.66691406 17.99703125 -4.77132812 16.7440625 -4.87890625 15.453125 C-4.97876723 12.60547636 -4.90584295 10.65713933 -4 8 C-3.01 8 -2.02 8 -1 8 C-0.67 5.36 -0.34 2.72 0 0 Z " fill="#1261A0" transform="translate(159,80)"/>
<path d="M0 0 C7.59 0 15.18 0 23 0 C23 1.98 23 3.96 23 6 C22.34 6 21.68 6 21 6 C21 5.34 21 4.68 21 4 C16.05 4 11.1 4 6 4 C6 3.67 6 3.34 6 3 C10.95 3 15.9 3 21 3 C21 2.34 21 1.68 21 1 C14.4 1 7.8 1 1 1 C1 2.32 1 3.64 1 5 C3.97 5 6.94 5 10 5 C10 5.33 10 5.66 10 6 C6.7 6 3.4 6 0 6 C0 4.02 0 2.04 0 0 Z " fill="#0A5998" transform="translate(90,66)"/>
<path d="M0 0 C1.084021 0.00523682 2.16804199 0.01047363 3.28491211 0.01586914 C5.03964844 0.02070312 5.03964844 0.02070312 6.82983398 0.02563477 C8.67738281 0.03820313 8.67738281 0.03820313 10.56225586 0.05102539 C12.41560547 0.05779297 12.41560547 0.05779297 14.30639648 0.06469727 C17.37089703 0.07652931 20.43530307 0.09301366 23.49975586 0.11352539 C23.49975586 0.77352539 23.49975586 1.43352539 23.49975586 2.11352539 C11.12475586 2.60852539 11.12475586 2.60852539 -1.50024414 3.11352539 C-1.83024414 5.42352539 -2.16024414 7.73352539 -2.50024414 10.11352539 C-2.83024414 10.11352539 -3.16024414 10.11352539 -3.50024414 10.11352539 C-3.5271363 8.63445647 -3.54659036 7.15525056 -3.56274414 5.67602539 C-3.5743457 4.85231445 -3.58594727 4.02860352 -3.59790039 3.17993164 C-3.45298274 0.11347415 -3.0796636 0.13983435 0 0 Z " fill="#1A598C" transform="translate(44.500244140625,59.886474609375)"/>
<path d="M0 0 C7.59 0 15.18 0 23 0 C23 1.98 23 3.96 23 6 C20.03 6 17.06 6 14 6 C14 5.67 14 5.34 14 5 C16.64 5 19.28 5 22 5 C22 3.68 22 2.36 22 1 C15.4 1 8.8 1 2 1 C2 1.66 2 2.32 2 3 C4.97 3 7.94 3 11 3 C11 3.33 11 3.66 11 4 C8.03 4 5.06 4 2 4 C2 4.66 2 5.32 2 6 C1.34 6 0.68 6 0 6 C0 4.02 0 2.04 0 0 Z " fill="#07599B" transform="translate(47,66)"/>
<path d="M0 0 C2.375 -0.125 2.375 -0.125 5 0 C7 2 7 2 7.23046875 4.3125 C7.21628906 5.199375 7.20210938 6.08625 7.1875 7 C7.18105469 7.886875 7.17460938 8.77375 7.16796875 9.6875 C7 12 7 12 6 14 C4.35 13.67 2.7 13.34 1 13 C1 12.34 1 11.68 1 11 C2.32 11 3.64 11 5 11 C4.505 9.906875 4.01 8.81375 3.5 7.6875 C2 4 2 4 2 1 C1.34 0.67 0.68 0.34 0 0 Z " fill="#1D649D" transform="translate(71,47)"/>
<path d="M0 0 C0 3.61165822 -0.61753391 4.3710719 -3 7 C-5.375 8.5625 -5.375 8.5625 -8 10 C-8.804375 10.556875 -9.60875 11.11375 -10.4375 11.6875 C-13.48871248 13.25031615 -15.61749848 13.23598848 -19 13 C-15.09013346 9.927962 -10.85598212 7.42663574 -6.6015625 4.87304688 C-4.15645367 3.38971824 -2.03075453 2.03075453 0 0 Z " fill="#CFEBF7" transform="translate(131,140)"/>
<path d="M0 0 C0.33 0 0.66 0 1 0 C1.68798044 17.68364544 1.68798044 17.68364544 -2 24 C-4.109375 24.76171875 -4.109375 24.76171875 -6 25 C-5.566875 23.845 -5.13375 22.69 -4.6875 21.5 C-2.33494367 14.52074956 -1.25246684 7.23943598 0 0 Z " fill="#CCEFFA" transform="translate(159,88)"/>
<path d="M0 0 C1.9375 0.8125 1.9375 0.8125 4 2 C5.19334591 5.58003773 5.33543224 8.24315896 5 12 C3 13.9375 3 13.9375 1 15 C1 14.34 1 13.68 1 13 C0.01 12.67 -0.98 12.34 -2 12 C-1.484375 11.608125 -0.96875 11.21625 -0.4375 10.8125 C0.2740625 9.9153125 0.2740625 9.9153125 1 9 C0.76956136 6.34533951 0.76956136 6.34533951 0 4 C-1.65 3.67 -3.3 3.34 -5 3 C-5 2.67 -5 2.34 -5 2 C-3.35 2 -1.7 2 0 2 C0 1.34 0 0.68 0 0 Z " fill="#B3E2F3" transform="translate(96,46)"/>
<path d="M0 0 C0.99 0 1.98 0 3 0 C3 0.99 3 1.98 3 3 C3.66 3 4.32 3 5 3 C9.59225513 19.70842825 9.59225513 19.70842825 9 28 C8.67 28 8.34 28 8 28 C7.76216797 26.69289063 7.76216797 26.69289063 7.51953125 25.359375 C6.05059598 17.86050104 4.15152238 11.3077839 0.98828125 4.328125 C0 2 0 2 0 0 Z " fill="#CFF4FD" transform="translate(151,42)"/>
<path d="M0 0 C1.65 0 3.3 0 5 0 C5 0.66 5 1.32 5 2 C5.66 2 6.32 2 7 2 C7 2.66 7 3.32 7 4 C7.99 4.33 8.98 4.66 10 5 C12 6 12 6 14 9 C14.33 9.33 14.66 9.66 15 10 C15.04063832 11.66617115 15.042721 13.33388095 15 15 C14.38125 14.360625 13.7625 13.72125 13.125 13.0625 C9.5806068 9.49755959 5.7808117 6.21402959 2.01171875 2.890625 C1.34785156 2.26671875 0.68398437 1.6428125 0 1 C0 0.67 0 0.34 0 0 Z " fill="#D9F0FA" transform="translate(129,16)"/>
<path d="M0 0 C0.33 0 0.66 0 1 0 C1 1.65 1 3.3 1 5 C1.61875 5.12375 2.2375 5.2475 2.875 5.375 C5 6 5 6 7 8 C3.04 8 -0.92 8 -5 8 C-4.67 7.34 -4.34 6.68 -4 6 C-5.65 6 -7.3 6 -9 6 C-9 5.01 -9 4.02 -9 3 C-6.69 3.33 -4.38 3.66 -2 4 C-1.34 2.68 -0.68 1.36 0 0 Z " fill="#D8F3FB" transform="translate(79,57)"/>
<path d="M0 0 C0.99 0.66 1.98 1.32 3 2 C1.35 3.65 -0.3 5.3 -2 7 C-1.67 7.99 -1.34 8.98 -1 10 C-2.98 10 -4.96 10 -7 10 C-7.66 11.65 -8.32 13.3 -9 15 C-9.66 15 -10.32 15 -11 15 C-9.58319756 10.67953102 -7.46236215 7.99538801 -4.375 4.6875 C-3.55773437 3.80449219 -2.74046875 2.92148437 -1.8984375 2.01171875 C-0.95871094 1.01591797 -0.95871094 1.01591797 0 0 Z " fill="#19629E" transform="translate(25,22)"/>
<path d="M0 0 C3.15282724 1.42089299 5.53777964 3.15031851 8.125 5.4375 C8.80820313 6.03433594 9.49140625 6.63117187 10.1953125 7.24609375 C12 9 12 9 14 12 C13.67 12.99 13.34 13.98 13 15 C13 14.34 13 13.68 13 13 C12.236875 12.731875 11.47375 12.46375 10.6875 12.1875 C7.24148253 10.66484112 5.60392816 9.28334733 4 5.875 C3.08797022 3.6469565 3.08797022 3.6469565 0 3 C0 2.01 0 1.02 0 0 Z " fill="#266596" transform="translate(128,17)"/>
<path d="M0 0 C2.41050605 2.41050605 3.66943065 4.85419222 5.25 7.875 C5.81203125 8.92429687 6.3740625 9.97359375 6.953125 11.0546875 C8 14 8 14 7.171875 16.3828125 C6.59179688 17.18332031 6.59179688 17.18332031 6 18 C5.32845067 16.71086513 4.66291141 15.41859796 4 14.125 C3.62875 13.40570313 3.2575 12.68640625 2.875 11.9453125 C2 10 2 10 2 8 C1.01 8 0.02 8 -1 8 C-1.93065133 5.39417629 -2.14917407 4.35801776 -1.0625 1.75 C-0.711875 1.1725 -0.36125 0.595 0 0 Z " fill="#D2EEF6" transform="translate(6,108)"/>
<path d="M0 0 C-5.69787522 5.69787522 -15.29096573 6.66555166 -23 7 C-23.33 6.34 -23.66 5.68 -24 5 C-18.555 4.505 -18.555 4.505 -13 4 C-13 3.34 -13 2.68 -13 2 C-4.57142857 -0.28571429 -4.57142857 -0.28571429 0 0 Z " fill="#2E6998" transform="translate(114,151)"/>
<path d="M0 0 C7.59 0 15.18 0 23 0 C22.67 0.99 22.34 1.98 22 3 C14.74 2.67 7.48 2.34 0 2 C0 1.34 0 0.68 0 0 Z " fill="#ECFDFD" transform="translate(90,73)"/>
<path d="M0 0 C7.59 0 15.18 0 23 0 C23 0.66 23 1.32 23 2 C12.11 2.495 12.11 2.495 1 3 C0.67 2.01 0.34 1.02 0 0 Z " fill="#ECFDFD" transform="translate(47,73)"/>
<path d="M0 0 C1.2410689 2.4821378 1 4.24140025 1 7 C1.226875 7.70125 1.45375 8.4025 1.6875 9.125 C1.790625 9.74375 1.89375 10.3625 2 11 C0.5625 12.75 0.5625 12.75 -1 14 C-1.66 13.34 -2.32 12.68 -3 12 C-3.66 12.99 -4.32 13.98 -5 15 C-5.68359375 13.359375 -5.68359375 13.359375 -6 11 C-4.78515625 8.203125 -4.78515625 8.203125 -3.0625 5.25 C-2.49660156 4.26515625 -1.93070313 3.2803125 -1.34765625 2.265625 C-0.90292969 1.51796875 -0.45820313 0.7703125 0 0 Z " fill="#1365A9" transform="translate(13,37)"/>
<path d="M0 0 C2.97 0 5.94 0 9 0 C9 0.99 9 1.98 9 3 C8.39671875 3.02578125 7.7934375 3.0515625 7.171875 3.078125 C1.95546103 3.4034799 1.95546103 3.4034799 -2.5 5.9375 C-4.02911232 7.92122549 -4.02911232 7.92122549 -5 10 C-5.66 10 -6.32 10 -7 10 C-6.67 7.69 -6.34 5.38 -6 3 C-5.195625 2.87625 -4.39125 2.7525 -3.5625 2.625 C-2.716875 2.41875 -1.87125 2.2125 -1 2 C-0.67 1.34 -0.34 0.68 0 0 Z " fill="#105B96" transform="translate(70,40)"/>
<path d="M0 0 C2.97 0.495 2.97 0.495 6 1 C5.67 12.22 5.34 23.44 5 35 C4.67 35 4.34 35 4 35 C4 24.44 4 13.88 4 3 C2.68 2.34 1.36 1.68 0 1 C0 0.67 0 0.34 0 0 Z " fill="#0166B9" transform="translate(100,77)"/>
<path d="M0 0 C2.14576637 -0.02685938 4.29162645 -0.04633088 6.4375 -0.0625 C7.63246094 -0.07410156 8.82742187 -0.08570313 10.05859375 -0.09765625 C13 0 13 0 14 1 C16.01594582 1.23427778 18.038474 1.41336124 20.0625 1.5625 C21.16722656 1.64628906 22.27195312 1.73007813 23.41015625 1.81640625 C24.26480469 1.87699219 25.11945313 1.93757812 26 2 C26 2.33 26 2.66 26 3 C22.97892098 3.0543251 19.95883472 3.09382927 16.9375 3.125 C16.08994141 3.14175781 15.24238281 3.15851563 14.36914062 3.17578125 C9.16581799 3.21596135 4.92530179 2.69745815 0 1 C0 0.67 0 0.34 0 0 Z " fill="#3472A3" transform="translate(62,156)"/>
<path d="M0 0 C0.33 0 0.66 0 1 0 C0.99476318 0.71019287 0.98952637 1.42038574 0.98413086 2.15209961 C0.96316239 5.4138905 0.95027719 8.67566714 0.9375 11.9375 C0.92912109 13.05447266 0.92074219 14.17144531 0.91210938 15.32226562 C0.89358251 21.63992667 1.15660583 27.73763227 2 34 C1.67 33.34 1.34 32.68 1 32 C0.34 32 -0.32 32 -1 32 C-1.02921779 27.97918212 -1.04687188 23.95839186 -1.0625 19.9375 C-1.07087891 18.80376953 -1.07925781 17.67003906 -1.08789062 16.50195312 C-1.10424847 10.89121133 -1.01812097 5.52350669 0 0 Z " fill="#C6F2F9" transform="translate(1,64)"/>
<path d="M0 0 C1.43791516 0.14168137 2.8753237 0.28851043 4.3125 0.4375 C5.11300781 0.51871094 5.91351563 0.59992188 6.73828125 0.68359375 C9 1 9 1 12 2 C12 2.66 12 3.32 12 4 C12.66 4.33 13.32 4.66 14 5 C12.68 5.33 11.36 5.66 10 6 C10 5.67 10 5.34 10 5 C6.04 4.67 2.08 4.34 -2 4 C-1.33333333 2.66666667 -0.66666667 1.33333333 0 0 Z " fill="#045695" transform="translate(90,1)"/>
<path d="M0 0 C0.66 0 1.32 0 2 0 C3.96189209 3.6678852 5.39301257 6.87248551 6 11 C5.34 11 4.68 11 4 11 C4 10.34 4 9.68 4 9 C2.68 9.33 1.36 9.66 0 10 C0 6.7 0 3.4 0 0 Z " fill="#EBF5F6" transform="translate(0,96)"/>
<path d="M0 0 C2.69378789 2.69378789 3.13672837 5.22574981 4.1875 8.875 C4.55230469 10.10992187 4.91710937 11.34484375 5.29296875 12.6171875 C5.93501035 15.68905505 6.12677877 17.14357992 5 20 C5 19.34 5 18.68 5 18 C4.34 18 3.68 18 3 18 C1.73638028 12.01314152 0.67581523 6.08233706 0 0 Z " fill="#2C6E9E" transform="translate(153,48)"/>
<path d="M0 0 C0.99 0 1.98 0 3 0 C3 0.99 3 1.98 3 3 C4.2684375 2.9071875 4.2684375 2.9071875 5.5625 2.8125 C9.73619843 3.04015628 12.25432947 4.20207814 16 6 C16 6.33 16 6.66 16 7 C9.0698419 7.77001757 4.10236607 5.0898056 -2 2 C-1.34 1.34 -0.68 0.68 0 0 Z " fill="#246599" transform="translate(45,148)"/>
<path d="M0 0 C1.9375 0.3125 1.9375 0.3125 4 1 C4.33 1.99 4.66 2.98 5 4 C5.99 4.33 6.98 4.66 8 5 C8 5.99 8 6.98 8 8 C8.61875 8.0825 9.2375 8.165 9.875 8.25 C12 9 12 9 13.25 11.0625 C13.4975 11.701875 13.745 12.34125 14 13 C9.5014093 11.6016814 7.25028785 9.46757886 4.1875 5.9375 C3.39730469 5.03902344 2.60710938 4.14054688 1.79296875 3.21484375 C0 1 0 1 0 0 Z " fill="#206094" transform="translate(18,128)"/>
<path d="M0 0 C0.99 0.33 1.98 0.66 3 1 C-0.3810038 5.13621084 -3.66590534 8.81316569 -8 12 C-8.66 11.67 -9.32 11.34 -10 11 C-7.93406448 7.90109671 -5.66023074 5.59534707 -3 3 C-2.401875 2.401875 -1.80375 1.80375 -1.1875 1.1875 C-0.795625 0.795625 -0.40375 0.40375 0 0 Z " fill="#23659A" transform="translate(136,132)"/>
<path d="M0 0 C0.33 0 0.66 0 1 0 C0.49202991 4.3177458 -0.19682779 8.03302114 -2 12 C-2.66 12 -3.32 12 -4 12 C-4.33 12.66 -4.66 13.32 -5 14 C-5.6796875 12.328125 -5.6796875 12.328125 -6 10 C-4.8203125 7.421875 -4.8203125 7.421875 -3.125 4.75 C-2.57070312 3.85796875 -2.01640625 2.9659375 -1.4453125 2.046875 C-0.96835938 1.37140625 -0.49140625 0.6959375 0 0 Z " fill="#D5EAF4" transform="translate(152,113)"/>
<path d="M0 0 C-3.10420644 2.06947096 -6.0318675 3.32446144 -9.5 4.6875 C-10.6446875 5.14511719 -11.789375 5.60273437 -12.96875 6.07421875 C-16 7 -16 7 -19 6 C-18.01 5.34 -17.02 4.68 -16 4 C-14.96875 3.29875 -13.9375 2.5975 -12.875 1.875 C-8.66246996 -0.56050987 -4.74255005 -0.38714694 0 0 Z " fill="#C3E8F7" transform="translate(61,2)"/>
<path d="M0 0 C1 2 1 2 -0.0625 5.375 C-1.82752277 9.27106408 -4.19253161 11.01694355 -8 13 C-8.99 13 -9.98 13 -11 13 C-10.06027344 11.96939453 -10.06027344 11.96939453 -9.1015625 10.91796875 C-8.28429687 10.01691406 -7.46703125 9.11585938 -6.625 8.1875 C-5.81289062 7.29417969 -5.00078125 6.40085938 -4.1640625 5.48046875 C-1.90927093 3.00367326 -1.90927093 3.00367326 0 0 Z " fill="#D3F0FA" transform="translate(145,125)"/>
<path d="M0 0 C2.4294516 3.6441774 2.16179575 5.71241272 2 10 C2.66 10 3.32 10 4 10 C4.33 11.98 4.66 13.96 5 16 C2 15 2 15 1.015625 13.14453125 C-0.549808 8.37635013 -1.40843329 4.9935362 0 0 Z " fill="#035BA0" transform="translate(154,56)"/>
<path d="M0 0 C6.6 0 13.2 0 20 0 C20 1.32 20 2.64 20 4 C17.525 3.505 17.525 3.505 15 3 C15 2.34 15 1.68 15 1 C10.05 1 5.1 1 0 1 C0 0.67 0 0.34 0 0 Z " fill="#0063B7" transform="translate(49,67)"/>
<path d="M0 0 C0.66 0 1.32 0 2 0 C2.33 0.99 2.66 1.98 3 3 C1.6875 4.5 1.6875 4.5 0 6 C-0.99 6 -1.98 6 -3 6 C-3 6.66 -3 7.32 -3 8 C-3.99 8.33 -4.98 8.66 -6 9 C-6.33 7.68 -6.66 6.36 -7 5 C-6.21625 4.731875 -5.4325 4.46375 -4.625 4.1875 C-1.71885077 3.15185568 -1.71885077 3.15185568 0 0 Z " fill="#FCF7ED" transform="translate(39,4)"/>
<path d="M0 0 C0.66 0.33 1.32 0.66 2 1 C2 4.78706732 1.5745952 8.26513121 1 12 C-1.33317216 12.77772405 -3.61435923 13.42415568 -6 14 C-5.34 13.67 -4.68 13.34 -4 13 C-3.67 12.01 -3.34 11.02 -3 10 C-2.34 10 -1.68 10 -1 10 C-1.33 7.03 -1.66 4.06 -2 1 C-1.34 0.67 -0.68 0.34 0 0 Z " fill="#22689F" transform="translate(102,48)"/>
<path d="M0 0 C1.27208622 0.62244599 2.54261882 1.24806767 3.8125 1.875 C4.52019531 2.22304687 5.22789063 2.57109375 5.95703125 2.9296875 C8 4 8 4 11 6 C10.67 6.99 10.34 7.98 10 9 C9.071875 8.319375 8.14375 7.63875 7.1875 6.9375 C6.135625 6.298125 5.08375 5.65875 4 5 C3.01 5.33 2.02 5.66 1 6 C1 5.34 1 4.68 1 4 C0.34 3.67 -0.32 3.34 -1 3 C-0.67 2.01 -0.34 1.02 0 0 Z " fill="#145E9B" transform="translate(115,8)"/>
<path d="M0 0 C0.80566406 0.00322266 1.61132812 0.00644531 2.44140625 0.00976562 C3.70404297 0.02233398 3.70404297 0.02233398 4.9921875 0.03515625 C5.84167969 0.03966797 6.69117187 0.04417969 7.56640625 0.04882812 C9.66669659 0.06062751 11.7669508 0.07856319 13.8671875 0.09765625 C13.8671875 0.42765625 13.8671875 0.75765625 13.8671875 1.09765625 C10.91004087 1.48596843 7.95235477 1.85881172 4.9921875 2.22265625 C3.72955078 2.39087891 3.72955078 2.39087891 2.44140625 2.5625 C1.63574219 2.65917969 0.83007812 2.75585938 0 2.85546875 C-1.11544189 2.99686279 -1.11544189 2.99686279 -2.25341797 3.14111328 C-4.1328125 3.09765625 -4.1328125 3.09765625 -6.1328125 1.09765625 C-3.8362755 -0.05061225 -2.54968083 -0.0179555 0 0 Z " fill="#DEF7FD" transform="translate(58.1328125,-0.09765625)"/>
<path d="M0 0 C3.63 0 7.26 0 11 0 C11 0.33 11 0.66 11 1 C9.35 1.33 7.7 1.66 6 2 C6 2.33 6 2.66 6 3 C1.05 3 -3.9 3 -9 3 C-9 2.67 -9 2.34 -9 2 C-6.03 2 -3.06 2 0 2 C0 1.34 0 0.68 0 0 Z " fill="#085796" transform="translate(85,155)"/>
<path d="M0 0 C0 0.66 0 1.32 0 2 C-0.78375 2.268125 -1.5675 2.53625 -2.375 2.8125 C-5.28114923 3.84814432 -5.28114923 3.84814432 -7 7 C-9.125 7.6875 -9.125 7.6875 -11 8 C-6.17527933 -0.50069832 -6.17527933 -0.50069832 0 0 Z " fill="#2E6791" transform="translate(93,49)"/>
<path d="M0 0 C3.36704285 -0.2295711 5.41370268 -0.33943529 8.375 1.375 C8.91125 1.91125 9.4475 2.4475 10 3 C10 3.66 10 4.32 10 5 C9.01 5.33 8.02 5.66 7 6 C6.34 5.34 5.68 4.68 5 4 C2.42938689 3.35232207 2.42938689 3.35232207 0 3 C0 2.01 0 1.02 0 0 Z " fill="#C0E6F7" transform="translate(70,43)"/>
<path d="M0 0 C0.66 0.66 1.32 1.32 2 2 C-1.46222615 3.06723961 -4.64039266 3.10173486 -8.25 3.0625 C-9.32765625 3.05347656 -10.4053125 3.04445313 -11.515625 3.03515625 C-12.33546875 3.02355469 -13.1553125 3.01195312 -14 3 C-4.41887906 -1.89380531 -4.41887906 -1.89380531 0 0 Z " fill="#28699D" transform="translate(68,2)"/>
<path d="M0 0 C2.24973447 -0.054138 4.49984383 -0.09285491 6.75 -0.125 C8.00296875 -0.14820312 9.2559375 -0.17140625 10.546875 -0.1953125 C13.72820492 -0.01537302 15.36521896 0.31001418 18 2 C11.6496923 3.41117949 6.30338787 2.3792223 0 1 C0 0.67 0 0.34 0 0 Z " fill="#C7EBF8" transform="translate(88,0)"/>
<path d="M0 0 C0.66 0.33 1.32 0.66 2 1 C0.06745228 3.0245738 -1.63158688 4.42105792 -4 6 C-5.19232613 8.05003955 -5.19232613 8.05003955 -6 10 C-7.65 10 -9.3 10 -11 10 C-7.50640535 6.40365256 -3.88901869 3.16548033 0 0 Z " fill="#296A9E" transform="translate(37,12)"/>
<path d="M0 0 C0.33 0 0.66 0 1 0 C1.04254356 1.99954746 1.04080783 4.00041636 1 6 C0.67 6.33 0.34 6.66 0 7 C-0.23481693 9.18292774 -0.41363323 11.37203174 -0.5625 13.5625 C-0.64628906 14.76003906 -0.73007812 15.95757812 -0.81640625 17.19140625 C-0.87699219 18.11824219 -0.93757812 19.04507813 -1 20 C-1.33 20 -1.66 20 -2 20 C-2 14.39 -2 8.78 -2 3 C-1.34 3 -0.68 3 0 3 C0 2.01 0 1.02 0 0 Z " fill="#2C70A6" transform="translate(3,69)"/>
<path d="M0 0 C0.66 0 1.32 0 2 0 C2 0.66 2 1.32 2 2 C3.65 2 5.3 2 7 2 C7 2.33 7 2.66 7 3 C5.35 3.33 3.7 3.66 2 4 C1.34 6.31 0.68 8.62 0 11 C-0.33 11 -0.66 11 -1 11 C-1.22174933 9.54364629 -1.42698698 8.08477044 -1.625 6.625 C-1.74101563 5.81289063 -1.85703125 5.00078125 -1.9765625 4.1640625 C-1.98429687 3.44992188 -1.99203125 2.73578125 -2 2 C-1.34 1.34 -0.68 0.68 0 0 Z " fill="#AAD2E7" transform="translate(68,44)"/>
<path d="M0 0 C0.33 0.99 0.66 1.98 1 3 C-0.43359375 5.69921875 -0.43359375 5.69921875 -2.4375 8.6875 C-3.09621094 9.68136719 -3.75492188 10.67523438 -4.43359375 11.69921875 C-5.20896484 12.83810547 -5.20896484 12.83810547 -6 14 C-6.66 13.34 -7.32 12.68 -8 12 C-7.34 12 -6.68 12 -6 12 C-5.88785156 11.42765625 -5.77570313 10.8553125 -5.66015625 10.265625 C-4.92776966 7.75210888 -3.86145147 5.94069457 -2.4375 3.75 C-1.98246094 3.04359375 -1.52742187 2.3371875 -1.05859375 1.609375 C-0.53458984 0.81273438 -0.53458984 0.81273438 0 0 Z " fill="#155D97" transform="translate(149,115)"/>
<path d="M0 0 C2.31 0 4.62 0 7 0 C7 0.99 7 1.98 7 3 C6.401875 3.12375 5.80375 3.2475 5.1875 3.375 C2.73768652 3.95475985 2.73768652 3.95475985 0 6 C0 4.02 0 2.04 0 0 Z " fill="#0A5B9D" transform="translate(75,66)"/>
<path d="M0 0 C2.97 0 5.94 0 9 0 C9 0.66 9 1.32 9 2 C5.78548731 3.60725635 2.56387464 3.05748185 -1 3 C-0.67 2.01 -0.34 1.02 0 0 Z " fill="#26659B" transform="translate(81,59)"/>
<path d="M0 0 C0.99 0.33 1.98 0.66 3 1 C3 2.32 3 3.64 3 5 C-0.63 5 -4.26 5 -8 5 C-8 4.67 -8 4.34 -8 4 C-7.236875 3.896875 -6.47375 3.79375 -5.6875 3.6875 C-2.82940576 2.95635961 -1.84257115 2.23048087 0 0 Z " fill="#2B6FA5" transform="translate(97,41)"/>
<path d="M0 0 C0.66 0 1.32 0 2 0 C2.33 1.65 2.66 3.3 3 5 C4.32 4.34 5.64 3.68 7 3 C7.99 4.485 7.99 4.485 9 6 C7.3125 6.6875 7.3125 6.6875 5 7 C2.25 5.8125 2.25 5.8125 0 4 C0 2.68 0 1.36 0 0 Z " fill="#0365B6" transform="translate(113,9)"/>
<path d="M0 0 C0.66 0 1.32 0 2 0 C2.66 3.63 3.32 7.26 4 11 C2.68 10.34 1.36 9.68 0 9 C0 6.03 0 3.06 0 0 Z " fill="#D6F5FB" transform="translate(65,48)"/>
<path d="M0 0 C0.33 1.32 0.66 2.64 1 4 C-5.625 3.25 -5.625 3.25 -9 1 C-5.57367167 -0.61798838 -3.61944899 -1.34053666 0 0 Z " fill="#055AA0" transform="translate(47,12)"/>
<path d="M0 0 C0 1.98 0 3.96 0 6 C-2.97 5.67 -5.94 5.34 -9 5 C-6.4696843 2.4696843 -3.83405989 0 0 0 Z " fill="#1E6CAB" transform="translate(48,7)"/>
<path d="M0 0 C-2 3 -2 3 -4.1640625 3.51171875 C-5.38222656 3.59873047 -5.38222656 3.59873047 -6.625 3.6875 C-7.44226563 3.75324219 -8.25953125 3.81898438 -9.1015625 3.88671875 C-9.72804688 3.92410156 -10.35453125 3.96148437 -11 4 C-7.04396675 0.96704118 -5.03239385 -0.13243142 0 0 Z " fill="#DEF5FC" transform="translate(123,149)"/>
<path d="M0 0 C1.03348696 3.10046087 1.17755913 4.05610218 0 7 C-0.99 7.33 -1.98 7.66 -3 8 C-3.33 6.35 -3.66 4.7 -4 3 C-2.68 2.01 -1.36 1.02 0 0 Z " fill="#FEFAEF" transform="translate(8,36)"/>
<path d="M0 0 C-2.12920281 2.12920281 -3.10230433 2.51084284 -5.9375 3.25 C-6.62714844 3.44078125 -7.31679687 3.6315625 -8.02734375 3.828125 C-10 4 -10 4 -13 2 C-4.57142857 -0.28571429 -4.57142857 -0.28571429 0 0 Z " fill="#1C5D92" transform="translate(114,151)"/>
<path d="M0 0 C5.75 3.625 5.75 3.625 8 7 C5.25851328 6.62952882 3.41406801 6.31412056 1.1875 4.625 C0 3 0 3 0 0 Z " fill="#D2F0FA" transform="translate(25,137)"/>
<path d="M0 0 C0.66 0 1.32 0 2 0 C2.144375 1.093125 2.28875 2.18625 2.4375 3.3125 C2.88288104 6.93122987 2.88288104 6.93122987 4 10 C3.01 10 2.02 10 1 10 C-0.60725635 6.78548731 -0.05748185 3.56387464 0 0 Z " fill="#2D74AC" transform="translate(63,50)"/>
<path d="M0 0 C0.99 0.66 1.98 1.32 3 2 C1.25 4.0625 1.25 4.0625 -1 6 C-3.25 5.75 -3.25 5.75 -5 5 C-3.35 3.35 -1.7 1.7 0 0 Z " fill="#23679C" transform="translate(25,22)"/>
<path d="M0 0 C1.50433594 0.29197266 1.50433594 0.29197266 3.0390625 0.58984375 C4.19535156 0.82380859 4.19535156 0.82380859 5.375 1.0625 C5.375 1.3925 5.375 1.7225 5.375 2.0625 C3.77120659 2.11666188 2.16688594 2.15536638 0.5625 2.1875 C-0.33082031 2.21070313 -1.22414063 2.23390625 -2.14453125 2.2578125 C-4.625 2.0625 -4.625 2.0625 -7.625 0.0625 C-4.81015955 -1.34492022 -3.05563887 -0.60402164 0 0 Z " fill="#D4E9F4" transform="translate(56.625,154.9375)"/>
<path d="M0 0 C2.31 0 4.62 0 7 0 C7 0.99 7 1.98 7 3 C5.35 3.33 3.7 3.66 2 4 C2 3.01 2 2.02 2 1 C1.34 0.67 0.68 0.34 0 0 Z " fill="#0062B7" transform="translate(84,124)"/>
<path d="M0 0 C2.31 0 4.62 0 7 0 C7 0.99 7 1.98 7 3 C5.35 3.33 3.7 3.66 2 4 C2 3.01 2 2.02 2 1 C1.34 0.67 0.68 0.34 0 0 Z " fill="#0062B7" transform="translate(68,124)"/>
<path d="M0 0 C0.66 0 1.32 0 2 0 C3.75 2.25 3.75 2.25 5 5 C4.1875 7.3125 4.1875 7.3125 3 9 C0 3.375 0 3.375 0 0 Z " fill="#DAF3FB" transform="translate(9,117)"/>
<path d="M0 0 C0.99 0.33 1.98 0.66 3 1 C5.22574335 1.22451458 7.45581519 1.40782878 9.6875 1.5625 C10.86699219 1.64628906 12.04648438 1.73007812 13.26171875 1.81640625 C14.61716797 1.90728516 14.61716797 1.90728516 16 2 C16 2.33 16 2.66 16 3 C10.72 3 5.44 3 0 3 C0 2.01 0 1.02 0 0 Z " fill="#215B89" transform="translate(100,59)"/>
<path d="M0 0 C-0.33 0.99 -0.66 1.98 -1 3 C-3.8125 3.625 -3.8125 3.625 -7 4 C-7.99 3.34 -8.98 2.68 -10 2 C-8.71211992 1.46987262 -7.41953322 0.9511671 -6.125 0.4375 C-5.40570313 0.14746094 -4.68640625 -0.14257812 -3.9453125 -0.44140625 C-2 -1 -2 -1 0 0 Z " fill="#D3EBF7" transform="translate(111,154)"/>
<path d="M0 0 C2.02350324 3.03525486 2.32124018 4.19426202 2.625 7.6875 C2.69976562 8.49574219 2.77453125 9.30398437 2.8515625 10.13671875 C2.90054687 10.75160156 2.94953125 11.36648437 3 12 C2.67 11.34 2.34 10.68 2 10 C1.34 10 0.68 10 0 10 C0 6.7 0 3.4 0 0 Z " fill="#D4F0F8" transform="translate(0,86)"/>
<path d="M0 0 C0.66 0 1.32 0 2 0 C2 0.99 2 1.98 2 3 C4.97 3 7.94 3 11 3 C11 3.33 11 3.66 11 4 C8.03 4 5.06 4 2 4 C2 4.66 2 5.32 2 6 C1.34 6 0.68 6 0 6 C0 4.02 0 2.04 0 0 Z " fill="#0F5892" transform="translate(47,66)"/>
<path d="M0 0 C2.31 0 4.62 0 7 0 C7 0.66 7 1.32 7 2 C5.1875 3.6875 5.1875 3.6875 3 5 C2.01 4.67 1.02 4.34 0 4 C0 2.68 0 1.36 0 0 Z " fill="#0063B7" transform="translate(80,40)"/>
<path d="M0 0 C0.66 0.33 1.32 0.66 2 1 C0.71283353 2.00578589 -0.57988658 3.00446798 -1.875 4 C-2.95394531 4.8353125 -2.95394531 4.8353125 -4.0546875 5.6875 C-6 7 -6 7 -8 7 C-7.67 6.01 -7.34 5.02 -7 4 C-6.34 4 -5.68 4 -5 4 C-5 3.34 -5 2.68 -5 2 C-2.625 0.9375 -2.625 0.9375 0 0 Z " fill="#E3F5FC" transform="translate(41,8)"/>
<path d="M0 0 C0.33 0.66 0.66 1.32 1 2 C1.99 2 2.98 2 4 2 C3.34 3.65 2.68 5.3 2 7 C1.67 6.01 1.34 5.02 1 4 C-1.00016466 2.79117904 -1.00016466 2.79117904 -3 2 C-2.01 1.34 -1.02 0.68 0 0 Z " fill="#236CA8" transform="translate(79,42)"/>
<path d="M0 0 C1.32 0.66 2.64 1.32 4 2 C4 2.66 4 3.32 4 4 C0.23375329 5.25541557 -1.37188934 4.37061958 -5 3 C-5 2.67 -5 2.34 -5 2 C-3.35 2 -1.7 2 0 2 C0 1.34 0 0.68 0 0 Z " fill="#9DD6F1" transform="translate(96,46)"/>
<path d="M0 0 C2 1 4 2 6 3 C6.625 5.5625 6.625 5.5625 7 8 C6.34 8 5.68 8 5 8 C4.731875 7.360625 4.46375 6.72125 4.1875 6.0625 C3.11332248 3.66868314 3.11332248 3.66868314 0 3 C0 2.01 0 1.02 0 0 Z " fill="#1A5D92" transform="translate(128,17)"/>
<path d="M0 0 C2.97 0.33 5.94 0.66 9 1 C9 1.66 9 2.32 9 3 C6.03 2.67 3.06 2.34 0 2 C0 1.34 0 0.68 0 0 Z " fill="#1F6194" transform="translate(90,1)"/>
<path d="M0 0 C3.465 1.485 3.465 1.485 7 3 C7 3.66 7 4.32 7 5 C5.68 4.67 4.36 4.34 3 4 C2.67 4.66 2.34 5.32 2 6 C0 2.25 0 2.25 0 0 Z " fill="#166CB0" transform="translate(31,138)"/>
<path d="M0 0 C1.9375 0.3125 1.9375 0.3125 4 1 C4.33 1.99 4.66 2.98 5 4 C5.99 4.33 6.98 4.66 8 5 C7.67 5.66 7.34 6.32 7 7 C5.83040013 6.02433888 4.66438823 5.044375 3.5 4.0625 C2.8503125 3.51722656 2.200625 2.97195312 1.53125 2.41015625 C1.0259375 1.94480469 0.520625 1.47945312 0 1 C0 0.67 0 0.34 0 0 Z " fill="#145A91" transform="translate(18,128)"/>
<path d="M0 0 C2.475 0.99 2.475 0.99 5 2 C4.67 3.32 4.34 4.64 4 6 C3.01 5.67 2.02 5.34 1 5 C0.67 3.35 0.34 1.7 0 0 Z " fill="#115A96" transform="translate(10,114)"/>
<path d="M0 0 C0.66 0.33 1.32 0.66 2 1 C1.34 3.97 0.68 6.94 0 10 C-0.33 10 -0.66 10 -1 10 C-1.125 2.25 -1.125 2.25 0 0 Z " fill="#2D6B9D" transform="translate(156,96)"/>
<path d="M0 0 C0.99 0 1.98 0 3 0 C3 0.99 3 1.98 3 3 C3.66 3 4.32 3 5 3 C5 3.99 5 4.98 5 6 C4.01 6 3.02 6 2 6 C1.34 4.02 0.68 2.04 0 0 Z " fill="#E0F2F9" transform="translate(151,42)"/>
<path d="M0 0 C1.98 0.66 3.96 1.32 6 2 C4.68 2.99 3.36 3.98 2 5 C1.01 4.01 0.02 3.02 -1 2 C-0.67 1.34 -0.34 0.68 0 0 Z " fill="#1469AD" transform="translate(114,146)"/>
<path d="M0 0 C0.99 0.33 1.98 0.66 3 1 C3.33 2.98 3.66 4.96 4 7 C3.01 6.67 2.02 6.34 1 6 C0.67 4.02 0.34 2.04 0 0 Z " fill="#0F5C98" transform="translate(155,65)"/>
<path d="M0 0 C2.31 0.33 4.62 0.66 7 1 C6.01 1.33 5.02 1.66 4 2 C4 2.66 4 3.32 4 4 C2.68 3.67 1.36 3.34 0 3 C0 2.01 0 1.02 0 0 Z " fill="#095795" transform="translate(68,1)"/>
</svg>
