<?xml version="1.0" encoding="UTF-8"?>
<svg version="1.1" xmlns="http://www.w3.org/2000/svg" width="300" height="300">
<path d="M0 0 C1.07371857 -0.00151062 1.07371857 -0.00151062 2.16912842 -0.00305176 C13.27131409 0.00751672 23.86837736 0.62684123 34.6875 3.25 C36.49927734 3.68505859 36.49927734 3.68505859 38.34765625 4.12890625 C57.24612638 9.13082691 75.05525762 17.52637851 90.6875 29.25 C91.7228186 30.02041626 91.7228186 30.02041626 92.77905273 30.80639648 C111.55444 45.05418471 124.85654611 62.55408162 135.6875 83.25 C136.24308594 84.30574219 136.79867188 85.36148438 137.37109375 86.44921875 C142.06569082 95.97254424 144.99283685 106.01484372 147.6875 116.25 C147.96086182 117.24531738 147.96086182 117.24531738 148.23974609 118.26074219 C153.50723008 138.1880796 153.02231531 164.42059213 147.6875 184.25 C147.38948486 185.40266357 147.38948486 185.40266357 147.08544922 186.57861328 C142.37513756 204.55542072 135.46834021 221.07679722 124.6875 236.25 C123.95144531 237.30316406 123.21539062 238.35632813 122.45703125 239.44140625 C111.48751478 254.4165418 97.94269727 266.76177703 82.6875 277.25 C81.45580078 278.11818359 81.45580078 278.11818359 80.19921875 279.00390625 C68.37295104 286.71303635 54.23572338 291.77952904 40.75 295.6875 C39.94780029 295.92210937 39.14560059 296.15671875 38.3190918 296.3984375 C26.01276428 299.77092251 13.65178289 300.63339185 0.9375 300.5625 C0.23717651 300.56034485 -0.46314697 300.5581897 -1.18469238 300.55596924 C-12.12931524 300.50207786 -22.67317598 299.97847181 -33.3125 297.25 C-34.49295898 296.95198486 -34.49295898 296.95198486 -35.69726562 296.64794922 C-53.59999884 291.99086643 -70.25848509 285.06925125 -85.3125 274.25 C-85.87356445 273.84974609 -86.43462891 273.44949219 -87.01269531 273.03710938 C-103.25740539 261.28167815 -116.50763722 247.10558594 -127.3125 230.25 C-127.98796875 229.21359375 -128.6634375 228.1771875 -129.359375 227.109375 C-136.38069756 215.73856059 -140.90495303 203.27965902 -144.625 190.5 C-144.98863647 189.26068726 -144.98863647 189.26068726 -145.35961914 187.99633789 C-148.8187036 175.58102273 -149.69119057 163.31796346 -149.625 150.5 C-149.62284485 149.74821472 -149.6206897 148.99642944 -149.61846924 148.22186279 C-149.56806936 137.26935663 -149.16044686 126.88377877 -146.3125 116.25 C-146.12445801 115.49750977 -145.93641602 114.74501953 -145.74267578 113.96972656 C-141.29066245 96.33876208 -133.96490021 79.06168879 -123.3125 64.25 C-122.64605469 63.28964844 -121.97960937 62.32929687 -121.29296875 61.33984375 C-107.33071669 42.14472039 -89.58433134 26.76806619 -68.3125 16.25 C-67.17554687 15.67636719 -66.03859375 15.10273438 -64.8671875 14.51171875 C-44.41357445 4.42426414 -22.76108703 0.02211393 0 0 Z " fill="#FEFEFE" transform="translate(149.3125,-0.25)"/>
<path d="M0 0 C4.03022504 2.15691673 7.6372197 4.89365685 11.1796875 7.76953125 C12.20449219 8.59517578 12.20449219 8.59517578 13.25 9.4375 C13.85328125 9.95183594 14.4565625 10.46617188 15.078125 10.99609375 C17.74190336 12.38753895 19.12136367 11.72386761 22 11 C24.164505 10.88480976 26.33246905 10.82516081 28.5 10.8125 C30.15515625 10.79123047 30.15515625 10.79123047 31.84375 10.76953125 C35 11 35 11 37.421875 12.375 C39.93231795 13.28855301 39.93231795 13.28855301 41.7421875 12.05541992 C44.51939918 9.96864611 47.13462914 7.71760145 49.765625 5.45117188 C54.59759665 1.50661041 58.64204318 -0.44190164 65 0 C69.9071493 2.12951762 72.16805162 5.09670853 74.3203125 9.828125 C75.41467562 13.32505543 75.25995667 16.36060666 75 20 C75.87011719 19.94779297 75.87011719 19.94779297 76.7578125 19.89453125 C81.97347536 19.71379046 85.48391108 20.0645422 90 23 C91.3308911 25.66178221 91.11268993 27.68739396 91.09765625 30.6640625 C91.09443359 31.78554687 91.09121094 32.90703125 91.08789062 34.0625 C91.07951172 35.238125 91.07113281 36.41375 91.0625 37.625 C91.05798828 38.80835938 91.05347656 39.99171875 91.04882812 41.2109375 C91.03701467 44.14067507 91.02054258 47.07031272 91 50 C89.35 50.33 87.7 50.66 86 51 C86.01110306 51.91597458 86.02220612 52.83194916 86.03364563 53.77568054 C86.13387552 62.4124178 86.20997915 71.04895944 86.25906086 79.68614483 C86.2851429 84.12654642 86.32051482 88.56646703 86.37719727 93.0065918 C86.43156779 97.29249096 86.46143102 101.57792783 86.47438622 105.86414528 C86.48361715 107.49845469 86.50164355 109.1327391 86.52865028 110.76685143 C86.56501015 113.05825623 86.56994283 115.34775692 86.56762695 117.6394043 C86.57873001 118.94290329 86.58983307 120.24640228 86.60127258 121.58940125 C85.84743383 125.86540115 84.32153075 127.30321226 81 130 C78.67923887 131.16038057 77.32226097 131.13542256 74.73773193 131.15390015 C73.84333908 131.16250061 72.94894623 131.17110107 72.02745056 131.17996216 C71.04353836 131.18422211 70.05962616 131.18848206 69.04589844 131.19287109 C67.49446892 131.20513733 67.49446892 131.20513733 65.91169739 131.21765137 C62.47759587 131.24253098 59.04353576 131.25902812 55.609375 131.2734375 C54.43821388 131.27876118 53.26705276 131.28408485 52.06040192 131.28956985 C45.8614009 131.31631276 39.6624201 131.33568392 33.46337891 131.35009766 C27.05613864 131.36674696 20.64941259 131.41152457 14.24236679 131.4624691 C9.31985881 131.49610503 4.3974734 131.50767116 -0.52513885 131.51332474 C-2.88706135 131.52004741 -5.2489755 131.53529563 -7.61078644 131.55921555 C-10.91705868 131.59078968 -14.22193724 131.59091485 -17.52832031 131.58349609 C-18.50413559 131.59990143 -19.47995087 131.61630676 -20.4853363 131.63320923 C-24.74497804 131.59408497 -28.06903175 131.45310216 -31.61190796 128.92930603 C-34.49419523 125.39380516 -34.81940722 122.92713068 -34.68115234 118.54760742 C-34.68246658 117.44923553 -34.68246658 117.44923553 -34.68380737 116.32867432 C-34.67964292 113.91983553 -34.6330532 111.5138179 -34.5859375 109.10546875 C-34.5747411 107.43111187 -34.566203 105.75673528 -34.56021118 104.08235168 C-34.53734731 99.68418716 -34.47844665 95.28721938 -34.4119873 90.88952637 C-34.35051115 86.3985208 -34.32318488 81.90732105 -34.29296875 77.41601562 C-34.22869965 68.61012905 -34.12635156 59.80521357 -34 51 C-35.65 50.67 -37.3 50.34 -39 50 C-39.11643304 46.10441912 -39.18732909 42.20928742 -39.25 38.3125 C-39.28351563 37.20970703 -39.31703125 36.10691406 -39.3515625 34.97070312 C-39.40651635 30.42327224 -39.41663203 26.94195067 -37.5625 22.75 C-33.70432567 20.11514924 -30.30357249 20.4562639 -25.75 20.6875 C-24.90953125 20.71005859 -24.0690625 20.73261719 -23.203125 20.75585938 C-21.13465036 20.81462286 -19.06709512 20.90430115 -17 21 C-17.02449219 19.93007812 -17.04898438 18.86015625 -17.07421875 17.7578125 C-16.95523307 11.73337977 -15.40415326 7.64988009 -11.5 3.0625 C-7.76107029 -0.02211701 -4.74654657 -0.61529307 0 0 Z " fill="#1570E2" transform="translate(125,79)"/>
<path d="M0 0 C8.25 0 16.5 0 25 0 C23.52674951 3.68312622 22.6488294 5.72886233 20.375 8.6875 C18.41354013 11.06827529 18.41354013 11.06827529 18 14 C19.58367747 13.85795259 21.16693318 13.71119847 22.75 13.5625 C23.63171875 13.48128906 24.5134375 13.40007812 25.421875 13.31640625 C27.69350452 13.03761535 29.79851823 12.61209423 32 12 C32.50310058 13.7907985 33.00238628 15.58266911 33.5 17.375 C33.7784375 18.37273437 34.056875 19.37046875 34.34375 20.3984375 C35 23 35 23 35 25 C36.89433082 25.0008775 36.89433082 25.0008775 39 24 C40.43258608 21.80744448 41.60482274 19.76963138 42.75 17.4375 C43.22373047 16.51420898 43.22373047 16.51420898 43.70703125 15.57226562 C44.48361889 14.05438979 45.24345561 12.52796466 46 11 C46.33 11 46.66 11 47 11 C47 31.79 47 52.58 47 74 C35.6459375 74.0309375 35.6459375 74.0309375 24.0625 74.0625 C21.67008057 74.071604 19.27766113 74.08070801 16.81274414 74.09008789 C14.92854875 74.09300692 13.04435273 74.09555551 11.16015625 74.09765625 C9.67799622 74.1053302 9.67799622 74.1053302 8.16589355 74.11315918 C6.76518616 74.11334045 6.76518616 74.11334045 5.33618164 74.11352539 C4.52121719 74.115746 3.70625275 74.11796661 2.86659241 74.12025452 C1 74 1 74 0 73 C-0.09439978 70.73008113 -0.11742226 68.45718033 -0.11352539 66.18530273 C-0.11367142 65.47314606 -0.11381744 64.76098938 -0.1139679 64.0272522 C-0.1132687 61.66266888 -0.10547606 59.29816339 -0.09765625 56.93359375 C-0.09579209 55.29834537 -0.09436818 53.66309643 -0.09336853 52.02784729 C-0.08954318 47.71565215 -0.07971275 43.40349048 -0.06866455 39.09130859 C-0.0584508 34.69434054 -0.05387099 30.29736711 -0.04882812 25.90039062 C-0.03809049 17.26690998 -0.02049356 8.63346301 0 0 Z " fill="#FBFCFE" transform="translate(96,130)"/>
<path d="M0 0 C6.6 0 13.2 0 20 0 C20.02255226 9.50074636 20.0409158 19.00147507 20.05181217 28.50224209 C20.05704069 32.91337004 20.06413777 37.3244788 20.07543945 41.7355957 C20.08626944 45.98901115 20.09227707 50.24240809 20.09487724 54.49583626 C20.09673129 56.12221633 20.10035152 57.74859534 20.10573006 59.37496758 C20.11294198 61.64510193 20.11399088 63.91515885 20.11352539 66.18530273 C20.115746 67.47991928 20.11796661 68.77453583 20.12025452 70.10838318 C20 73 20 73 19 74 C15.97043757 74.08870641 12.9631329 74.11526582 9.93359375 74.09765625 C9.1286145 74.09664917 8.32363525 74.09564209 7.4942627 74.09460449 C4.47532739 74.08935614 1.45641233 74.075395 -1.5625 74.0625 C-11.6790625 74.0315625 -11.6790625 74.0315625 -22 74 C-22 52.55 -22 31.1 -22 9 C-19.68260704 12.08985727 -18.00626667 14.71712111 -16.3125 18.125 C-15.87550781 18.99382812 -15.43851563 19.86265625 -14.98828125 20.7578125 C-14 23 -14 23 -14 25 C-12.02940862 24.89424098 -12.02940862 24.89424098 -10 24 C-8.85706445 21.68684675 -8.85706445 21.68684675 -8.25 18.9375 C-8.00765625 18.01839844 -7.7653125 17.09929687 -7.515625 16.15234375 C-7.34546875 15.44207031 -7.1753125 14.73179687 -7 14 C-3.20431539 13.02201279 -0.4994001 13.07346931 3.3125 13.9375 C4.19550781 14.13214844 5.07851562 14.32679688 5.98828125 14.52734375 C6.65214844 14.68332031 7.31601563 14.83929688 8 15 C5.79034096 9.41770348 3.27783152 5.24453044 0 0 Z " fill="#FDFEFE" transform="translate(186,130)"/>
<path d="M0 0 C3.91330161 3.65241484 5.85625046 5.96532659 6.24050903 11.40423584 C6.24628524 12.77697272 6.24103881 14.14978318 6.22705078 15.52246094 C6.22734283 16.27406998 6.22763489 17.02567902 6.22793579 17.80006409 C6.22654519 20.27828616 6.21099684 22.7562056 6.1953125 25.234375 C6.19158141 26.95501542 6.18873489 28.67565797 6.18673706 30.39630127 C6.17910818 34.92057176 6.15946608 39.44471344 6.1373291 43.96893311 C6.11685464 48.58734393 6.10773192 53.2057756 6.09765625 57.82421875 C6.07621949 66.88286903 6.04209251 75.9414238 6 85 C2.7 85 -0.6 85 -4 85 C-4.09288003 75.09869355 -4.16385614 65.19749158 -4.20724869 55.2958374 C-4.22808014 50.69755613 -4.25631609 46.09957399 -4.30175781 41.50146484 C-4.34537476 37.05995768 -4.36917049 32.61873736 -4.37950897 28.17703247 C-4.386872 26.48661792 -4.40125021 24.7962182 -4.42292023 23.10592651 C-4.62376164 6.7836503 -4.62376164 6.7836503 0 0 Z " fill="#F8FAFE" transform="translate(153,119)"/>
<path d="M0 0 C6.01706036 6.2905631 6.28349742 10.02178817 6.22265625 18.49609375 C5.94784258 22.82079305 5.2520036 25.33006821 3 29 C0 31 0 31 -3.25390625 30.875 C-7.35718323 29.91657034 -10.46184724 28.28251823 -13.9375 26 C-14.82018555 25.44699219 -14.82018555 25.44699219 -15.72070312 24.8828125 C-17.17166036 23.95932288 -18.58949708 22.98417046 -20 22 C-20 21.67 -20 21.34 -20 21 C-17.03 20.67 -14.06 20.34 -11 20 C-11 19.01 -11 18.02 -11 17 C-13.97 16.67 -16.94 16.34 -20 16 C-20 14.68 -20 13.36 -20 12 C-18.09886423 10.10770672 -16.28956816 8.50913372 -14.1875 6.875 C-13.64029297 6.43285156 -13.09308594 5.99070312 -12.52929688 5.53515625 C-4.55096519 -0.86685051 -4.55096519 -0.86685051 0 0 Z " fill="#F7FAFE" transform="translate(189,84)"/>
<path d="M0 0 C2.64057472 1.64046018 4.99283521 3.57073173 7.375 5.5625 C8.01566406 6.08263672 8.65632813 6.60277344 9.31640625 7.13867188 C10.88604815 8.41547013 12.44421446 9.70635367 14 11 C13.67 12.32 13.34 13.64 13 15 C8.05 15.495 8.05 15.495 3 16 C3.33 16.99 3.66 17.98 4 19 C6.97 19.33 9.94 19.66 13 20 C10.1207971 23.11631372 7.27746543 25.2096029 3.5625 27.25 C2.63566406 27.77078125 1.70882812 28.2915625 0.75390625 28.828125 C-2.13108532 30.05578099 -3.90509947 30.36441662 -7 30 C-11.09624234 27.07411261 -12.06376901 23.83719347 -13 19 C-13.58854369 12.57764603 -13.22400864 7.64201513 -10 2 C-6.73338892 -1.60453637 -4.5378476 -1.24244241 0 0 Z " fill="#F6F9FE" transform="translate(126,85)"/>
<path d="M0 0 C1.48831242 0.00667405 2.97660807 0.01863442 4.46484375 0.03515625 C5.22345703 0.03966797 5.98207031 0.04417969 6.76367188 0.04882812 C8.64326246 0.06064945 10.52281274 0.07858547 12.40234375 0.09765625 C13.24053533 1.72015566 14.07275535 3.34574122 14.90234375 4.97265625 C15.36640625 5.87757812 15.83046875 6.7825 16.30859375 7.71484375 C17.40234375 10.09765625 17.40234375 10.09765625 17.40234375 12.09765625 C22.0339558 14.34328633 26.42080836 15.1031253 31.40625 13.421875 C33.09590139 12.70163976 34.75282461 11.90558399 36.40234375 11.09765625 C34.8218981 14.97693193 32.63561451 17.44964191 29.40234375 20.09765625 C26.54632899 20.53714492 24.31180918 20.68785612 21.4765625 20.5859375 C20.72897171 20.57886276 19.98138092 20.57178802 19.21113586 20.5644989 C16.83632973 20.5366327 14.46393024 20.47391757 12.08984375 20.41015625 C10.47464357 20.38506293 8.85940621 20.36225156 7.24414062 20.34179688 C3.29595556 20.28683272 -0.65044314 20.20062152 -4.59765625 20.09765625 C-4.62654139 16.95184202 -4.64441548 13.80606156 -4.66015625 10.66015625 C-4.66853516 9.76232422 -4.67691406 8.86449219 -4.68554688 7.93945312 C-4.68876953 7.08544922 -4.69199219 6.23144531 -4.6953125 5.3515625 C-4.70316772 4.16542358 -4.70316772 4.16542358 -4.71118164 2.95532227 C-4.50092513 -0.48519775 -3.5620741 0.09669039 0 0 Z " fill="#F9FBFE" transform="translate(95.59765625,104.90234375)"/>
<path d="M0 0 C3.63 0 7.26 0 11 0 C11 6.6 11 13.2 11 20 C6.99514419 20.18472109 3.00123482 20.34349216 -1.00561523 20.43945312 C-2.36485056 20.47946385 -3.72374629 20.53389777 -5.08178711 20.60351562 C-16.3945284 21.16852951 -16.3945284 21.16852951 -20.49560547 18.18359375 C-22.23064609 16.20069019 -23.67850415 14.27549977 -25 12 C-24.67 11.34 -24.34 10.68 -24 10 C-22.989375 10.66 -21.97875 11.32 -20.9375 12 C-17.15751566 14.14580929 -14.37952905 14.56771673 -10 14 C-5.79886643 12.18587414 -3.9908046 10.07640942 -2 6 C-1.28856912 4.01548229 -0.61008664 2.01797888 0 0 Z " fill="#FBFCFE" transform="translate(200,105)"/>
<path d="M0 0 C1.6604194 2.09395696 3.18489181 4.17267323 4.6875 6.375 C5.57374218 7.64616572 6.46046785 8.91699449 7.34765625 10.1875 C8.01112061 11.14462891 8.01112061 11.14462891 8.68798828 12.12109375 C10.62901076 14.90079397 12.62518082 17.63727963 14.625 20.375 C15.27726562 21.26960938 15.92953125 22.16421875 16.6015625 23.0859375 C17.06304687 23.71757812 17.52453125 24.34921875 18 25 C14.90226756 25.84062397 12.21667249 26.08935201 9 26 C8.34 28.31 7.68 30.62 7 33 C4.2083361 30.54141476 2.76901199 27.91154954 1.1171875 24.59765625 C0.58996094 23.54255859 0.06273437 22.48746094 -0.48046875 21.40039062 C-1.02316406 20.29888672 -1.56585938 19.19738281 -2.125 18.0625 C-2.67542969 16.96486328 -3.22585937 15.86722656 -3.79296875 14.73632812 C-8.22429371 5.81379543 -8.22429371 5.81379543 -9 2 C-3.375 -1.125 -3.375 -1.125 0 0 Z " fill="#F5F9FD" transform="translate(167,112)"/>
<path d="M0 0 C3.465 1.485 3.465 1.485 7 3 C6.37636093 7.16995424 4.9616262 10.42514447 3.05859375 14.17578125 C2.47529297 15.33271484 1.89199219 16.48964844 1.29101562 17.68164062 C0.67330794 18.89199387 0.05546773 20.1022795 -0.5625 21.3125 C-1.18479856 22.54203759 -1.80654918 23.77185267 -2.42773438 25.00195312 C-3.94645512 28.00407552 -5.4707102 31.00325153 -7 34 C-9.5654594 31.4345406 -9.54046087 29.52313332 -10 26 C-12.97 26.33 -15.94 26.66 -19 27 C-15.66178722 20.72794558 -11.54945324 15.20705628 -7.25 9.5625 C-6.55261719 8.64017578 -5.85523438 7.71785156 -5.13671875 6.76757812 C-3.42810488 4.50893102 -1.71580311 2.25318754 0 0 Z " fill="#F7FAFE" transform="translate(142,111)"/>
<path d="M0 0 C3.3347016 2.2885207 4.62050209 3.6200076 5.6875 7.5 C4.84439422 10.56583921 3.37839541 12.15422259 0.84765625 14.05078125 C-2.60809892 15.82614807 -5.1563607 15.48808118 -9 15 C-13.56944444 12.86111111 -13.56944444 12.86111111 -15 10 C-15.36849051 6.60988731 -15.35014495 4.63359562 -13.6875 1.625 C-9.33483679 -1.00684287 -4.93893387 -0.84750936 0 0 Z " fill="#F6F9FD" transform="translate(159,95)"/>
<path d="M0 0 C1.32 0 2.64 0 4 0 C5.64072259 3.28144519 5.14274434 6.89789996 5.125 10.5 C5.12886719 11.28503906 5.13273437 12.07007813 5.13671875 12.87890625 C5.12665394 18.74669213 5.12665394 18.74669213 4 21 C2.35 20.67 0.7 20.34 -1 20 C-1.02888514 16.85418577 -1.04675923 13.70840531 -1.0625 10.5625 C-1.07087891 9.66466797 -1.07925781 8.76683594 -1.08789062 7.84179688 C-1.09111328 6.98779297 -1.09433594 6.13378906 -1.09765625 5.25390625 C-1.10551147 4.06776733 -1.10551147 4.06776733 -1.11352539 2.85766602 C-1 1 -1 1 0 0 Z " fill="#267AE4" transform="translate(102,178)"/>
<path d="M0 0 C0.99 0.33 1.98 0.66 3 1 C3 2.32 3 3.64 3 5 C1.35 4.67 -0.3 4.34 -2 4 C-1.34 2.68 -0.68 1.36 0 0 Z " fill="#2579E4" transform="translate(103,167)"/>
</svg>
