<?xml version="1.0" encoding="UTF-8"?>
<svg version="1.1" xmlns="http://www.w3.org/2000/svg" width="604" height="601">
<path d="M0 0 C1.55809891 -0.00855011 1.55809891 -0.00855011 3.14767456 -0.01727295 C5.34111533 -0.02667004 7.53456987 -0.03323572 9.72802734 -0.03710938 C12.99734013 -0.04670665 16.26599336 -0.07773635 19.53515625 -0.109375 C34.21390454 -0.18329596 48.42590045 0.96132101 62.9296875 3.203125 C64.18507324 3.39664551 65.44045898 3.59016602 66.73388672 3.78955078 C69.60471137 4.27111723 72.45334669 4.80545023 75.3046875 5.390625 C76.32175781 5.59856689 77.33882813 5.80650879 78.38671875 6.02075195 C129.16137101 16.87717431 181.13418458 41.95577115 217.9296875 79.203125 C217.93333313 78.64015717 217.93697876 78.07718933 217.94073486 77.49716187 C217.98262833 71.62415666 218.05202149 65.75192798 218.13720703 59.87939453 C218.1653881 57.68936947 218.18661684 55.49924323 218.20068359 53.30908203 C218.22215227 50.15604973 218.26882425 47.00423015 218.3203125 43.8515625 C218.32154114 42.87633636 218.32276978 41.90111023 218.32403564 40.89633179 C218.44948266 35.04023715 219.06718551 31.68607107 222.9296875 27.203125 C227.131128 24.30674117 232.02892839 24.3236943 236.9296875 25.203125 C240.90826529 27.4714868 243.4746766 29.83809229 244.9296875 34.203125 C245.03602824 36.80796468 245.08692748 39.3864445 245.09082031 41.99169922 C245.09578522 42.78389862 245.10075012 43.57609802 245.10586548 44.39230347 C245.12047565 47.01414863 245.12728695 49.63593331 245.1328125 52.2578125 C245.1385646 54.08000693 245.14432233 55.90220135 245.15008545 57.72439575 C245.16059197 61.54592165 245.16643702 65.36742653 245.16992188 69.18896484 C245.17540791 74.08392745 245.1994397 78.97861207 245.22789383 83.87348747 C245.24652355 87.63787649 245.25172597 91.40219857 245.25325775 95.16662979 C245.25628372 96.97113694 245.26431037 98.77564293 245.27744293 100.58010483 C245.2945116 103.10553866 245.2926214 105.63029349 245.28613281 108.15576172 C245.29995499 109.27186829 245.29995499 109.27186829 245.3140564 110.41052246 C245.2662787 116.35145847 243.78054806 119.25858474 239.75938416 123.48327637 C236.05562258 125.73436899 232.86173317 125.7650931 228.65454102 125.72070312 C227.4243222 125.73121704 227.4243222 125.73121704 226.16925049 125.74194336 C223.46535106 125.75950987 220.76250334 125.74790462 218.05859375 125.734375 C216.17439066 125.73707057 214.29018893 125.74095353 212.4059906 125.74597168 C208.45924623 125.75186512 204.5128643 125.74330972 200.56616211 125.72460938 C195.51424283 125.70183558 190.46317433 125.71493389 185.41128635 125.73889923 C181.52070238 125.75337475 177.63031905 125.7487429 173.73972893 125.73838806 C171.87744991 125.73572481 170.01515252 125.73897638 168.15289497 125.74830627 C165.54618438 125.7584991 162.94083788 125.7429327 160.33422852 125.72070312 C159.18614967 125.73284851 159.18614967 125.73284851 158.01487732 125.74523926 C152.85281174 125.66394574 149.91097645 124.45635026 145.9296875 121.203125 C143.19506345 117.20393492 143.26481154 112.88158148 143.9296875 108.203125 C146.01138525 104.11407585 147.68722037 101.88935036 151.9296875 100.203125 C154.23297119 99.9246521 154.23297119 99.9246521 156.79003906 99.88427734 C157.75073303 99.86440765 158.711427 99.84453796 159.70123291 99.82406616 C160.73052917 99.81251495 161.75982544 99.80096375 162.8203125 99.7890625 C163.88006287 99.76969635 164.93981323 99.7503302 166.03167725 99.7303772 C169.41426563 99.67062946 172.79688813 99.6242148 176.1796875 99.578125 C178.47397312 99.53994084 180.76824447 99.50088885 183.0625 99.4609375 C188.68476912 99.36493185 194.30712427 99.27987017 199.9296875 99.203125 C190.41822565 90.31147571 190.41822565 90.31147571 180.2421875 82.203125 C179.57268066 81.70876953 178.90317383 81.21441406 178.21337891 80.70507812 C119.02046799 37.49053726 45.63676498 18.45685458 -27.05859375 29.203125 C-80.92944718 37.82959086 -131.50829743 61.20235239 -171.3515625 98.6953125 C-173.27597801 100.47041991 -175.19261101 102.14770358 -177.21484375 103.80078125 C-179.48863632 105.71375311 -181.36709316 107.49980317 -183.2578125 109.765625 C-186.15850023 113.18156647 -189.18093524 116.44499491 -192.2578125 119.703125 C-239.78011697 170.99469467 -262.45296729 243.69957209 -259.8203125 312.765625 C-258.11913608 347.40642059 -249.92580781 380.4868889 -236.0703125 412.203125 C-235.73241699 412.97817383 -235.39452148 413.75322266 -235.04638672 414.55175781 C-223.51198427 440.70100103 -207.14482971 464.69110074 -187.578125 485.484375 C-185.80301759 487.40879051 -184.12573392 489.32542351 -182.47265625 491.34765625 C-180.55968439 493.62144882 -178.77363433 495.49990566 -176.5078125 497.390625 C-173.09187103 500.29131273 -169.82844259 503.31374774 -166.5703125 506.390625 C-122.80223945 546.94231228 -58.64804327 573.10713295 1.125 573.40625 C2.06728958 573.41326431 3.00957916 573.42027863 3.98042297 573.42750549 C7.00522698 573.44491509 10.02983523 573.45135788 13.0546875 573.453125 C14.0878006 573.45379974 15.1209137 573.45447449 16.18533325 573.45516968 C31.33106677 573.43943439 46.00895819 573.01927028 60.9296875 570.203125 C61.80753906 570.05278809 62.68539063 569.90245117 63.58984375 569.74755859 C127.17114579 558.7351856 189.9098668 522.01156477 228.9296875 470.203125 C229.34879395 469.6551123 229.76790039 469.10709961 230.19970703 468.54248047 C237.38327037 459.12873433 243.91061886 449.39929881 249.9296875 439.203125 C250.373125 438.45466309 250.8165625 437.70620117 251.2734375 436.93505859 C274.23130857 397.77786586 286.94392791 352.61340664 287.46386719 307.21899414 C287.59034436 301.21391998 288.30645534 296.64571882 290.9296875 291.203125 C294.22597148 288.31787885 297.10002776 287.32164782 301.4296875 286.703125 C305.93270644 287.34641342 308.20994686 288.57742572 311.9296875 291.203125 C315.37384081 296.33480659 314.2674209 303.03388166 314.2421875 308.953125 C314.23945328 309.95753632 314.23945328 309.95753632 314.23666382 310.98223877 C313.96525606 370.41081366 291.9246044 432.06658808 255.9296875 479.203125 C255.49446777 479.7796582 255.05924805 480.35619141 254.61083984 480.95019531 C248.93668935 488.44358585 242.97126456 495.55363509 236.5390625 502.40625 C234.15491021 504.96171862 231.85226644 507.57013308 229.5546875 510.203125 C182.09753592 562.86796401 108.94998151 594.90208777 38.9296875 600.203125 C35.23924138 600.35148058 31.55255453 600.39001523 27.859375 600.40625 C26.8206424 600.41195007 25.78190979 600.41765015 24.71170044 600.42352295 C22.51825967 600.43292004 20.32480513 600.43948572 18.13134766 600.44335938 C14.86203487 600.45295665 11.59338164 600.48398635 8.32421875 600.515625 C-10.42609964 600.6102257 -28.92116385 598.93935428 -47.2578125 594.890625 C-48.23862793 594.67897705 -49.21944336 594.4673291 -50.22998047 594.24926758 C-60.3126577 592.01724312 -70.23261548 589.3407232 -80.0703125 586.203125 C-80.92206055 585.93193848 -81.77380859 585.66075195 -82.65136719 585.38134766 C-112.10783444 575.78945405 -140.40325005 560.91357013 -165.0703125 542.203125 C-165.93946289 541.54812012 -165.93946289 541.54812012 -166.82617188 540.87988281 C-174.31622046 535.20721243 -181.42344837 529.24223737 -188.2734375 522.8125 C-190.82890612 520.42834771 -193.43732058 518.12570394 -196.0703125 515.828125 C-248.75180141 468.35596992 -280.56650326 395.111919 -286.0703125 325.203125 C-286.2203743 321.5127383 -286.25720272 317.8259936 -286.2734375 314.1328125 C-286.27913757 313.0940799 -286.28483765 312.05534729 -286.29071045 310.98513794 C-286.30010754 308.79169717 -286.30667322 306.59824263 -286.31054688 304.40478516 C-286.32014415 301.13547237 -286.35117385 297.86681914 -286.3828125 294.59765625 C-286.45673346 279.91890796 -285.31211649 265.70691205 -283.0703125 251.203125 C-282.87679199 249.94773926 -282.68327148 248.69235352 -282.48388672 247.39892578 C-282.00232027 244.52810113 -281.46798727 241.67946581 -280.8828125 238.828125 C-280.67487061 237.81105469 -280.46692871 236.79398438 -280.25268555 235.74609375 C-269.4028948 185.002457 -244.78931135 137.65406262 -210.0703125 99.203125 C-209.51875488 98.58985352 -208.96719727 97.97658203 -208.39892578 97.34472656 C-196.3019977 83.96132686 -183.45151389 72.08482252 -169.0703125 61.203125 C-168.48024414 60.7508252 -167.89017578 60.29852539 -167.28222656 59.83251953 C-120.39156389 23.9577241 -59.44048483 0.26129319 0 0 Z " fill="#095CC0" transform="translate(288.0703125,-0.203125)"/>
<path d="M0 0 C0.71855439 -0.00861565 1.43710878 -0.0172313 2.17743754 -0.02610803 C4.60384159 -0.05367919 7.03024848 -0.07382405 9.45672607 -0.09381104 C11.18945603 -0.11152442 12.92218305 -0.12952635 14.65490723 -0.14779663 C30.51716159 -0.30721488 46.38029749 -0.3912419 62.24318314 -0.45779037 C73.96534799 -0.50795659 85.68610685 -0.59373825 97.40763402 -0.72641158 C105.65149694 -0.8165674 113.89497567 -0.86426475 122.13930964 -0.88136888 C127.06060476 -0.89280845 131.98010478 -0.92292363 136.90085602 -0.99932098 C141.54066727 -1.07057543 146.17780898 -1.08889313 150.81809235 -1.06820297 C152.5123945 -1.06962193 154.20680927 -1.08959383 155.90061951 -1.13044357 C166.2216928 -1.3663728 172.51445529 -0.17445559 180.16343999 7.07988381 C181.52488313 8.43873665 182.86803635 9.81584615 184.20965576 11.1942749 C185.4439904 12.22912874 186.69612835 13.24392345 187.97918701 14.2177124 C194.12214338 18.96490076 200.19622059 23.78399005 206.20965576 28.6942749 C217.69872388 38.87470705 217.69872388 38.87470705 230.3602562 47.27325153 C233.35384981 50.38278146 232.74509875 54.0888281 232.69067383 58.1728363 C232.6940979 59.10012039 232.69752197 60.02740448 232.7010498 60.98278809 C232.70769319 64.11308118 232.68554179 67.24252629 232.66375732 70.3727417 C232.66253255 72.64590077 232.66306499 74.91906136 232.66521835 77.19221973 C232.66612345 83.29382538 232.64289732 89.39511887 232.61477661 95.4966507 C232.59203992 101.21671053 232.5909265 106.93669346 232.58807373 112.65679932 C232.56706302 129.39849939 232.51121868 146.14014105 232.45965576 162.8817749 C232.37715576 200.2748999 232.29465576 237.6680249 232.20965576 276.1942749 C132.87965576 276.1942749 33.54965576 276.1942749 -68.79034424 276.1942749 C-69.14096924 239.1930249 -69.49159424 202.1917749 -69.85284424 164.0692749 C-70.0076123 152.39794189 -70.16238037 140.72660889 -70.32183838 128.70159912 C-70.39862061 114.41912842 -70.39862061 114.41912842 -70.41288757 107.72702026 C-70.42869204 103.06456225 -70.49223327 98.40541354 -70.58512878 93.74386597 C-70.70227485 87.78593628 -70.73660714 81.83277497 -70.71257293 75.87380052 C-70.71759299 73.69444526 -70.75101589 71.5149133 -70.81700146 69.33655143 C-71.27315096 53.53608068 -71.27315096 53.53608068 -67.14309382 47.97711039 C-63.16929983 43.88985255 -58.70482828 40.66884305 -53.92246997 37.59550118 C-50.69538269 35.47466964 -47.72813222 33.0570114 -44.72784424 30.6317749 C-43.59264048 29.74311744 -42.45609416 28.85616998 -41.31768799 27.97161865 C-36.75462164 24.39710942 -32.27397384 20.72185716 -27.78399658 17.05633545 C-22.58458956 12.8196639 -17.3308534 8.65689693 -12.04229736 4.53216553 C-7.24473234 0.78813899 -6.24876334 0.06449978 0 0 Z M-12.20316887 38.47820663 C-14.76632126 41.24951002 -17.77074072 43.35156984 -20.85284424 45.5067749 C-22.51499424 46.71378585 -24.16787042 47.93443492 -25.79034424 49.1942749 C-25.79034424 49.5242749 -25.79034424 49.8542749 -25.79034424 50.1942749 C45.48965576 50.1942749 116.76965576 50.1942749 190.20965576 50.1942749 C186.23274186 46.16450547 186.23274186 46.16450547 182.01043701 42.58099365 C181.44002686 42.13691162 180.8696167 41.69282959 180.28192139 41.23529053 C179.70119873 40.78863037 179.12047607 40.34197021 178.52215576 39.8817749 C177.37197451 38.99041744 176.22224682 38.09847446 175.07293701 37.20599365 C174.48773505 36.76598841 173.90253309 36.32598316 173.29959774 35.87264442 C171.20965576 34.1942749 171.20965576 34.1942749 169.18521214 32.18990135 C161.91326404 25.37950037 155.46495237 25.01231942 145.840271 25.06390381 C144.30970182 25.04320128 142.77917412 25.01921347 141.248703 24.99221802 C137.11572339 24.93044311 132.98414229 24.91956183 128.85075641 24.92208147 C125.38469458 24.92041177 121.91892938 24.8958625 118.4529596 24.87218225 C110.26318662 24.81754088 102.07413304 24.80674341 93.88421631 24.82171631 C85.47602997 24.83617049 77.07120886 24.76950606 68.66375202 24.66360152 C61.41220483 24.5756035 54.16173573 24.54264639 46.90966374 24.55167329 C42.59281989 24.55628589 38.2786928 24.54034212 33.96236992 24.46953201 C8.17564028 23.91221377 8.17564028 23.91221377 -12.20316887 38.47820663 Z M-42.79034424 76.1942749 C-42.79034424 133.6142749 -42.79034424 191.0342749 -42.79034424 250.1942749 C39.37965576 250.1942749 121.54965576 250.1942749 206.20965576 250.1942749 C206.20965576 192.7742749 206.20965576 135.3542749 206.20965576 76.1942749 C124.03965576 76.1942749 41.86965576 76.1942749 -42.79034424 76.1942749 Z " fill="#095CC0" transform="translate(219.79034423828125,161.80572509765625)"/>
</svg>
