<?xml version="1.0" encoding="UTF-8"?>
<svg version="1.1" xmlns="http://www.w3.org/2000/svg" width="141" height="101">
<path d="M0 0 C2.50827328 -0.29197743 4.76978902 -0.38896127 7.27954102 -0.35644531 C8.40410706 -0.35951187 8.40410706 -0.35951187 9.5513916 -0.36264038 C12.03580918 -0.36565482 14.51956729 -0.34715351 17.00390625 -0.328125 C18.72500952 -0.32506869 20.44611525 -0.3231916 22.16722107 -0.32244873 C25.77620897 -0.31784167 29.38497423 -0.30339941 32.99389648 -0.28125 C37.63024106 -0.25294608 42.26641023 -0.24203692 46.90283298 -0.2375679 C50.45690176 -0.23342007 54.01093473 -0.2236083 57.56498528 -0.21169281 C59.27509205 -0.20597818 60.9852023 -0.20122345 62.69531441 -0.19742584 C65.08022299 -0.19058481 67.46498983 -0.1769634 69.84985352 -0.16113281 C70.56312302 -0.16001495 71.27639252 -0.15889709 72.01127625 -0.15774536 C76.88531243 -0.11468757 76.88531243 -0.11468757 78 1 C78.04092937 3.33297433 78.04241723 5.66705225 78 8 C79.25296875 7.95359375 80.5059375 7.9071875 81.796875 7.859375 C83.44789281 7.82185187 85.09893642 7.78545229 86.75 7.75 C87.9875 7.69972656 87.9875 7.69972656 89.25 7.6484375 C95.33063061 7.55036281 95.33063061 7.55036281 98.5703125 9.7265625 C100.22985382 12.36550525 100.37530255 13.55128463 100.125 16.625 C99.88510138 21.99872906 100.75803423 26.78817934 102 32 C102.86625 32.0928125 102.86625 32.0928125 103.75 32.1875 C107.27892802 33.46183512 108.17785985 34.66946569 110 38 C110.51464966 42.26011325 110.42092584 46.46597462 110.3125 50.75 C110.30283203 51.91144531 110.29316406 53.07289062 110.28320312 54.26953125 C110.1680359 62.8319641 110.1680359 62.8319641 109 64 C106.66702567 64.04092937 104.33294775 64.04241723 102 64 C101.95875 64.886875 101.9175 65.77375 101.875 66.6875 C100.93401494 70.2498006 99.77024717 71.83047577 96.8046875 74.015625 C93.58896768 75.76965399 90.64567995 76.36527044 87 76 C83.49318827 74.76472385 80.7686742 73.06945976 78.5625 70 C78 68 78 68 78 64 C64.47 64 50.94 64 37 64 C36.34 66.31 35.68 68.62 35 71 C31.76933935 74.61073837 28.69425258 75.72894602 23.9921875 76.1015625 C19.83292671 75.88952175 17.01329491 74.04823611 14.1875 71.125 C12.85955711 68.74868114 12.47907009 66.66345392 12 64 C10.86111328 64.05220703 10.86111328 64.05220703 9.69921875 64.10546875 C8.70535156 64.13253906 7.71148438 64.15960938 6.6875 64.1875 C5.70136719 64.22230469 4.71523438 64.25710937 3.69921875 64.29296875 C1 64 1 64 -0.84375 62.65625 C-2.425736 60.39016195 -2.21871147 58.6974415 -2 56 C-4.31 56 -6.62 56 -9 56 C-9.495 54.515 -9.495 54.515 -10 53 C-9.67 52.34 -9.34 51.68 -9 51 C-2.07 51 4.86 51 12 51 C12.33 52.32 12.66 53.64 13 55 C12 56 12 56 9.93359375 56.09765625 C9.10988281 56.08605469 8.28617188 56.07445312 7.4375 56.0625 C6.61121094 56.05347656 5.78492188 56.04445312 4.93359375 56.03515625 C4.29550781 56.02355469 3.65742188 56.01195312 3 56 C3 56.99 3 57.98 3 59 C9.87015987 59.06191299 9.87015987 59.06191299 15.375 55.5625 C16.179375 54.2940625 16.179375 54.2940625 17 53 C20.48018981 50.47986255 23.80549604 50.63206106 28 51 C30.95218062 52.34190028 32.5673638 53.18740634 34.1027832 56.07128906 C36.6030334 58.61304386 38.67329959 58.51593899 42.1335907 58.60565186 C42.94931046 58.60688049 43.76503021 58.60810913 44.60546875 58.609375 C45.44467361 58.62591125 46.28387848 58.64244751 47.14851379 58.65948486 C49.82824958 58.70806023 52.50741757 58.72935628 55.1875 58.75 C57.00458601 58.77815181 58.82164545 58.80807813 60.63867188 58.83984375 C65.09240118 58.9138214 69.54581351 58.96333743 74 59 C74 54.05 74 49.1 74 44 C75.32 44 76.64 44 78 44 C78.495 50.435 78.495 50.435 79 57 C79.78375 56.195625 80.5675 55.39125 81.375 54.5625 C84.38359582 51.62553742 85.05993638 51.0921631 89.1875 50.6875 C94.00838165 51.08265423 96.0917515 52.18606108 100 55 C100.9375 57.25 100.9375 57.25 101 59 C102.32 59 103.64 59 105 59 C105 56.69 105 54.38 105 52 C104.05125 51.9175 103.1025 51.835 102.125 51.75 C99 51 99 51 97.625 49.3125 C96.65618765 45.7278943 96.31176349 42.37647303 98 39 C100.5625 38.375 100.5625 38.375 103 38 C101.28556781 36.28556781 98.99554759 36.76947033 96.65234375 36.68359375 C95.57275391 36.64169922 94.49316406 36.59980469 93.38085938 36.55664062 C92.24455078 36.51732422 91.10824219 36.47800781 89.9375 36.4375 C88.79732422 36.39431641 87.65714844 36.35113281 86.48242188 36.30664062 C83.65507805 36.20017161 80.82764262 36.09815793 78 36 C78 37.32 78 38.64 78 40 C76.68 40 75.36 40 74 40 C74 28.12 74 16.24 74 4 C50.57 4 27.14 4 3 4 C3 15.88 3 27.76 3 40 C1.35 39.67 -0.3 39.34 -2 39 C-2.04942365 33.927993 -2.08573068 28.85612606 -2.10986328 23.78393555 C-2.11992326 22.05832477 -2.13357276 20.33273105 -2.15087891 18.60717773 C-2.17512754 16.1273986 -2.18648301 13.64784477 -2.1953125 11.16796875 C-2.20563507 10.39599655 -2.21595764 9.62402435 -2.22659302 8.82865906 C-2.22739422 5.00718524 -2.17242595 3.25863893 0 0 Z M78 12 C78 12.99 78 13.98 78 15 C83.61 15 89.22 15 95 15 C94.34 14.01 93.68 13.02 93 12 C90.37302936 11.77862607 87.99106036 11.71837975 85.375 11.8125 C84.66859375 11.82603516 83.9621875 11.83957031 83.234375 11.85351562 C81.48925872 11.8888896 79.74453392 11.94269779 78 12 Z M78 20 C78 23.63 78 27.26 78 31 C83.94 31 89.88 31 96 31 C95.35954625 23.75177852 95.35954625 23.75177852 94 20 C88.72 20 83.44 20 78 20 Z M102 44 C102.33 44.99 102.66 45.98 103 47 C103.66 47 104.32 47 105 47 C105 46.01 105 45.02 105 44 C104.01 44 103.02 44 102 44 Z M17 61 C16.93374589 64.8427383 17.18100581 66.99200716 19.625 70 C23.11581787 71.46981805 25.39148956 70.98413921 29 70 C31.16666667 68.5 31.16666667 68.5 32 66 C31.93351603 62.21041394 31.83225402 59.92142409 29.25 57.0625 C23.62495891 54.4062306 20.56989501 56.06514514 17 61 Z M83 60 C81.83789781 62.39351495 81.83789781 62.39351495 82 65 C83.93256053 68.40130653 85.24447637 69.7267255 88.9375 71.0625 C92.08772898 71.22512299 92.08772898 71.22512299 94.875 69.5 C97.29586971 67.08975374 97.29586971 67.08975374 97.5625 63.5 C97.25025244 60.00952518 97.25025244 60.00952518 95.375 57.5625 C90.38477938 54.27946012 86.43564284 55.29189685 83 60 Z " fill="#003092" transform="translate(21,15)"/>
<path d="M0 0 C1.32 0.66 2.64 1.32 4 2 C1.69909822 7.24208645 -2.39492207 10.80267066 -6.375 14.8125 C-7.14328125 15.61365234 -7.9115625 16.41480469 -8.703125 17.24023438 C-9.44820312 17.99240234 -10.19328125 18.74457031 -10.9609375 19.51953125 C-11.63946777 20.21151611 -12.31799805 20.90350098 -13.01708984 21.61645508 C-15 23 -15 23 -17.08911133 22.8515625 C-20.05967992 21.52776753 -22.01141763 19.46194176 -24.3125 17.1875 C-25.21613281 16.31480469 -26.11976562 15.44210938 -27.05078125 14.54296875 C-29 12 -29 12 -28.79296875 9.67578125 C-28.53128906 9.12277344 -28.26960938 8.56976563 -28 8 C-24.37386801 8.56959153 -22.74482259 9.92374534 -20.25 12.5625 C-19.63640625 13.20316406 -19.0228125 13.84382813 -18.390625 14.50390625 C-17.93171875 14.99761719 -17.4728125 15.49132813 -17 16 C-10.96668638 11.01595832 -5.4815829 5.58084697 0 0 Z " fill="#003092" transform="translate(74,32)"/>
<path d="M0 0 C1.29349365 0.00523682 2.5869873 0.01047363 3.91967773 0.01586914 C4.9496714 0.01799156 4.9496714 0.01799156 6.00047302 0.02015686 C8.20144949 0.0257706 10.40232557 0.03832532 12.60327148 0.05102539 C14.09220231 0.05603863 15.58113473 0.06060184 17.07006836 0.06469727 C20.72700223 0.07574446 24.38387707 0.09301826 28.04077148 0.11352539 C28.04077148 1.76352539 28.04077148 3.41352539 28.04077148 5.11352539 C17.81077148 5.11352539 7.58077148 5.11352539 -2.95922852 5.11352539 C-3.28922852 3.79352539 -3.61922852 2.47352539 -3.95922852 1.11352539 C-2.95922852 0.11352539 -2.95922852 0.11352539 0 0 Z " fill="#003092" transform="translate(62.959228515625,65.886474609375)"/>
<path d="M0 0 C2.5 0.25 2.5 0.25 4.5 2.25 C4.8125 4.75 4.8125 4.75 4.5 7.25 C1.5 9.25 1.5 9.25 -1.1875 8.875 C-1.950625 8.66875 -2.71375 8.4625 -3.5 8.25 C-4.125 5.375 -4.125 5.375 -4.5 2.25 C-2.5 0.25 -2.5 0.25 0 0 Z " fill="#003092" transform="translate(45.5,73.75)"/>
<path d="M0 0 C1 1 1 1 1.1875 3.4375 C1 6 1 6 -1 8 C-5.55555556 7.44444444 -5.55555556 7.44444444 -7 6 C-7.04080783 4.00041636 -7.04254356 1.99954746 -7 0 C-4.31633121 -1.3418344 -2.84719317 -0.73004953 0 0 Z " fill="#003092" transform="translate(114,75)"/>
</svg>
