<?xml version="1.0" encoding="UTF-8"?>
<svg version="1.1" xmlns="http://www.w3.org/2000/svg" width="200" height="200">
<path d="M0 0 C66 0 132 0 200 0 C200 66 200 132 200 200 C134 200 68 200 0 200 C0 134 0 68 0 0 Z " fill="#589ED8" transform="translate(0,0)"/>
<path d="M0 0 C14.66934279 10.55412208 25.37119075 26.52508684 29.61328125 44.25 C30.35017215 49.49011305 30.22645064 54.72453878 30 60 C30.78890625 60.2990625 31.5778125 60.598125 32.390625 60.90625 C35.72686243 62.30467288 37.39064653 63.78129307 39 67 C39.27229992 71.41125868 39.23168414 75.83129807 39.25 80.25 C39.2809375 82.09271484 39.2809375 82.09271484 39.3125 83.97265625 C39.32023437 85.75736328 39.32023437 85.75736328 39.328125 87.578125 C39.3374707 88.66512695 39.34681641 89.75212891 39.35644531 90.87207031 C38.941154 94.51639378 37.93705274 96.89686642 36 100 C34.989375 100.4125 33.97875 100.825 32.9375 101.25 C29.85052881 102.64497601 29.85052881 102.64497601 29.34375 105.12109375 C29.06714597 106.86848652 28.79925349 108.61727552 28.5390625 110.3671875 C27.20903979 116.86309551 23.28311967 121.3109103 17.94140625 124.9921875 C12.60429022 127.76276283 7.60445027 128.28137771 1.6796875 128.2734375 C0.07681574 128.29371132 -1.52604881 128.31456179 -3.12890625 128.3359375 C-5.63499091 128.35859026 -8.14079004 128.37503669 -10.64697266 128.38085938 C-13.08026532 128.39037372 -15.5123014 128.42411324 -17.9453125 128.4609375 C-19.06729538 128.45336929 -19.06729538 128.45336929 -20.21194458 128.44564819 C-23.7577754 128.51272941 -25.58924402 128.64638217 -28.32373047 131.00048828 C-28.87689941 131.66032715 -29.43006836 132.32016602 -30 133 C-32.875 133.53125 -32.875 133.53125 -36 133.5 C-37.546875 133.51546875 -37.546875 133.51546875 -39.125 133.53125 C-42.66673042 132.87679981 -43.81785132 131.81713883 -46 129 C-47.0625 125.5625 -47.0625 125.5625 -47 122 C-45.3125 119.0625 -45.3125 119.0625 -42 117 C-37.02682804 116.28857894 -32.06030583 115.77807232 -27.62890625 118.40625 C-27.09136719 118.9321875 -26.55382812 119.458125 -26 120 C-26 120.66 -26 121.32 -26 122 C-21.34014845 121.98041434 -16.68214227 121.9282046 -12.02294922 121.84741211 C-10.44232268 121.82439953 -8.86154644 121.80987618 -7.28076172 121.80444336 C6.16340658 121.86945747 6.16340658 121.86945747 18 116 C20.87745995 112.04195293 22.39161744 107.86706046 23 103 C22.195625 103.020625 21.39125 103.04125 20.5625 103.0625 C18 103 18 103 17 102 C16.8988308 98.90918535 16.86031442 95.84117445 16.8671875 92.75 C16.86623077 91.82155273 16.86527405 90.89310547 16.86428833 89.93652344 C16.86360645 87.96940035 16.86546128 86.00227504 16.86962891 84.03515625 C16.87497705 81.01296974 16.86968418 77.99093185 16.86328125 74.96875 C16.86394203 73.06249967 16.86522319 71.15624943 16.8671875 69.25 C16.86516327 68.33959961 16.86313904 67.42919922 16.86105347 66.49121094 C16.88505031 60.11494969 16.88505031 60.11494969 18 59 C19.99958364 58.95919217 22.00045254 58.95745644 24 59 C23.54702053 56.45727525 23.08779821 53.91594018 22.625 51.375 C22.49867188 50.66214844 22.37234375 49.94929688 22.2421875 49.21484375 C19.79297108 35.86661428 13.22604721 24.83000393 2.08984375 16.9375 C-13.94868397 6.53826391 -33.56678681 2.80590321 -52.4375 6.80078125 C-67.98470705 10.85576417 -80.39191636 20.23107002 -89.6171875 33.2890625 C-94.1284523 41.05698 -94.82646253 50.24140328 -96 59 C-95.030625 58.979375 -94.06125 58.95875 -93.0625 58.9375 C-90 59 -90 59 -89 60 C-88.90731001 61.35094982 -88.88252674 62.70667091 -88.88647461 64.06079102 C-88.88655014 64.92160782 -88.88662567 65.78242462 -88.88670349 66.66932678 C-88.89186478 67.60473801 -88.89702606 68.54014923 -88.90234375 69.50390625 C-88.9037587 70.45692123 -88.90517365 71.40993622 -88.90663147 72.39183044 C-88.91224848 75.44875165 -88.92480384 78.50560077 -88.9375 81.5625 C-88.94251281 83.62955624 -88.94707609 85.69661362 -88.95117188 87.76367188 C-88.96222344 92.84247588 -88.97949945 97.9212257 -89 103 C-91.39706123 103.10854617 -93.78915838 103.18753157 -96.1875 103.25 C-96.86103516 103.28351563 -97.53457031 103.31703125 -98.22851562 103.3515625 C-101.78833544 103.4210224 -103.81057128 103.11681007 -106.86328125 101.234375 C-112.46280818 95.37892819 -111.36719021 88.84888468 -111.375 81.125 C-111.39949219 79.85785156 -111.42398438 78.59070313 -111.44921875 77.28515625 C-111.48204628 66.87882932 -111.48204628 66.87882932 -109.2890625 63.1796875 C-106.78673446 60.79692463 -105.41653085 60.18980727 -102 60 C-102.05800781 59.2471875 -102.11601563 58.494375 -102.17578125 57.71875 C-102.83101378 42.29270423 -97.12427883 29.75245406 -89 17 C-88.5565625 16.28070313 -88.113125 15.56140625 -87.65625 14.8203125 C-84.50806179 10.03421557 -80.40511541 6.57037497 -76 3 C-75.40574219 2.484375 -74.81148437 1.96875 -74.19921875 1.4375 C-52.73894911 -16.20863178 -22.41269837 -14.59756071 0 0 Z " fill="#F3FCFA" transform="translate(136,39)"/>
<path d="M0 0 C-2.49092811 1.24546405 -3.41080733 0.7767578 -6 0 C-6 0.66 -6 1.32 -6 2 C-5.030625 2.2475 -4.06125 2.495 -3.0625 2.75 C-2.051875 3.1625 -1.04125 3.575 0 4 C0.875 6.125 0.875 6.125 1 8 C0.1646875 7.39542969 -0.670625 6.79085937 -1.53125 6.16796875 C-4.9629357 3.88319913 -8.58466 2.54247044 -12.5 1.3125 C-13.13808594 1.10044922 -13.77617188 0.88839844 -14.43359375 0.66992188 C-29.70168384 -4.27893759 -45.02910207 -2.5580602 -59.24609375 4.64453125 C-64.98960856 8.17348695 -70.10076373 12.38152226 -75 17 C-72.06050369 15.59992388 -69.40903478 13.96895368 -66.6875 12.1875 C-50.33783324 2.58531476 -31.03207503 0.84723309 -12.62963867 5.49487305 C-5.4816318 7.60985708 0.90370149 10.70299736 7 15 C8.12386864 15.75169427 9.24871814 16.50192637 10.375 17.25 C11.24125 17.8275 12.1075 18.405 13 19 C14.3191582 19.69429379 15.64649406 20.37530495 17 21 C17 22.32 17 23.64 17 25 C16.01 25.99 16.01 25.99 15 27 C14.46632813 26.49210937 13.93265625 25.98421875 13.3828125 25.4609375 C-1.87709918 11.36268 -18.17124933 7.31739779 -38.5625 7.66796875 C-54.54188333 8.34681318 -68.61788368 16.0078933 -79.5625 27.4375 C-88.31576233 37.85531714 -90.23686708 47.84100793 -92 61 C-91.030625 60.979375 -90.06125 60.95875 -89.0625 60.9375 C-86 61 -86 61 -85 62 C-84.90731001 63.35094982 -84.88252674 64.70667091 -84.88647461 66.06079102 C-84.88655014 66.92160782 -84.88662567 67.78242462 -84.88670349 68.66932678 C-84.89186478 69.60473801 -84.89702606 70.54014923 -84.90234375 71.50390625 C-84.9037587 72.45692123 -84.90517365 73.40993622 -84.90663147 74.39183044 C-84.91224848 77.44875165 -84.92480384 80.50560077 -84.9375 83.5625 C-84.94251281 85.62955624 -84.94707609 87.69661362 -84.95117188 89.76367188 C-84.96222344 94.84247588 -84.97949945 99.9212257 -85 105 C-87.39706123 105.10854617 -89.78915838 105.18753157 -92.1875 105.25 C-92.86103516 105.28351563 -93.53457031 105.31703125 -94.22851562 105.3515625 C-97.78833544 105.4210224 -99.81057128 105.11681007 -102.86328125 103.234375 C-108.46280818 97.37892819 -107.36719021 90.84888468 -107.375 83.125 C-107.39949219 81.85785156 -107.42398438 80.59070313 -107.44921875 79.28515625 C-107.48204628 68.87882932 -107.48204628 68.87882932 -105.2890625 65.1796875 C-102.78673446 62.79692463 -101.41653085 62.18980727 -98 62 C-98.05800781 61.2471875 -98.11601563 60.494375 -98.17578125 59.71875 C-98.83101378 44.29270423 -93.12427883 31.75245406 -85 19 C-84.5565625 18.28070313 -84.113125 17.56140625 -83.65625 16.8203125 C-80.50806179 12.03421557 -76.40511541 8.57037497 -72 5 C-71.40574219 4.484375 -70.81148437 3.96875 -70.19921875 3.4375 C-50.75082353 -12.55432819 -20.87167033 -13.8013213 0 0 Z " fill="#F0FBFB" transform="translate(132,37)"/>
<path d="M0 0 C-0.33 10.56 -0.66 21.12 -1 32 C5.63333333 31.76666667 5.63333333 31.76666667 8 29 C8.37173016 26.3817233 8.37173016 26.3817233 8.4140625 23.3359375 C8.45273438 22.21445313 8.49140625 21.09296875 8.53125 19.9375 C8.5621875 18.761875 8.593125 17.58625 8.625 16.375 C8.66367188 15.19164063 8.70234375 14.00828125 8.7421875 12.7890625 C8.83668845 9.85953309 8.92224558 6.93001403 9 4 C9.33 4 9.66 4 10 4 C10 10.6 10 17.2 10 24 C11.32 23.67 12.64 23.34 14 23 C14 16.07 14 9.14 14 2 C14.33 2 14.66 2 15 2 C15.08738991 6.37487331 15.140524 10.74952078 15.1875 15.125 C15.21263672 16.3625 15.23777344 17.6 15.26367188 18.875 C15.27333984 20.07382813 15.28300781 21.27265625 15.29296875 22.5078125 C15.3086792 23.60754395 15.32438965 24.70727539 15.34057617 25.84033203 C14.94492579 29.51094655 13.95360839 31.87958596 12 35 C10.4840625 35.61875 10.4840625 35.61875 8.9375 36.25 C5.85052881 37.64497601 5.85052881 37.64497601 5.34375 40.12109375 C5.06714597 41.86848652 4.79925349 43.61727552 4.5390625 45.3671875 C3.20903979 51.86309551 -0.71688033 56.3109103 -6.05859375 59.9921875 C-11.39570978 62.76276283 -16.39554973 63.28137771 -22.3203125 63.2734375 C-23.92318426 63.29371132 -25.52604881 63.31456179 -27.12890625 63.3359375 C-29.63499091 63.35859026 -32.14079004 63.37503669 -34.64697266 63.38085938 C-37.08026532 63.39037372 -39.5123014 63.42411324 -41.9453125 63.4609375 C-42.69330109 63.45589203 -43.44128967 63.45084656 -44.21194458 63.44564819 C-47.7577754 63.51272941 -49.58924402 63.64638217 -52.32373047 66.00048828 C-52.87689941 66.66032715 -53.43006836 67.32016602 -54 68 C-56.875 68.53125 -56.875 68.53125 -60 68.5 C-61.546875 68.51546875 -61.546875 68.51546875 -63.125 68.53125 C-66.66673042 67.87679981 -67.81785132 66.81713883 -70 64 C-71.0625 60.5625 -71.0625 60.5625 -71 57 C-69.3125 54.0625 -69.3125 54.0625 -66 52 C-61.02682804 51.28857894 -56.06030583 50.77807232 -51.62890625 53.40625 C-51.09136719 53.9321875 -50.55382812 54.458125 -50 55 C-50 55.66 -50 56.32 -50 57 C-45.34014845 56.98041434 -40.68214227 56.9282046 -36.02294922 56.84741211 C-34.44232268 56.82439953 -32.86154644 56.80987618 -31.28076172 56.80444336 C-17.83659342 56.86945747 -17.83659342 56.86945747 -6 51 C-3.12254005 47.04195293 -1.60838256 42.86706046 -1 38 C-1.804375 38.020625 -2.60875 38.04125 -3.4375 38.0625 C-6 38 -6 38 -7 37 C-7.07258946 34.81360547 -7.08373783 32.62499611 -7.0625 30.4375 C-7.05347656 29.23996094 -7.04445312 28.04242188 -7.03515625 26.80859375 C-7.02355469 25.88175781 -7.01195312 24.95492187 -7 24 C-6.505 24.99 -6.505 24.99 -6 26 C-5.01 25.505 -5.01 25.505 -4 25 C-4 18.4 -4 11.8 -4 5 C-4.66 5 -5.32 5 -6 5 C-6 3.35 -6 1.7 -6 0 C-2.25 -1.125 -2.25 -1.125 0 0 Z " fill="#EDFBFD" transform="translate(160,104)"/>
<path d="M0 0 C-2.49092811 1.24546405 -3.41080733 0.7767578 -6 0 C-6 0.66 -6 1.32 -6 2 C-5.030625 2.2475 -4.06125 2.495 -3.0625 2.75 C-2.051875 3.1625 -1.04125 3.575 0 4 C0.875 6.125 0.875 6.125 1 8 C0.1646875 7.39542969 -0.670625 6.79085937 -1.53125 6.16796875 C-4.9629357 3.88319913 -8.58466 2.54247044 -12.5 1.3125 C-13.13808594 1.10044922 -13.77617188 0.88839844 -14.43359375 0.66992188 C-28.62863607 -3.93112967 -42.35815159 -2.66016747 -56 3 C-59.8810999 5.08307622 -63.43857163 7.41744376 -67 10 C-67.66 10.33 -68.32 10.66 -69 11 C-69 10.34 -69 9.68 -69 9 C-72.77254453 9.50980331 -74.44987123 10.20700182 -77 13 C-77.66 13 -78.32 13 -79 13 C-79.33 14.65 -79.66 16.3 -80 18 C-80.99 17.34 -81.98 16.68 -83 16 C-81.85156176 14.85156176 -80.70245907 13.70378324 -79.55078125 12.55859375 C-78.47529007 11.47768448 -77.41087417 10.3856859 -76.35546875 9.28515625 C-56.5991527 -11.09551291 -24.13016897 -15.95599249 0 0 Z " fill="#E5F5FA" transform="translate(132,37)"/>
<path d="M0 0 C5.96010693 4.24642594 11.88001664 8.76265586 17 14 C16.67 14.66 16.34 15.32 16 16 C15.3915625 15.49210937 14.783125 14.98421875 14.15625 14.4609375 C-2.48918077 1.38937863 -21.36490928 -0.48999099 -42 1 C-51.26178418 2.46408677 -59.28569445 6.8664803 -67 12 C-68.66252024 13.00687846 -70.32817974 14.00863992 -72 15 C-68.99576593 7.42933013 -59.61023208 1.68704793 -52.5625 -1.9375 C-35.8229837 -8.87827505 -15.94627615 -9.72950288 0 0 Z " fill="#70A8CB" transform="translate(128,41)"/>
<path d="M0 0 C0.66 0 1.32 0 2 0 C0.81669932 2.4519942 -0.4597385 4.81001546 -1.8046875 7.1796875 C-8.86290281 19.67056914 -12.5194523 31.53551417 -13 46 C-13.763125 46.226875 -14.52625 46.45375 -15.3125 46.6875 C-18.67632441 48.33029797 -19.38861872 49.65083187 -21 53 C-21.45752849 56.10341352 -21.45752849 56.10341352 -21.3984375 59.4375 C-21.40230469 60.66210938 -21.40617187 61.88671875 -21.41015625 63.1484375 C-21.39855469 64.41945313 -21.38695312 65.69046875 -21.375 67 C-21.38660156 68.27101563 -21.39820313 69.54203125 -21.41015625 70.8515625 C-21.40628906 72.07617188 -21.40242188 73.30078125 -21.3984375 74.5625 C-21.39505371 75.67753906 -21.39166992 76.79257813 -21.38818359 77.94140625 C-20.95131797 81.38357764 -20.06754498 83.23598686 -18 86 C-13.51485115 89.34985579 -13.51485115 89.34985579 0 89 C-0.33 74.81 -0.66 60.62 -1 46 C-2.98 45.67 -4.96 45.34 -7 45 C-6.67 41.37 -6.34 37.74 -6 34 C-5.34 34.33 -4.68 34.66 -4 35 C-3.40644386 37.64860427 -3.25790731 40.29197322 -3 43 C-2.0409375 43.185625 -2.0409375 43.185625 -1.0625 43.375 C-0.381875 43.58125 0.29875 43.7875 1 44 C2.14601494 46.29202988 2.13237239 47.5945669 2.14526367 50.14257812 C2.15164352 50.99686401 2.15802338 51.8511499 2.16459656 52.73132324 C2.16570938 53.65529907 2.1668222 54.5792749 2.16796875 55.53125 C2.17129715 56.47810669 2.17462555 57.42496338 2.17805481 58.4005127 C2.18312246 60.40453606 2.18546319 62.40856789 2.18530273 64.41259766 C2.18749106 67.48744503 2.20565354 70.56193481 2.22460938 73.63671875 C2.22754289 75.58072793 2.22952797 77.52473883 2.23046875 79.46875 C2.23765427 80.39272583 2.24483978 81.31670166 2.25224304 82.26867676 C2.24916641 83.12296265 2.24608978 83.97724854 2.24291992 84.85742188 C2.24434494 85.61083862 2.24576996 86.36425537 2.24723816 87.14050293 C2 89 2 89 0 91 C-6.8836796 91.76046389 -13.62304741 91.21944559 -20.29296875 89.4375 C-23.23133238 86.96308852 -23.52775635 83.63264349 -24 80 C-24.29228109 75.45436399 -24.32479461 70.92892296 -24.3125 66.375 C-24.32861328 65.17359375 -24.34472656 63.9721875 -24.36132812 62.734375 C-24.36750217 51.59640106 -24.36750217 51.59640106 -21 47 C-18.3125 45.625 -18.3125 45.625 -16 45 C-15.96261719 44.44054687 -15.92523438 43.88109375 -15.88671875 43.3046875 C-14.99747552 32.45940737 -13.0305966 22.20204734 -8.18359375 12.40234375 C-6.98841092 9.97647761 -5.97524276 7.52124971 -5 5 C-4.34 5 -3.68 5 -3 5 C-2.690625 4.360625 -2.38125 3.72125 -2.0625 3.0625 C-1 1 -1 1 0 0 Z " fill="#679CC2" transform="translate(47,53)"/>
<path d="M0 0 C1.12386864 0.75169427 2.24871814 1.50192637 3.375 2.25 C4.24125 2.8275 5.1075 3.405 6 4 C7.3191582 4.69429379 8.64649406 5.37530495 10 6 C10 7.32 10 8.64 10 10 C9.34 10.66 8.68 11.32 8 12 C7.46632813 11.49210937 6.93265625 10.98421875 6.3828125 10.4609375 C-8.87709918 -3.63732 -25.17124933 -7.68260221 -45.5625 -7.33203125 C-61.07367394 -6.67307753 -72.94960146 0.8159584 -85 10 C-85.33 8.35 -85.66 6.7 -86 5 C-84.13287471 3.8244026 -82.26378735 2.65184244 -80.38671875 1.4921875 C-78.83284284 0.52069716 -77.29268063 -0.4731979 -75.76953125 -1.4921875 C-53.24011391 -16.05894645 -22.00349475 -15.50925941 0 0 Z " fill="#DEF4FA" transform="translate(139,52)"/>
<path d="M0 0 C9 2 9 2 10 3 C10.28150942 7.28491465 10.23182832 11.58194096 10.25 15.875 C10.270625 17.08542969 10.29125 18.29585937 10.3125 19.54296875 C10.31765625 20.70183594 10.3228125 21.86070313 10.328125 23.0546875 C10.3374707 24.12187012 10.34681641 25.18905273 10.35644531 26.28857422 C10 29 10 29 8.91699219 30.87158203 C7 32 7 32 0 32 C0 21.44 0 10.88 0 0 Z " fill="#599ED6" transform="translate(159,104)"/>
<path d="M0 0 C2.64 0 5.28 0 8 0 C8 10.23 8 20.46 8 31 C1 31 1 31 -1 30 C-2.67791371 24.96625886 -2.18456756 19.70709889 -2.1875 14.4375 C-2.19974609 13.27541016 -2.21199219 12.11332031 -2.22460938 10.91601562 C-2.22654297 9.80806641 -2.22847656 8.70011719 -2.23046875 7.55859375 C-2.23457764 6.54079834 -2.23868652 5.52300293 -2.24291992 4.47436523 C-2 2 -2 2 0 0 Z " fill="#6BA2CD" transform="translate(33,105)"/>
<path d="M0 0 C5.92899975 3.22545937 9.73978904 7.8567635 14 13 C14.52335938 13.6290625 15.04671875 14.258125 15.5859375 14.90625 C20.98178975 22.36233675 22.26257507 33.01716876 22 42 C19.03 42.495 19.03 42.495 16 43 C16 56.86 16 70.72 16 85 C17.65 85.33 19.3 85.66 21 86 C20.67339615 92.20547318 19.49734349 96.51565461 15 101 C13.515 101.495 13.515 101.495 12 102 C12.41207985 99.11544106 12.85716381 98.12985108 15.0625 96.125 C17.32926906 94.07641793 17.32926906 94.07641793 17.25 90.75 C17.1675 89.8425 17.085 88.935 17 88 C15.68 87.34 14.36 86.68 13 86 C12.80774188 80.07381443 12.62901787 74.14743475 12.46289062 68.22045898 C12.40444929 66.20374578 12.3422941 64.18713667 12.27636719 62.1706543 C12.18230994 59.27411855 12.10156368 56.37747249 12.0234375 53.48046875 C11.99124115 52.57725388 11.9590448 51.674039 11.9258728 50.74345398 C11.90570099 49.90280899 11.88552917 49.062164 11.86474609 48.19604492 C11.84253998 47.45658127 11.82033386 46.71711761 11.79745483 45.95524597 C12 44 12 44 14 41 C16.625 40.3125 16.625 40.3125 19 40 C18.5359375 38.3603125 18.5359375 38.3603125 18.0625 36.6875 C16.95673951 32.31896736 16.56020959 28.00299413 16.24609375 23.515625 C16.02390955 21.24440877 15.61956783 19.19152918 15 17 C14.34 17 13.68 17 13 17 C11.78125 15.50390625 11.78125 15.50390625 10.5 13.5625 C8.7134637 10.77468153 8.7134637 10.77468153 6 9 C6 8.01 6 7.02 6 6 C5.071875 5.9071875 5.071875 5.9071875 4.125 5.8125 C2 5 2 5 0.75 2.4375 C0.5025 1.633125 0.255 0.82875 0 0 Z " fill="#6DA1C5" transform="translate(138,56)"/>
<path d="M0 0 C1.94712891 0.00193359 1.94712891 0.00193359 3.93359375 0.00390625 C7.5625 0.4375 7.5625 0.4375 9.78027344 1.93261719 C13.40717929 3.89437988 16.68258705 3.91445702 20.70703125 3.94921875 C21.47681808 3.96716995 22.24660492 3.98512115 23.03971863 4.00361633 C25.48475764 4.05755387 27.92960332 4.09156073 30.375 4.125 C32.03843826 4.15818782 33.70185107 4.19267884 35.36523438 4.22851562 C39.43084971 4.31327037 43.49640936 4.38015973 47.5625 4.4375 C43.87091682 6.89855545 41.09626446 6.69325793 36.83203125 6.6328125 C36.08161057 6.6299826 35.33118988 6.62715271 34.55802917 6.62423706 C32.16352325 6.61305062 29.76939269 6.58794928 27.375 6.5625 C25.75065645 6.55246819 24.12630703 6.54334269 22.50195312 6.53515625 C18.521991 6.51311637 14.54230912 6.4785974 10.5625 6.4375 C10.5625 5.7775 10.5625 5.1175 10.5625 4.4375 C7.18783835 2.40945814 4.47360976 2.11138887 0.5625 2.0625 C-0.46875 2.03414062 -1.5 2.00578125 -2.5625 1.9765625 C-6.13375468 2.54912779 -7.31733497 3.54729925 -9.4375 6.4375 C-9.24673275 10.06207773 -8.58240236 13.00279291 -7.4375 16.4375 C-5.18856046 16.54573773 -2.93812425 16.62319645 -0.6875 16.6875 C1.19195312 16.75710937 1.19195312 16.75710937 3.109375 16.828125 C6.62020527 16.83532057 6.62020527 16.83532057 8.20703125 14.45117188 C11.77287105 11.40276323 15.14941394 11.83467401 19.703125 11.828125 C20.58530701 11.81158875 21.46748901 11.79505249 22.37640381 11.77801514 C25.1885065 11.72950806 28.00006832 11.70815845 30.8125 11.6875 C32.72138142 11.65934254 34.63023761 11.62941543 36.5390625 11.59765625 C41.21349714 11.52374846 45.88763106 11.47419045 50.5625 11.4375 C50.5625 12.0975 50.5625 12.7575 50.5625 13.4375 C49.51795654 13.45731934 48.47341309 13.47713867 47.3972168 13.49755859 C43.5224595 13.57362114 39.64807743 13.66233728 35.77368164 13.75488281 C34.09667366 13.79316993 32.41958362 13.82802331 30.74243164 13.859375 C28.33189568 13.90503179 25.92192443 13.9630241 23.51171875 14.0234375 C22.38657112 14.04076431 22.38657112 14.04076431 21.23869324 14.05844116 C17.50122287 14.16445459 15.74821377 14.31369082 12.5625 16.4375 C11.5725 16.4375 10.5825 16.4375 9.5625 16.4375 C9.5625 17.0975 9.5625 17.7575 9.5625 18.4375 C8.9025 18.4375 8.2425 18.4375 7.5625 18.4375 C7.2325 19.0975 6.9025 19.7575 6.5625 20.4375 C5.5725 20.1075 4.5825 19.7775 3.5625 19.4375 C0.79518058 19.17133035 -1.97177101 18.99381192 -4.74609375 18.81640625 C-7.39868319 18.44296478 -9.14147771 17.77820332 -11.4375 16.4375 C-11.54591951 14.52208862 -11.62328079 12.60490227 -11.6875 10.6875 C-11.73390625 9.62015625 -11.7803125 8.5528125 -11.828125 7.453125 C-11.4375 4.4375 -11.4375 4.4375 -9.88671875 2.07421875 C-6.49610742 -0.19159648 -4.04832533 -0.06018323 0 0 Z M4.5625 20.4375 C6.5625 21.4375 6.5625 21.4375 6.5625 21.4375 Z " fill="#71A2C7" transform="translate(99.4375,154.5625)"/>
<path d="M0 0 C0.99 0.33 1.98 0.66 3 1 C3.3721042 2.32303717 3.70630173 3.65737935 4 5 C4.66 5.33 5.32 5.66 6 6 C6.59423828 8.0378418 6.59423828 8.0378418 7.0703125 10.69921875 C7.24433594 11.66150391 7.41835937 12.62378906 7.59765625 13.61523438 C7.77167969 14.62908203 7.94570312 15.64292969 8.125 16.6875 C8.30675781 17.68201172 8.48851562 18.67652344 8.67578125 19.70117188 C9.52772765 24.51498934 10.25093786 29.0899825 10 34 C10.78375 34.2475 11.5675 34.495 12.375 34.75 C15.32317108 36.15389099 15.9024777 37.00675737 17 40 C17.66 40 18.32 40 19 40 C19 50.89 19 61.78 19 73 C17.515 73.495 17.515 73.495 16 74 C15.67 75.65 15.34 77.3 15 79 C13.1875 79.625 13.1875 79.625 11 80 C10.01 79.34 9.02 78.68 8 78 C9.423125 77.4121875 9.423125 77.4121875 10.875 76.8125 C14.51267444 74.70264883 14.84470603 73.917669 16 70 C16.28907584 66.97267596 16.28907584 66.97267596 16.23046875 63.74609375 C16.22853516 62.56208984 16.22660156 61.37808594 16.22460938 60.15820312 C16.21236328 58.93037109 16.20011719 57.70253906 16.1875 56.4375 C16.18685547 55.20580078 16.18621094 53.97410156 16.18554688 52.70507812 C16.40299989 45.73846625 16.40299989 45.73846625 15 39 C12.59047977 37.75285597 12.59047977 37.75285597 10 37 C9.34 36.67 8.68 36.34 8 36 C7.76171875 33.62109375 7.76171875 33.62109375 7.6875 30.4375 C7.16467045 21.68494602 4.84068591 12.57616122 0.83984375 4.72265625 C0 3 0 3 0 0 Z " fill="#689BC3" transform="translate(158,63)"/>
<path d="M0 0 C3.76524173 3.52253451 6.44761313 6.98043833 9.125 11.4375 C10.11886719 13.07525391 10.11886719 13.07525391 11.1328125 14.74609375 C16 23.22803347 16 23.22803347 16 26 C15.34 26 14.68 26 14 26 C14.185625 26.7425 14.37125 27.485 14.5625 28.25 C15.18327251 33.57090725 14.55856674 38.68931933 14 44 C13.67 44 13.34 44 13 44 C12.814375 42.58460937 12.814375 42.58460937 12.625 41.140625 C11.03792867 31.26110595 8.26280015 24.98841729 2 17 C2.99 16.67 3.98 16.34 5 16 C5.66 17.65 6.32 19.3 7 21 C7.99 21 8.98 21 10 21 C9.65555119 18.52733235 9.65555119 18.52733235 9 16 C8.34 15.67 7.68 15.34 7 15 C6.71125 14.071875 6.4225 13.14375 6.125 12.1875 C5.23656509 8.93993943 5.23656509 8.93993943 2.9375 6.9375 C0.65172197 4.65172197 0.35102233 3.159201 0 0 Z " fill="#E6F6FC" transform="translate(146,48)"/>
<path d="M0 0 C0.33 0 0.66 0 1 0 C1 3.96 1 7.92 1 12 C1.66 12 2.32 12 3 12 C3.66 11.34 4.32 10.68 5 10 C5 11.98 5 13.96 5 16 C6.98 16 8.96 16 11 16 C11 16.99 11 17.98 11 19 C10.01 19.33 9.02 19.66 8 20 C7.67 20.66 7.34 21.32 7 22 C5.28093353 23.71906647 2.97167136 23.45036917 0.625 23.6875 C-0.35210937 23.79449219 -1.32921875 23.90148437 -2.3359375 24.01171875 C-5 24 -5 24 -8 22 C-7.3125 20.0625 -7.3125 20.0625 -6 18 C-3.41796875 17.37109375 -3.41796875 17.37109375 -1 17 C-1.01160156 16.10796875 -1.02320313 15.2159375 -1.03515625 14.296875 C-1.04417969 13.12640625 -1.05320312 11.9559375 -1.0625 10.75 C-1.07410156 9.58984375 -1.08570313 8.4296875 -1.09765625 7.234375 C-1.01782092 4.59022872 -0.78643778 2.50173909 0 0 Z " fill="#EFF7F5" transform="translate(35,82)"/>
<path d="M0 0 C1.05445312 -0.00128906 2.10890625 -0.00257812 3.1953125 -0.00390625 C4.82339844 0.00189453 4.82339844 0.00189453 6.484375 0.0078125 C7.58523437 0.00394531 8.68609375 0.00007813 9.8203125 -0.00390625 C11.39425781 -0.00197266 11.39425781 -0.00197266 13 0 C14.43520996 0.00169189 14.43520996 0.00169189 15.89941406 0.00341797 C18.234375 0.1328125 18.234375 0.1328125 20.234375 1.1328125 C20.234375 1.7928125 20.234375 2.4528125 20.234375 3.1328125 C16.61093882 4.34062456 13.13939395 4.44891969 9.359375 4.6328125 C4.90032118 4.85211023 0.60974392 5.20769117 -3.765625 6.1328125 C-10.89243078 6.56940961 -10.89243078 6.56940961 -13.765625 5.1328125 C-13.140625 3.1953125 -13.140625 3.1953125 -11.765625 1.1328125 C-7.82611138 0.23580035 -4.02976337 0.00472818 0 0 Z " fill="#F7FCFB" transform="translate(91.765625,29.8671875)"/>
<path d="M0 0 C1.32 0.66 2.64 1.32 4 2 C2.7934375 2.6496875 2.7934375 2.6496875 1.5625 3.3125 C-1.27846354 4.80474002 -1.27846354 4.80474002 -2 8 C-1.34 8 -0.68 8 0 8 C0 7.34 0 6.68 0 6 C4.03038366 4.65653878 7.79838392 4.73323073 12 5 C14 6.5 14 6.5 15 8 C13 10 13 10 10.8359375 10.1953125 C9.61777344 10.16050781 9.61777344 10.16050781 8.375 10.125 C7.55773437 10.10695312 6.74046875 10.08890625 5.8984375 10.0703125 C5.27195312 10.04710937 4.64546875 10.02390625 4 10 C4 10.99 4 11.98 4 13 C5.258125 12.87625 6.51625 12.7525 7.8125 12.625 C8.52019531 12.55539063 9.22789063 12.48578125 9.95703125 12.4140625 C12.29988142 12.07334609 12.29988142 12.07334609 15 10 C15.99 10.33 16.98 10.66 18 11 C15.78495822 13.68360831 14.60212971 14.8887369 11.125 15.53125 C10.09375 15.5209375 9.0625 15.510625 8 15.5 C6.453125 15.51546875 6.453125 15.51546875 4.875 15.53125 C1.33278953 14.87671111 0.17445699 13.82528055 -2 11 C-2.9375 7.5 -2.9375 7.5 -3 4 C-1.5625 1.5625 -1.5625 1.5625 0 0 Z " fill="#EEF9FB" transform="translate(92,157)"/>
<path d="M0 0 C0.495 1.485 0.495 1.485 1 3 C-0.76361298 5.25350547 -1.7865052 5.95171757 -4.61572266 6.59155273 C-8.43345019 7.05231295 -12.18565145 7.12544743 -16.0234375 7.09765625 C-16.76961334 7.0962413 -17.51578918 7.09482635 -18.28457642 7.09336853 C-20.64809318 7.08780874 -23.01151227 7.07526389 -25.375 7.0625 C-26.98567571 7.0574798 -28.59635291 7.0529178 -30.20703125 7.04882812 C-34.13805799 7.03785251 -38.06901248 7.02061596 -42 7 C-41.34 6.67 -40.68 6.34 -40 6 C-40 5.34 -40 4.68 -40 4 C-40.66 3.67 -41.32 3.34 -42 3 C-30.45 3.33 -18.9 3.66 -7 4 C-7 3.34 -7 2.68 -7 2 C-4.69 1.34 -2.38 0.68 0 0 Z " fill="#FAFDFC" transform="translate(152,159)"/>
<path d="M0 0 C-3.16240582 2.10827055 -4.50657469 2.33817465 -8.1875 2.625 C-9.53908203 2.73714844 -9.53908203 2.73714844 -10.91796875 2.8515625 C-11.94857422 2.92503906 -11.94857422 2.92503906 -13 3 C-13 3.66 -13 4.32 -13 5 C-12.34773438 4.855625 -11.69546875 4.71125 -11.0234375 4.5625 C-6.27379823 3.55372706 -1.88590812 2.74284694 3 3 C0.00165495 4.74269293 -2.95630982 5.51228917 -6.33081055 6.2421875 C-17.33563326 8.63951183 -27.29995167 12.63966227 -36 20 C-36 19.01 -36 18.02 -36 17 C-34.22884717 15.23184405 -32.50378348 13.68530296 -30.5625 12.125 C-30.01480957 11.67954834 -29.46711914 11.23409668 -28.90283203 10.77514648 C-20.97140492 4.44968863 -10.53184265 -2.72632806 0 0 Z " fill="#699FC5" transform="translate(93,36)"/>
<path d="M0 0 C9 2 9 2 10 3 C10.28150942 7.28491465 10.23182832 11.58194096 10.25 15.875 C10.270625 17.08542969 10.29125 18.29585937 10.3125 19.54296875 C10.31765625 20.70183594 10.3228125 21.86070313 10.328125 23.0546875 C10.3374707 24.12187012 10.34681641 25.18905273 10.35644531 26.28857422 C10 29 10 29 8.91699219 30.87158203 C7 32 7 32 0 32 C0 21.44 0 10.88 0 0 Z M2 2 C1.0178006 5.27626375 0.88419086 8.22788119 0.90234375 11.640625 C0.90556641 12.71054688 0.90878906 13.78046875 0.91210938 14.8828125 C0.92048828 15.99398437 0.92886719 17.10515625 0.9375 18.25 C0.94201172 19.37664062 0.94652344 20.50328125 0.95117188 21.6640625 C0.96294603 24.44276217 0.9793916 27.22135409 1 30 C4.465 29.505 4.465 29.505 8 29 C8.08676908 24.87513162 8.14031295 20.75049616 8.1875 16.625 C8.21263672 15.449375 8.23777344 14.27375 8.26367188 13.0625 C8.27333984 11.94101563 8.28300781 10.81953125 8.29296875 9.6640625 C8.3086792 8.62717285 8.32438965 7.5902832 8.34057617 6.52197266 C8.17199097 5.27359619 8.17199097 5.27359619 8 4 C5.18490007 1.7226499 5.18490007 1.7226499 2 2 Z " fill="#75A3C6" transform="translate(159,104)"/>
<path d="M0 0 C0.33 0 0.66 0 1 0 C1.125 7.625 1.125 7.625 0 11 C3.12455058 9.35820641 3.12455058 9.35820641 3.73046875 6.8359375 C3.88128906 6.02382812 4.03210938 5.21171875 4.1875 4.375 C4.42533203 3.14910156 4.42533203 3.14910156 4.66796875 1.8984375 C4.83232422 0.95871094 4.83232422 0.95871094 5 0 C5.33 0 5.66 0 6 0 C6.50018913 6.00226956 5.28680694 9.94746507 2 15 C-0.72064657 18.06072739 -3.56844933 20.75174266 -7 23 C-7.66 23 -8.32 23 -9 23 C-8.67 22.01 -8.34 21.02 -8 20 C-7.34 20 -6.68 20 -6 20 C-6.33 19.34 -6.66 18.68 -7 18 C-10.96 18.495 -10.96 18.495 -15 19 C-12 17 -12 17 -8.5625 15.375 C-4.2457191 12.93825475 -2.64165214 9.55513367 -1 5 C-0.23245168 2.18551086 -0.23245168 2.18551086 0 0 Z " fill="#E4F4FA" transform="translate(159,142)"/>
<path d="M0 0 C6.06679946 1.97990368 10.41565078 4.44706443 15.3125 8.5 C15.91900391 8.98597656 16.52550781 9.47195312 17.15039062 9.97265625 C19.9101642 12.20112028 22.51835658 14.46137653 25 17 C24.67 17.66 24.34 18.32 24 19 C23.3915625 18.49210937 22.783125 17.98421875 22.15625 17.4609375 C13.28548301 10.49477636 3.19646399 5.8804872 -8 4 C-8 3.67 -8 3.34 -8 3 C-5.36 3 -2.72 3 0 3 C0 2.01 0 1.02 0 0 Z " fill="#75A7C9" transform="translate(120,38)"/>
<path d="M0 0 C-0.15726563 0.62519531 -0.31453125 1.25039062 -0.4765625 1.89453125 C-1.33555551 6.99079572 -1.3222479 12.15351529 -1.4296875 17.31445312 C-1.460625 18.14267578 -1.4915625 18.97089844 -1.5234375 19.82421875 C-1.54325684 20.57791748 -1.56307617 21.33161621 -1.58349609 22.1081543 C-2 24 -2 24 -5 26 C-6 25 -6 25 -6.11352539 22.68334961 C-6.10828857 21.68311768 -6.10305176 20.68288574 -6.09765625 19.65234375 C-6.09443359 18.57275391 -6.09121094 17.49316406 -6.08789062 16.38085938 C-6.07951172 15.24455078 -6.07113281 14.10824219 -6.0625 12.9375 C-6.05798828 11.79732422 -6.05347656 10.65714844 -6.04882812 9.48242188 C-6.03699747 6.65489649 -6.0205141 3.8274736 -6 1 C-3 0 -3 0 0 0 Z " fill="#F9FDFC" transform="translate(32,103)"/>
<path d="M0 0 C0 0.66 0 1.32 0 2 C0.74765625 1.95359375 1.4953125 1.9071875 2.265625 1.859375 C10.37257503 1.56226165 10.37257503 1.56226165 13.6875 3.875 C15 6 15 6 15 8 C14.07380859 7.70996094 14.07380859 7.70996094 13.12890625 7.4140625 C10.42648702 6.5831817 7.71479934 5.78940974 5 5 C4.32839844 4.78730469 3.65679687 4.57460938 2.96484375 4.35546875 C-7.89559473 1.35427402 -21.2337482 1.970301 -32 5 C-32 4.01 -32 3.02 -32 2 C-21.25704615 0.3999856 -10.85859801 -0.25991325 0 0 Z " fill="#6899C1" transform="translate(112,26)"/>
<path d="M0 0 C0.99 0 1.98 0 3 0 C3 7.26 3 14.52 3 22 C1.35 22 -0.3 22 -2 22 C-3 21 -3 21 -3.125 18.5 C-3 16 -3 16 -2 15 C-1.79031249 12.67013877 -1.63184611 10.33555964 -1.5 8 C-1.11111111 1.11111111 -1.11111111 1.11111111 0 0 Z " fill="#5A9ED3" transform="translate(36,112)"/>
<path d="M0 0 C0.33 0.99 0.66 1.98 1 3 C-0.3125 5.1875 -0.3125 5.1875 -2 7 C-2.66 7 -3.32 7 -4 7 C-4.02578125 7.62648437 -4.0515625 8.25296875 -4.078125 8.8984375 C-4.13484375 9.71570313 -4.1915625 10.53296875 -4.25 11.375 C-4.29640625 12.18710938 -4.3428125 12.99921875 -4.390625 13.8359375 C-4.59171875 14.55007812 -4.7928125 15.26421875 -5 16 C-6.98 16.99 -6.98 16.99 -9 18 C-9 13.71 -9 9.42 -9 5 C-9.99 4.67 -10.98 4.34 -12 4 C-12 3.01 -12 2.02 -12 1 C-11.13375 1.20625 -10.2675 1.4125 -9.375 1.625 C-5.63571398 2.04047622 -3.45057859 1.39666276 0 0 Z " fill="#F9FCF8" transform="translate(168,135)"/>
<path d="M0 0 C1.32 0.66 2.64 1.32 4 2 C4 8.93 4 15.86 4 23 C2.68 23.33 1.36 23.66 0 24 C-0.19682269 20.56296699 -0.38085152 17.12536573 -0.5625 13.6875 C-0.61857422 12.71103516 -0.67464844 11.73457031 -0.73242188 10.72851562 C-0.78076172 9.79072266 -0.82910156 8.85292969 -0.87890625 7.88671875 C-0.9260376 7.02264404 -0.97316895 6.15856934 -1.02172852 5.26831055 C-1 3 -1 3 0 0 Z " fill="#FAFDFA" transform="translate(170,104)"/>
<path d="M0 0 C0.33 0.66 0.66 1.32 1 2 C0.01 2.66 -0.98 3.32 -2 4 C-2.6496875 4.7425 -2.6496875 4.7425 -3.3125 5.5 C-5.62677547 7.55713375 -8.06037145 8.12436596 -11 9 C-11.99 9.495 -11.99 9.495 -13 10 C-13.144375 10.66 -13.28875 11.32 -13.4375 12 C-13.623125 12.66 -13.80875 13.32 -14 14 C-14.99 14.33 -15.98 14.66 -17 15 C-17.33 15.66 -17.66 16.32 -18 17 C-18.66 16.67 -19.32 16.34 -20 16 C-20.99 15.67 -21.98 15.34 -23 15 C-19.79723921 10.39194621 -16.25831319 7.9941146 -11.5 5.25 C-10.83613281 4.85167969 -10.17226562 4.45335937 -9.48828125 4.04296875 C-6.32254151 2.17891042 -3.61868296 0.77656698 0 0 Z " fill="#629FCA" transform="translate(78,47)"/>
<path d="M0 0 C0.66 0.33 1.32 0.66 2 1 C2.59355614 3.64860427 2.74209269 6.29197322 3 9 C4.32 9.33 5.64 9.66 7 10 C7.90304695 15.27537531 8.07107557 20.21804763 7.87890625 25.55859375 C7.85529526 26.34774673 7.83168427 27.13689972 7.80735779 27.94996643 C7.73138964 30.44602521 7.6470823 32.94171979 7.5625 35.4375 C7.50921218 37.13995673 7.45647237 38.8424307 7.40429688 40.54492188 C7.27586626 44.69684086 7.13996114 48.84845437 7 53 C6.67 53 6.34 53 6 53 C5.67 39.47 5.34 25.94 5 12 C2.03 11.505 2.03 11.505 -1 11 C-0.67 7.37 -0.34 3.74 0 0 Z " fill="#7AA7C7" transform="translate(41,87)"/>
<path d="M0 0 C0 0.66 0 1.32 0 2 C0.59538574 1.98952637 1.19077148 1.97905273 1.80419922 1.96826172 C4.49442343 1.92676051 7.18458037 1.90069296 9.875 1.875 C10.81214844 1.85824219 11.74929687 1.84148438 12.71484375 1.82421875 C13.61074219 1.81777344 14.50664063 1.81132813 15.4296875 1.8046875 C16.25710449 1.79421387 17.08452148 1.78374023 17.93701172 1.77294922 C20 2 20 2 22 4 C21.20416504 3.99476318 20.40833008 3.98952637 19.58837891 3.98413086 C15.93392751 3.96316487 12.27948884 3.95027793 8.625 3.9375 C6.74748047 3.92493164 6.74748047 3.92493164 4.83203125 3.91210938 C-2.1800701 3.89375309 -9.04232614 4.09958321 -16 5 C-16 4.34 -16 3.68 -16 3 C-13.89679937 2.49595192 -11.79240209 1.99689492 -9.6875 1.5 C-8.51574219 1.2215625 -7.34398438 0.943125 -6.13671875 0.65625 C-3 0 -3 0 0 0 Z " fill="#569FD8" transform="translate(96,36)"/>
<path d="M0 0 C0.33 0 0.66 0 1 0 C1 3.96 1 7.92 1 12 C1.66 12 2.32 12 3 12 C3.66 11.34 4.32 10.68 5 10 C5 11.98 5 13.96 5 16 C6.98 16 8.96 16 11 16 C11 16.99 11 17.98 11 19 C9 18.66666667 7 18.33333333 5 18 C3.94039062 17.82339844 2.88078125 17.64679688 1.7890625 17.46484375 C0.86867187 17.31144531 -0.05171875 17.15804687 -1 17 C-1.02709444 14.91673869 -1.04643873 12.83337559 -1.0625 10.75 C-1.07410156 9.58984375 -1.08570313 8.4296875 -1.09765625 7.234375 C-1.01782092 4.59022872 -0.78643778 2.50173909 0 0 Z " fill="#E1F4FA" transform="translate(35,82)"/>
<path d="M0 0 C0.66 0 1.32 0 2 0 C3.1482685 2.296537 3.11561175 3.58313167 3.09765625 6.1328125 C3.09282227 7.34130859 3.09282227 7.34130859 3.08789062 8.57421875 C3.07951172 9.41597656 3.07113281 10.25773437 3.0625 11.125 C3.05798828 11.97449219 3.05347656 12.82398437 3.04882812 13.69921875 C3.03702874 15.79950909 3.01909306 17.8997633 3 20 C2.01 20.33 1.02 20.66 0 21 C0 14.07 0 7.14 0 0 Z " fill="#FEFCF6" transform="translate(154,109)"/>
<path d="M0 0 C0 0.99 0 1.98 0 3 C0.66 3.33 1.32 3.66 2 4 C0.57107422 4.68835937 0.57107422 4.68835937 -0.88671875 5.390625 C-2.15380572 6.01008974 -3.4207239 6.62989981 -4.6875 7.25 C-5.31333984 7.55035156 -5.93917969 7.85070313 -6.58398438 8.16015625 C-10.45438826 10.06496235 -13.7119061 12.15828214 -17 15 C-17 14.01 -17 13.02 -17 12 C-15.1023138 10.18469397 -13.23735399 8.56177877 -11.1875 6.9375 C-10.64029297 6.49083984 -10.09308594 6.04417969 -9.52929688 5.58398438 C-2.64321749 0 -2.64321749 0 0 0 Z " fill="#71A1C5" transform="translate(74,41)"/>
<path d="M0 0 C0.99 0.33 1.98 0.66 3 1 C3.63019694 11.15317287 3.63019694 11.15317287 1 14.6875 C0.34 15.120625 -0.32 15.55375 -1 16 C-2.49697302 10.31150252 -1.3348044 5.58190932 0 0 Z " fill="#F9FCFA" transform="translate(37,80)"/>
<path d="M0 0 C-0.71285156 0.42410156 -1.42570312 0.84820312 -2.16015625 1.28515625 C-8.18388225 4.97397904 -13.29604816 8.7180882 -18 14 C-18.63671875 12.16015625 -18.63671875 12.16015625 -19 10 C-14.45848484 4.67993939 -7.40722174 -2.36264831 0 0 Z " fill="#72A1C1" transform="translate(72,35)"/>
<path d="M0 0 C0.33 0 0.66 0 1 0 C1.1875 3.375 1.1875 3.375 1 7 C0.01 7.66 -0.98 8.32 -2 9 C-2.2475 9.78375 -2.495 10.5675 -2.75 11.375 C-4.63714068 15.33799542 -7.03745043 16.19252125 -11 18 C-11.99 17.67 -12.98 17.34 -14 17 C-8.25 12 -8.25 12 -6 12 C-5.71382812 11.42765625 -5.42765625 10.8553125 -5.1328125 10.265625 C-3.421875 6.84375 -1.7109375 3.421875 0 0 Z " fill="#6D9FC6" transform="translate(165,148)"/>
<path d="M0 0 C0.33 0 0.66 0 1 0 C1.02187378 1.09671021 1.02187378 1.09671021 1.04418945 2.21557617 C1.1188291 5.54007371 1.21543801 8.86358467 1.3125 12.1875 C1.33505859 13.33798828 1.35761719 14.48847656 1.38085938 15.67382812 C1.41630859 16.78564453 1.45175781 17.89746094 1.48828125 19.04296875 C1.51446533 20.06414795 1.54064941 21.08532715 1.56762695 22.13745117 C2.26567892 26.75894148 4.5842946 29.90959988 8 33 C5.69 32.67 3.38 32.34 1 32 C-0.09828769 28.45811722 -0.11445011 25.1790238 -0.09765625 21.484375 C-0.09443359 20.23398438 -0.09121094 18.98359375 -0.08789062 17.6953125 C-0.07951172 16.39335938 -0.07113281 15.09140625 -0.0625 13.75 C-0.05798828 12.43257812 -0.05347656 11.11515625 -0.04882812 9.7578125 C-0.03704316 6.50516259 -0.02059011 3.25260416 0 0 Z " fill="#72A2C4" transform="translate(24,109)"/>
<path d="M0 0 C1 2 1 2 0.25 4.5 C-1 7 -1 7 -4 9 C-4.33 9.99 -4.66 10.98 -5 12 C-5.99 12.495 -5.99 12.495 -7 13 C-7.65555119 15.52733235 -7.65555119 15.52733235 -8 18 C-8.99 18 -9.98 18 -11 18 C-10.46809636 13.50745999 -8.76462153 10.89415476 -6.0625 7.3125 C-5.35222656 6.35988281 -4.64195313 5.40726562 -3.91015625 4.42578125 C-2 2 -2 2 0 0 Z " fill="#6A9EC0" transform="translate(54,62)"/>
<path d="M0 0 C7.61675319 0.98280686 14.50324152 5.12959069 21 9 C20.34 9.66 19.68 10.32 19 11 C17.35 10.34 15.7 9.68 14 9 C14 8.34 14 7.68 14 7 C12.989375 6.731875 11.97875 6.46375 10.9375 6.1875 C7.12672558 5.1064844 3.61124792 3.62137662 0 2 C0 1.34 0 0.68 0 0 Z " fill="#6EA0C4" transform="translate(117,46)"/>
<path d="M0 0 C5.19210472 3.80304814 10.15609762 7.76158542 15 12 C14.67 12.66 14.34 13.32 14 14 C13.28714844 13.45730469 12.57429688 12.91460937 11.83984375 12.35546875 C6.71860119 8.53004531 2.03924039 5.14728547 -4 3 C-2.68 2.01 -1.36 1.02 0 0 Z " fill="#729DB8" transform="translate(130,43)"/>
<path d="M0 0 C0.69738281 0.01804688 1.39476563 0.03609375 2.11328125 0.0546875 C3.82611539 0.10161446 5.53823824 0.17335395 7.25 0.25 C7.91 1.57 8.57 2.89 9.25 4.25 C8.26 3.59 7.27 2.93 6.25 2.25 C3.41596357 1.85657482 3.41596357 1.85657482 0.3125 1.875 C-0.72777344 1.84664062 -1.76804687 1.81828125 -2.83984375 1.7890625 C-6.43702564 2.35881748 -7.6205115 3.33487496 -9.75 6.25 C-9.57594075 9.61514555 -9.26178502 12.22642995 -7.75 15.25 C-9.07 14.92 -10.39 14.59 -11.75 14.25 C-11.85867302 12.66820385 -11.93589827 11.08422847 -12 9.5 C-12.04640625 8.61828125 -12.0928125 7.7365625 -12.140625 6.828125 C-11.75 4.25 -11.75 4.25 -10.21875 1.9375 C-6.85675437 -0.36057296 -3.91446481 -0.19239336 0 0 Z " fill="#7AA6C5" transform="translate(99.75,154.75)"/>
<path d="M0 0 C2.97 0.495 2.97 0.495 6 1 C5.67339615 7.20547318 4.49734349 11.51565461 0 16 C-0.99 16.33 -1.98 16.66 -3 17 C-2.58792015 14.11544106 -2.14283619 13.12985108 0.0625 11.125 C2.32926906 9.07641793 2.32926906 9.07641793 2.25 5.75 C2.1675 4.8425 2.085 3.935 2 3 C1.34 2.67 0.68 2.34 0 2 C0 1.34 0 0.68 0 0 Z " fill="#739BBC" transform="translate(153,141)"/>
<path d="M0 0 C3.26954202 0.56371414 4.82575883 1.49962266 7 4 C6.67 4.66 6.34 5.32 6 6 C5.34 5.67 4.68 5.34 4 5 C3.67 5.66 3.34 6.32 3 7 C-0.3 6.34 -3.6 5.68 -7 5 C-7 4.34 -7 3.68 -7 3 C-5.5459375 2.814375 -5.5459375 2.814375 -4.0625 2.625 C-2.5465625 2.315625 -2.5465625 2.315625 -1 2 C-0.67 1.34 -0.34 0.68 0 0 Z " fill="#E2F4F9" transform="translate(167,100)"/>
<path d="M0 0 C3.72927099 3.72927099 3.89024409 7.96811351 4 13 C3.81203684 15.39543754 3.45297248 17.63447706 3 20 C2.67 20 2.34 20 2 20 C1.92652344 18.82630859 1.92652344 18.82630859 1.8515625 17.62890625 C1.77679688 16.61699219 1.70203125 15.60507813 1.625 14.5625 C1.55539063 13.55316406 1.48578125 12.54382813 1.4140625 11.50390625 C1.27742188 10.67761719 1.14078125 9.85132812 1 9 C0.34 8.67 -0.32 8.34 -1 8 C-1.33 8.66 -1.66 9.32 -2 10 C-1.54177532 6.53058454 -1.10868317 3.32604951 0 0 Z " fill="#DFF1F8" transform="translate(38,72)"/>
<path d="M0 0 C0.66 0 1.32 0 2 0 C2.45375 0.763125 2.9075 1.52625 3.375 2.3125 C5.0170918 5.0282672 6.47789757 6.17364996 9 8 C9 8.66 9 9.32 9 10 C9.99 10.33 10.98 10.66 12 11 C12.33 11.99 12.66 12.98 13 14 C12.67 14.66 12.34 15.32 12 16 C8.39653605 14.79884535 7.97357619 13.82774754 6 10.6875 C4.50111898 8.32598173 3.03131182 6.04022699 1.3125 3.83203125 C0 2 0 2 0 0 Z " fill="#689CC1" transform="translate(146,46)"/>
<path d="M0 0 C0 0.66 0 1.32 0 2 C0.99 2 1.98 2 3 2 C2.67 2.99 2.34 3.98 2 5 C-1.63 5.33 -5.26 5.66 -9 6 C-9 5.01 -9 4.02 -9 3 C-3.375 0 -3.375 0 0 0 Z " fill="#FDFBF3" transform="translate(164,98)"/>
<path d="M0 0 C1.98 0 3.96 0 6 0 C6 9.57 6 19.14 6 29 C5.67 29 5.34 29 5 29 C4.67 20.09 4.34 11.18 4 2 C2.68 2 1.36 2 0 2 C0 1.34 0 0.68 0 0 Z " fill="#5E99C4" transform="translate(34,105)"/>
<path d="M0 0 C3.25 -0.3125 3.25 -0.3125 7 0 C9.1875 2.4375 9.1875 2.4375 11 5 C13.12946603 5.86965506 13.12946603 5.86965506 15 6 C15 6.99 15 7.98 15 9 C15.66 9.33 16.32 9.66 17 10 C13.31222427 10 12.42162385 8.73061076 9.76171875 6.37890625 C6.77087568 4.03795813 3.43398813 2.59858068 0 1 C0 0.67 0 0.34 0 0 Z " fill="#70A4C8" transform="translate(127,34)"/>
<path d="M0 0 C0.7425 0.0825 1.485 0.165 2.25 0.25 C2.25 1.57 2.25 2.89 2.25 4.25 C1.651875 4.394375 1.05375 4.53875 0.4375 4.6875 C-1.31150404 5.1372439 -3.03677023 5.67892341 -4.75 6.25 C-5.08 6.91 -5.41 7.57 -5.75 8.25 C-6.74 8.25 -7.73 8.25 -8.75 8.25 C-6.92599593 3.9939905 -4.88604345 0.44418577 0 0 Z " fill="#FAFBFA" transform="translate(72.75,35.75)"/>
<path d="M0 0 C2.65756465 0.43225449 5.32332885 0.69779519 8 1 C8 1.33 8 1.66 8 2 C4.89738494 2.25494218 1.79325198 2.47447008 -1.3125 2.6875 C-2.63411133 2.79674805 -2.63411133 2.79674805 -3.98242188 2.90820312 C-4.82998047 2.96298828 -5.67753906 3.01777344 -6.55078125 3.07421875 C-7.33106689 3.13182373 -8.11135254 3.18942871 -8.9152832 3.2487793 C-11.54586488 2.93485931 -12.35646785 2.01131557 -14 0 C-9.75481738 -1.41506087 -4.03909918 -2.01954959 0 0 Z " fill="#D0E6F2" transform="translate(96,42)"/>
<path d="M0 0 C1.24136719 0.49113281 1.24136719 0.49113281 2.5078125 0.9921875 C6.38220092 2.11029959 9.88832323 2.22543953 13.875 2.125 C14.56335938 2.11597656 15.25171875 2.10695312 15.9609375 2.09765625 C17.64077838 2.07432513 19.32043746 2.03846326 21 2 C21 2.66 21 3.32 21 4 C20.34 4 19.68 4 19 4 C18.67 4.66 18.34 5.32 18 6 C17.01 5.67 16.02 5.34 15 5 C12.23268058 4.73383035 9.46572899 4.55631192 6.69140625 4.37890625 C4.03881681 4.00546478 2.29602229 3.34070332 0 2 C0 1.34 0 0.68 0 0 Z M16 6 C18 7 18 7 18 7 Z " fill="#669BC5" transform="translate(88,169)"/>
<path d="M0 0 C2.64 0 5.28 0 8 0 C8 1.32 8 2.64 8 4 C5.36 4 2.72 4 0 4 C0 2.68 0 1.36 0 0 Z " fill="#70A9C5" transform="translate(96,162)"/>
<path d="M0 0 C3.65316671 1.24976756 4.78065836 1.67098753 7 5 C10.35503476 5.36558117 10.35503476 5.36558117 14.125 5.1875 C15.40632813 5.16042969 16.68765625 5.13335937 18.0078125 5.10546875 C18.99523437 5.07066406 19.98265625 5.03585938 21 5 C21 5.66 21 6.32 21 7 C18.60293877 7.10854617 16.21084162 7.18753157 13.8125 7.25 C13.13896484 7.28351563 12.46542969 7.31703125 11.77148438 7.3515625 C8.15222309 7.42218223 6.16889649 7.10553212 3.07421875 5.171875 C1 3 1 3 0 0 Z " fill="#D4F1FA" transform="translate(26,135)"/>
<path d="M0 0 C3.95901486 5.93852229 4.24710558 12.08104381 4 19 C1.16433826 17.02736575 0.96072452 15.78934062 0.3125 12.3125 C-0.06888118 8.20121085 -0.07367834 4.12598696 0 0 Z " fill="#CFEAF6" transform="translate(162,75)"/>
<path d="M0 0 C0.5775 0.515625 1.155 1.03125 1.75 1.5625 C1.75 2.2225 1.75 2.8825 1.75 3.5625 C1.08613281 3.35753906 0.42226562 3.15257812 -0.26171875 2.94140625 C-1.14472656 2.67199219 -2.02773437 2.40257812 -2.9375 2.125 C-3.80761719 1.85816406 -4.67773438 1.59132813 -5.57421875 1.31640625 C-8.12025921 0.59905471 -10.6503423 0.044959 -13.25 -0.4375 C-13.25 -0.7675 -13.25 -1.0975 -13.25 -1.4375 C-4.59473684 -2.93552632 -4.59473684 -2.93552632 0 0 Z " fill="#73A3C8" transform="translate(125.25,30.4375)"/>
<path d="M0 0 C3.37503669 1.1858237 5.64722731 2.27573689 8 5 C7.67 5.66 7.34 6.32 7 7 C3.54074837 5.7508258 0.85306797 4.32472205 -2 2 C-1.34 2 -0.68 2 0 2 C0 1.34 0 0.68 0 0 Z " fill="#D3EFF7" transform="translate(131,48)"/>
<path d="M0 0 C0.99 0.33 1.98 0.66 3 1 C-0.32850747 4.59478807 -3.98971331 7.22364768 -8 10 C-8 7 -8 7 -6.35546875 5.140625 C-5.64003906 4.51671875 -4.92460938 3.8928125 -4.1875 3.25 C-3.47980469 2.61578125 -2.77210937 1.9815625 -2.04296875 1.328125 C-1.36878906 0.88984375 -0.69460937 0.4515625 0 0 Z " fill="#839FB2" transform="translate(65,46)"/>
<path d="M0 0 C3.3 0 6.6 0 10 0 C9.01 1.485 9.01 1.485 8 3 C6.0546875 3.29296875 6.0546875 3.29296875 3.875 3.1875 C2.59625 3.125625 1.3175 3.06375 0 3 C0 2.01 0 1.02 0 0 Z " fill="#FDF9F0" transform="translate(96,167)"/>
<path d="M0 0 C1.91595968 -0.08133791 3.83291932 -0.13934367 5.75 -0.1875 C7.35101563 -0.23970703 7.35101563 -0.23970703 8.984375 -0.29296875 C12.30027855 0.02917214 13.59016673 0.77148914 16 3 C15.67 3.66 15.34 4.32 15 5 C13.68 5 12.36 5 11 5 C10.34 4.01 9.68 3.02 9 2 C6.80545319 1.42006301 6.80545319 1.42006301 4.375 1.3125 C3.55773437 1.24675781 2.74046875 1.18101562 1.8984375 1.11328125 C1.27195312 1.07589844 0.64546875 1.03851563 0 1 C0 0.67 0 0.34 0 0 Z " fill="#E0F7FC" transform="translate(94,156)"/>
<path d="M0 0 C0.99 0.33 1.98 0.66 3 1 C0.72228105 3.80844958 -0.36197888 4.91735478 -4.015625 5.390625 C-5.61664063 5.32101563 -5.61664063 5.32101563 -7.25 5.25 C-8.32765625 5.21390625 -9.4053125 5.1778125 -10.515625 5.140625 C-11.33546875 5.09421875 -12.1553125 5.0478125 -13 5 C-13 4.67 -13 4.34 -13 4 C-9.7 4 -6.4 4 -3 4 C-2.67 3.01 -2.34 2.02 -2 1 C-1.34 0.67 -0.68 0.34 0 0 Z " fill="#DBF2FC" transform="translate(107,167)"/>
<path d="M0 0 C-1.39332574 3.36720387 -2.9789286 4.9859524 -6 7 C-6.33 5.35 -6.66 3.7 -7 2 C-4.35261084 0.5393715 -3.10551666 0 0 0 Z " fill="#E0F0F4" transform="translate(60,55)"/>
<path d="M0 0 C0.66 0.33 1.32 0.66 2 1 C1.01 1.33 0.02 1.66 -1 2 C-1.33 5.63 -1.66 9.26 -2 13 C-2.33 13 -2.66 13 -3 13 C-3.5745952 9.26513121 -4 5.78706732 -4 2 C-2.125 0.9375 -2.125 0.9375 0 0 Z " fill="#609CCD" transform="translate(90,155)"/>
<path d="M0 0 C0.33 0.66 0.66 1.32 1 2 C-0.57533086 2.86883706 -2.16064509 3.71959068 -3.75 4.5625 C-4.63171875 5.03816406 -5.5134375 5.51382813 -6.421875 6.00390625 C-9.20701188 7.07998186 -10.26980214 7.06528748 -13 6 C-11.58671871 5.18162558 -10.16921654 4.37053781 -8.75 3.5625 C-7.56664063 2.88380859 -7.56664063 2.88380859 -6.359375 2.19140625 C-4.21166532 1.10688398 -2.34794939 0.46851284 0 0 Z " fill="#70A2C4" transform="translate(78,47)"/>
<path d="M0 0 C0.97533063 2.63339271 1.019574 3.92348347 0.3125 6.6875 C-1 9 -1 9 -2.9375 9.9375 C-5 10 -5 10 -8 8 C-6.576875 7.4121875 -6.576875 7.4121875 -5.125 6.8125 C-1.65872662 4.80206144 -1.0197307 3.77300358 0 0 Z " fill="#78ABCE" transform="translate(174,133)"/>
<path d="M0 0 C0.66 0.33 1.32 0.66 2 1 C2 1.99 2 2.98 2 4 C1.01 4.495 1.01 4.495 0 5 C-0.65555119 7.52733235 -0.65555119 7.52733235 -1 10 C-1.99 10 -2.98 10 -4 10 C-3.43454163 6.04179141 -2.19097652 3.3340947 0 0 Z " fill="#73A3C5" transform="translate(47,70)"/>
<path d="M0 0 C1.48828125 1.11328125 1.48828125 1.11328125 3 3 C3.29296875 5.91796875 3.29296875 5.91796875 3.1875 9.1875 C3.16042969 10.27417969 3.13335937 11.36085938 3.10546875 12.48046875 C3.07066406 13.31191406 3.03585938 14.14335938 3 15 C2.67 15 2.34 15 2 15 C1.66048381 13.43883181 1.32867456 11.87598662 1 10.3125 C0.814375 9.44238281 0.62875 8.57226562 0.4375 7.67578125 C0.01027953 5.06287036 -0.07616201 2.64186962 0 0 Z " fill="#D3EEF8" transform="translate(157,77)"/>
<path d="M0 0 C0 0.66 0 1.32 0 2 C-0.99 2.495 -0.99 2.495 -2 3 C-3.05352843 5.30965848 -4.05719096 7.6429774 -5 10 C-6 7 -6 7 -6 3 C-3.97652323 0.30203097 -3.48244715 0 0 0 Z " fill="#619ECC" transform="translate(56,42)"/>
<path d="M0 0 C0.33 0 0.66 0 1 0 C1 2.64 1 5.28 1 8 C2.65 8.33 4.3 8.66 6 9 C6 9.66 6 10.32 6 11 C4.33388095 11.042721 2.66617115 11.04063832 1 11 C0 10 0 10 -0.09765625 7.71484375 C-0.08605469 6.79832031 -0.07445312 5.88179687 -0.0625 4.9375 C-0.05347656 4.01839844 -0.04445312 3.09929687 -0.03515625 2.15234375 C-0.02355469 1.44207031 -0.01195312 0.73179687 0 0 Z " fill="#E2F8FE" transform="translate(153,131)"/>
<path d="M0 0 C0.2475 0.598125 0.495 1.19625 0.75 1.8125 C2.16370012 4.28647521 3.65055383 5.43370255 6 7 C5.67 7.99 5.34 8.98 5 10 C2.5 8.9375 2.5 8.9375 0 7 C-0.3125 3.3125 -0.3125 3.3125 0 0 Z " fill="#80A9C5" transform="translate(166,92)"/>
<path d="M0 0 C2.97 0.495 2.97 0.495 6 1 C6 2.65 6 4.3 6 6 C5.01 6.33 4.02 6.66 3 7 C2.87625 6.360625 2.7525 5.72125 2.625 5.0625 C2.315625 4.0415625 2.315625 4.0415625 2 3 C1.34 2.67 0.68 2.34 0 2 C0 1.34 0 0.68 0 0 Z " fill="#6C9FC5" transform="translate(153,141)"/>
<path d="M0 0 C0.99 0.33 1.98 0.66 3 1 C3.3721042 2.32303717 3.70630173 3.65737935 4 5 C4.66 5.33 5.32 5.66 6 6 C5.67 6.99 5.34 7.98 5 9 C4.34 9 3.68 9 3 9 C0 3.375 0 3.375 0 0 Z " fill="#689DC9" transform="translate(158,63)"/>
<path d="M0 0 C1.32 0.66 2.64 1.32 4 2 C2.824375 2.61875 2.824375 2.61875 1.625 3.25 C-1.05891656 5.0392777 -1.88098949 6.04988139 -3 9 C-2.25 2.25 -2.25 2.25 0 0 Z " fill="#D9EEF7" transform="translate(92,157)"/>
<path d="M0 0 C1.4540625 0.0309375 1.4540625 0.0309375 2.9375 0.0625 C2.9375 0.7225 2.9375 1.3825 2.9375 2.0625 C1.2875 2.3925 -0.3625 2.7225 -2.0625 3.0625 C-2.3925 4.0525 -2.7225 5.0425 -3.0625 6.0625 C-3.44468767 4.40635343 -3.77645102 2.73792976 -4.0625 1.0625 C-3.0625 0.0625 -3.0625 0.0625 0 0 Z " fill="#DAF0F9" transform="translate(157.0625,97.9375)"/>
<path d="M0 0 C0.66 1.32 1.32 2.64 2 4 C1.34 4 0.68 4 0 4 C0.33 5.98 0.66 7.96 1 10 C-1.09749995 7.64031256 -1.96905704 6.45383006 -2.1875 3.25 C-2.125625 2.5075 -2.06375 1.765 -2 1 C-1.34 0.67 -0.68 0.34 0 0 Z " fill="#ECF2F1" transform="translate(160,70)"/>
<path d="M0 0 C5.53846154 0.49230769 5.53846154 0.49230769 7.875 3.0625 C8.431875 4.0215625 8.431875 4.0215625 9 5 C8.01 5.495 8.01 5.495 7 6 C5.83054208 5.19152271 4.66449539 4.37810888 3.5 3.5625 C2.8503125 3.11003906 2.200625 2.65757813 1.53125 2.19140625 C1.0259375 1.79824219 0.520625 1.40507813 0 1 C0 0.67 0 0.34 0 0 Z " fill="#DFF4F7" transform="translate(133,45)"/>
<path d="M0 0 C2.9375 0.375 2.9375 0.375 6 1 C6.33 1.66 6.66 2.32 7 3 C4.69 3.33 2.38 3.66 0 4 C0 2.68 0 1.36 0 0 Z " fill="#679BC0" transform="translate(123,41)"/>
<path d="M0 0 C4.31392226 0.4793247 6.16569547 1.7457985 9 5 C8.67 5.66 8.34 6.32 8 7 C6.66382648 6.02471263 5.3311249 5.04466681 4 4.0625 C3.2575 3.51722656 2.515 2.97195312 1.75 2.41015625 C1.1725 1.94480469 0.595 1.47945312 0 1 C0 0.67 0 0.34 0 0 Z " fill="#9AAEB6" transform="translate(136,50)"/>
<path d="M0 0 C0.66 0.33 1.32 0.66 2 1 C-0.97 3.475 -0.97 3.475 -4 6 C-4 5.01 -4 4.02 -4 3 C-2 1.3125 -2 1.3125 0 0 Z M-7 5 C-6.34 5.33 -5.68 5.66 -5 6 C-6.98 6.99 -6.98 6.99 -9 8 C-8.34 7.01 -7.68 6.02 -7 5 Z " fill="#DCF1F8" transform="translate(68,36)"/>
<path d="M0 0 C2.875 -0.125 2.875 -0.125 6 0 C6.66 0.66 7.32 1.32 8 2 C5.36 2.33 2.72 2.66 0 3 C0 2.01 0 1.02 0 0 Z " fill="#4E9FDE" transform="translate(112,24)"/>
<path d="M0 0 C1.32 0 2.64 0 4 0 C4 0.99 4 1.98 4 3 C4.66 3.33 5.32 3.66 6 4 C4.35 4.33 2.7 4.66 1 5 C0.67 3.35 0.34 1.7 0 0 Z " fill="#F0F6F4" transform="translate(28,132)"/>
<path d="M0 0 C0.66 0.33 1.32 0.66 2 1 C1.67 2.98 1.34 4.96 1 7 C-0.32 6.34 -1.64 5.68 -3 5 C-1.125 1.125 -1.125 1.125 0 0 Z " fill="#D8EBF2" transform="translate(30,99)"/>
<path d="M0 0 C1.32 0.33 2.64 0.66 4 1 C4.66 3.31 5.32 5.62 6 8 C1.125 3.375 1.125 3.375 0 0 Z " fill="#D8EFF8" transform="translate(148,64)"/>
<path d="M0 0 C0.99 0.33 1.98 0.66 3 1 C1.35 2.98 -0.3 4.96 -2 7 C-2.6875 5.1875 -2.6875 5.1875 -3 3 C-1.5625 1.25 -1.5625 1.25 0 0 Z " fill="#D9F3FB" transform="translate(51,62)"/>
<path d="M0 0 C1.32 0.33 2.64 0.66 4 1 C3.34 2.98 2.68 4.96 2 7 C0 5 0 5 -0.125 2.375 C-0.08375 1.59125 -0.0425 0.8075 0 0 Z " fill="#6499BF" transform="translate(166,142)"/>
<path d="M0 0 C0.99 0.33 1.98 0.66 3 1 C1.37660195 2.70884005 -0.29319053 4.37446717 -2 6 C-2.66 6 -3.32 6 -4 6 C-4 4 -4 4 -2 1.875 C-1.34 1.25625 -0.68 0.6375 0 0 Z " fill="#DCF6FD" transform="translate(171,135)"/>
<path d="M0 0 C0.66 0 1.32 0 2 0 C2 1.65 2 3.3 2 5 C0.68 5 -0.64 5 -2 5 C-1.125 1.125 -1.125 1.125 0 0 Z " fill="#50A0E1" transform="translate(36,128)"/>
<path d="M0 0 C1.98 0 3.96 0 6 0 C6 0.99 6 1.98 6 3 C3.03 2.505 3.03 2.505 0 2 C0 1.34 0 0.68 0 0 Z " fill="#D2EEF7" transform="translate(40,98)"/>
<path d="M0 0 C-1.65 1.32 -3.3 2.64 -5 4 C-5.66 3.67 -6.32 3.34 -7 3 C-7 2.34 -7 1.68 -7 1 C-3.375 -1.125 -3.375 -1.125 0 0 Z " fill="#E0F1F4" transform="translate(63,49)"/>
</svg>
