<svg id="Layer_1" data-name="Layer 1" xmlns="http://www.w3.org/2000/svg" viewBox="0 0 512 324"><path d="M517,372c-2.44,4.48-6.37,5.85-11.26,5.74-7.45-.16-14.91,0-22.74,0-.8,16.95-7.26,30.68-20.53,40.8A49.61,49.61,0,0,1,430.88,429C409.55,428.7,382.93,412,380.79,378h-180c-.67,17.15-7.57,31-21.32,41.15A49.21,49.21,0,0,1,148.14,429c-21.13-.64-47.26-17-49.57-51.29H71.78c-5,0-10,.15-15-.05-11.07-.42-17.45-7.05-17.63-18.15-.08-5.15,0-10.3,0-16.12-7.82,0-15.28-.16-22.73.06C11.55,343.54,7.6,342.32,5,338v-5c2.46-4.47,6.4-5.76,11.27-5.74,23.5.09,47,0,70.49,0a23.27,23.27,0,0,1,4,.29c4.52.83,7.39,4.16,7.17,8.19A7.72,7.72,0,0,1,90,343.17c-9.49.26-19,.14-28.49.17h-6.1V361.6h7.52c11.5,0,23-.08,34.49.06,3,0,4.66-.67,6.06-3.67,9.13-19.71,24.87-30.49,46.44-30.43s37.17,10.83,46.5,30.51a6.89,6.89,0,0,0,5,3.39q79.74.26,159.48.13c.81,0,1.63-.12,2.92-.23.09-1.9.25-3.65.25-5.41V305a25,25,0,0,1,.43-5.45c.93-4.14,3.86-6.42,7.92-6.22,4.25.22,7.22,2.76,7.5,7.26s.15,9,.15,13.49c0,14.51,0,29,.08,43.5,0,1.34,1.1,2.66,1.68,4,1.14-1,2.73-1.72,3.34-3,11-22.23,28.46-32.9,52.66-30.56,18.69,1.8,32,12.16,40.06,29.07,1.57,3.3,3.16,4.89,7,4.62,5.11-.36,10.27-.09,15.74-.09V326c-3.55,0-7.16.18-10.74,0A24.49,24.49,0,0,1,467,303c-.32-5.82-.23-11.67-.16-17.5.09-6.51,3-9.4,9.53-9.51,7.46-.11,14.92,0,22.45,0-1.77-10.14-12.23-18-24.19-18-20.33-.15-40.66-.05-61-.06H380.09c0,3.18.12,6,0,8.72-.26,4.9-3.32,8.13-7.67,8.28-4.13.14-7.63-3.13-8.19-7.83a41.69,41.69,0,0,1-.11-5V121.32H55.18v144.8c-.25,5.25-3.25,8.64-7.71,8.77s-7.74-3.31-8.23-8.36c-.13-1.32-.06-2.66-.06-4v-137c0-14.55,6-20.55,20.67-20.55h300c14.35,0,20.3,6,20.32,20.34v13.53c2,.11,3.74.28,5.49.29,17.5,0,35-.06,52.49,0,18,.1,31.21,9.65,35,26.09a56.13,56.13,0,0,1,.69,17.35c-.24,2.62-3.1,5-5.4,8.42,3.81,15.29,7.9,31.91,12.18,48.49a5.18,5.18,0,0,0,3,3.3c18.35,4.71,29.15,16.42,33,34.82A8,8,0,0,0,517,279ZM464.13,241.63c-.25-1.54-.35-2.69-.63-3.8-3.6-14.52-7.37-29-10.75-43.59-.9-3.86-2.57-4.93-6.41-4.89-20.32.19-40.65.08-61,.1-1.6,0-3.2.2-4.93.32v51.86ZM148.8,343.54c-19.48,1.06-34.65,17.11-33.65,35.63,1,19.34,17.3,34.65,35.75,33.65,19.41-1,34.53-17.17,33.52-35.74C183.36,357.55,167.41,342.53,148.8,343.54Zm284.84.07c-18.73-1.38-34.82,13.43-36.28,33.4-1.35,18,13.74,34.23,33.06,35.77,18.47,1.47,34.92-13.73,36.29-33.54C468,361.21,453,345,433.64,343.61Zm24.21-170.48c-.06-10.93-7.4-17.85-18.9-17.93-18.3-.14-36.6,0-54.91,0-1.12,0-2.24.17-3.58.28v17.68Zm42.72,136.55V292H483.46C481.08,307.24,485.55,311.73,500.57,309.68Z" transform="translate(-5.01 -104.98)"/><path d="M201.16,255.59c23-23.06,45.54-45.57,68.06-68.05a30.8,30.8,0,0,1,4.87-4.25c3.41-2.2,6.83-1.59,9.58,1.17a7.22,7.22,0,0,1,1.12,9.59,21.55,21.55,0,0,1-3.21,3.79q-36.21,36.25-72.47,72.47c-6.24,6.24-9.69,6.23-16,0Q174,251.21,155,232.08a20.75,20.75,0,0,1-3.19-3.8c-2-3.4-1.7-6.82,1-9.61a7.19,7.19,0,0,1,9.57-1.18,27.9,27.9,0,0,1,4.52,3.88C178.23,232.64,189.51,244,201.16,255.59Z" transform="translate(-5.01 -104.98)"/><path d="M277.93,343.34H222.52a32.52,32.52,0,0,1-6-.37c-4-.73-6.07-3.62-6.18-7.39s1.83-6.76,5.81-7.68a26.87,26.87,0,0,1,5.93-.58H335.4c6.66.15,10.53,3.15,10.49,8.12s-3.79,7.89-10.59,7.91Q306.65,343.38,277.93,343.34Z" transform="translate(-5.01 -104.98)"/><path d="M81.53,309.08c-16.82,0-33.65.21-50.46-.21a11,11,0,0,1-7.81-4.67c-1.13-1.87-.42-6.29,1.17-8,1.84-2,5.52-3,8.44-3,14-.29,28-.13,42-.13h54a29.15,29.15,0,0,1,4.48.17c4.47.7,7.5,4.08,7.42,8.06-.09,4.31-3.35,7.53-8.21,7.71s-10,.08-15,.08Z" transform="translate(-5.01 -104.98)"/><path d="M166.26,377.91a16.47,16.47,0,0,1-16.15,16.78h-.05a16.81,16.81,0,0,1-16.79-16.33,16.52,16.52,0,0,1,16.34-16.66,16.29,16.29,0,0,1,16.65,15.91Z" transform="translate(-5.01 -104.98)"/><path d="M415.57,378.16a16.5,16.5,0,0,1,33,0h0a16.5,16.5,0,0,1-33,0Z" transform="translate(-5.01 -104.98)"/></svg>