<?xml version="1.0" standalone="no"?>
<!DOCTYPE svg PUBLIC "-//W3C//DTD SVG 20010904//EN"
 "http://www.w3.org/TR/2001/REC-SVG-20010904/DTD/svg10.dtd">
<svg version="1.0" xmlns="http://www.w3.org/2000/svg"
 width="50.000000pt" height="50.000000pt" viewBox="0 0 50.000000 50.000000"
 preserveAspectRatio="xMidYMid meet">

<g transform="translate(0.000000,50.000000) scale(0.100000,-0.100000)"
fill="#000000" stroke="none">
<path d="M90 345 c0 -19 5 -35 10 -35 6 0 10 11 10 25 0 25 0 25 95 25 l95 0
0 -94 0 -95 -42 -4 c-34 -3 -30 -4 20 -5 45 -2 62 -6 62 -16 0 -21 27 -38 50
-31 13 4 20 15 20 31 0 28 -25 42 -49 27 -33 -20 -41 -4 -41 78 0 78 0 79 26
79 14 0 39 -10 56 -21 28 -21 29 -24 26 -85 -2 -46 0 -64 10 -64 8 0 12 19 12
63 0 56 -3 66 -28 90 -20 19 -39 27 -64 27 -27 0 -37 5 -41 20 -5 18 -14 20
-116 20 l-111 0 0 -35z m304 -206 c-8 -14 -34 -11 -34 4 0 8 3 17 7 20 9 9 34
-13 27 -24z"/>
<path d="M334 296 c-3 -8 -4 -27 -2 -43 3 -24 8 -28 41 -31 36 -3 37 -3 37 32
0 25 -6 38 -19 46 -27 14 -51 13 -57 -4z m54 -18 c20 -20 14 -38 -13 -38 -20
0 -25 5 -25 25 0 27 18 33 38 13z"/>
<path d="M90 290 c0 -5 22 -10 49 -10 28 0 53 5 56 10 4 6 -15 10 -49 10 -31
0 -56 -4 -56 -10z"/>
<path d="M98 253 c18 -2 45 -2 60 0 15 2 0 4 -33 4 -33 0 -45 -2 -27 -4z"/>
<path d="M78 213 c18 -2 45 -2 60 0 15 2 0 4 -33 4 -33 0 -45 -2 -27 -4z"/>
<path d="M90 180 c0 -14 6 -20 23 -19 12 0 16 3 10 6 -7 2 -13 11 -13 19 0 8
-4 14 -10 14 -5 0 -10 -9 -10 -20z"/>
<path d="M150 165 c-18 -22 -1 -50 31 -50 20 0 24 5 24 30 0 23 -5 31 -21 33
-11 2 -27 -4 -34 -13z m50 -16 c0 -12 -29 -24 -37 -16 -3 4 -3 13 0 21 6 16
37 11 37 -5z"/>
</g>
</svg>
