<?xml version="1.0" encoding="UTF-8"?>
<svg version="1.1" xmlns="http://www.w3.org/2000/svg" width="130" height="130">
<path d="M0 0 C42.9 0 85.8 0 130 0 C130 42.9 130 85.8 130 130 C87.1 130 44.2 130 0 130 C0 87.1 0 44.2 0 0 Z " fill="#FBFDFE" transform="translate(0,0)"/>
<path d="M0 0 C42.9 0 85.8 0 130 0 C130 42.9 130 85.8 130 130 C87.1 130 44.2 130 0 130 C0 87.1 0 44.2 0 0 Z M76.1875 15.125 C74.95710339 15.85428839 73.72662815 16.58344412 72.49609375 17.3125 C71.79983887 17.73015625 71.10358398 18.1478125 70.38623047 18.578125 C67.63464734 20.21770144 64.86741748 21.8288248 62.09765625 23.4375 C57.97447673 25.83238355 53.85205875 28.22848873 49.734375 30.6328125 C48.77362061 31.19073486 47.81286621 31.74865723 46.82299805 32.32348633 C44.95622971 33.43211715 43.10786908 34.57240863 41.28051758 35.74487305 C36.43920379 38.8295272 33.09731436 40.6863802 27.1875 40.5625 C21.9080425 40.62262015 21.9080425 40.62262015 17.75 43.5 C17.1725 44.325 16.595 45.15 16 46 C15.505 46.495 15.505 46.495 15 47 C14.8796917 48.96180307 14.82976416 50.9279523 14.80712891 52.89331055 C14.79106598 54.15519699 14.77500305 55.41708344 14.75845337 56.71720886 C14.74696433 58.10703866 14.73635606 59.49687597 14.7265625 60.88671875 C14.72123882 61.58439676 14.71591515 62.28207478 14.71043015 63.00089455 C14.6836724 66.6971184 14.66431024 70.39330826 14.64990234 74.08959961 C14.63329141 77.90191023 14.58855301 81.71335008 14.5375309 85.52533245 C14.50380376 88.46024013 14.49231879 91.39494313 14.48667526 94.33002663 C14.47997249 95.73463368 14.46477542 97.13922772 14.44078445 98.54364586 C13.98135373 107.22364333 13.98135373 107.22364333 17.40771484 114.84692383 C21.61609617 118.34228217 24.74599025 118.15363774 30.02636719 118.16113281 C31.27055923 118.16858017 31.27055923 118.16858017 32.53988647 118.17617798 C35.29222435 118.19081824 38.04450454 118.1976055 40.796875 118.203125 C42.70778404 118.20887592 44.61869305 118.21463366 46.52960205 118.22039795 C50.54122182 118.23091393 54.55282151 118.23675235 58.56445312 118.24023438 C63.70035621 118.24571343 68.83599341 118.26972636 73.9718132 118.29820633 C77.92153695 118.31684985 81.87119697 118.32203927 85.820961 118.32357025 C87.71395569 118.32659458 89.60694932 118.33461572 91.49990082 118.34775543 C94.15215621 118.36484802 96.80376626 118.36292763 99.45605469 118.35644531 C100.23550446 118.3656601 101.01495422 118.37487488 101.81802368 118.3843689 C106.62028245 118.34768106 109.92929569 117.56757316 114 115 C116.79749178 110.69186265 116.22676605 105.64663787 116.125 100.6875 C116.11597656 99.85154297 116.10695313 99.01558594 116.09765625 98.15429688 C116.07420989 96.10274031 116.03834266 94.05133223 116 92 C116.639375 91.71125 117.27875 91.4225 117.9375 91.125 C120.15206079 90.17176549 120.15206079 90.17176549 121 88 C121.2893113 84.88182281 121.27777304 81.75505705 121.3125 78.625 C121.34150391 77.76132813 121.37050781 76.89765625 121.40039062 76.0078125 C121.63024398 70.98385898 121.63024398 70.98385898 119.02734375 66.9765625 C118.35832031 66.32429688 117.68929687 65.67203125 117 65 C116.3450007 61.93122802 116.30379698 58.88000591 116.25 55.75 C116.22035156 54.90953125 116.19070312 54.0690625 116.16015625 53.203125 C116.08968364 51.1359285 116.04255061 49.06795967 116 47 C115.34 47 114.68 47 114 47 C113.01 45.02 113.01 45.02 112 43 C111.34 43 110.68 43 110 43 C110 42.34 110 41.68 110 41 C108.515 40.505 108.515 40.505 107 40 C105.36181641 37.53149414 105.36181641 37.53149414 103.6015625 34.28515625 C102.95079509 33.11247797 102.29974452 31.93995679 101.6484375 30.76757812 C100.63411581 28.91592553 99.62465147 27.06185489 98.62109375 25.2043457 C97.6480044 23.41152397 96.65716117 21.62945116 95.6640625 19.84765625 C95.08092285 18.77523682 94.4977832 17.70281738 93.89697266 16.59790039 C91.76338195 13.67595203 90.44575709 12.93041341 87 12 C82.49464714 11.4107832 80.02235641 12.81926243 76.1875 15.125 Z " fill="#FEFEFE" transform="translate(0,0)"/>
<path d="M0 0 C3.21688997 2.75157805 5.13112431 5.67983324 7.12890625 9.38671875 C7.68900391 10.40701172 8.24910156 11.42730469 8.82617188 12.47851562 C9.98951387 14.62853914 11.15095443 16.77959252 12.31054688 18.93164062 C12.86935547 19.94806641 13.42816406 20.96449219 14.00390625 22.01171875 C14.50736572 22.94459717 15.0108252 23.87747559 15.52954102 24.83862305 C16.88312902 27.29798277 16.88312902 27.29798277 20 28 C20 28.66 20 29.32 20 30 C21.32 30.66 22.64 31.32 24 32 C24 32.66 24 33.32 24 34 C24.66 34 25.32 34 26 34 C26.02578125 35.25296875 26.0515625 36.5059375 26.078125 37.796875 C26.13441169 39.44795123 26.1917589 41.09899155 26.25 42.75 C26.26417969 43.575 26.27835937 44.4 26.29296875 45.25 C26.33384784 50.14628416 26.33384784 50.14628416 29.01953125 53.984375 C31.8022681 56.81650955 31.49503826 59.05311746 31.49804688 62.91015625 C31.47806641 63.76480469 31.45808594 64.61945313 31.4375 65.5 C31.44458984 66.35464844 31.45167969 67.20929688 31.45898438 68.08984375 C31.42157862 71.77862637 31.37182729 74.31227487 29.59765625 77.59375 C28 79 28 79 26 79 C26.05220703 80.84464844 26.05220703 80.84464844 26.10546875 82.7265625 C26.13362045 84.35936127 26.16091913 85.9921749 26.1875 87.625 C26.21263672 88.43324219 26.23777344 89.24148437 26.26367188 90.07421875 C26.32496742 95.1004536 26.01027742 98.75557414 23 103 C18.69931178 105.3453189 14.41243206 105.30230678 9.63305664 105.30639648 C8.8031572 105.31472 7.97325775 105.32304352 7.11820984 105.33161926 C4.38214391 105.35566224 1.64631652 105.3644835 -1.08984375 105.37109375 C-2.99646576 105.380063 -4.90308706 105.3891849 -6.80970764 105.39845276 C-10.80341298 105.41492879 -14.7970346 105.4226406 -18.79077148 105.42553711 C-23.90326793 105.43092564 -29.01497605 105.46863105 -34.12724972 105.51428127 C-38.06412114 105.54404753 -42.00080239 105.55126054 -45.93777657 105.55226326 C-47.82242005 105.55646486 -49.70706414 105.56889675 -51.5915966 105.58978081 C-54.22953985 105.61669233 -56.86565086 105.61187159 -59.50366211 105.59936523 C-60.27839874 105.61419952 -61.05313538 105.62903381 -61.85134888 105.64431763 C-67.53845324 105.56769076 -70.02032212 104.06780972 -74 100 C-75.37052737 97.25894525 -75.14997252 95.04544722 -75.17700195 91.97729492 C-75.18983719 90.71225632 -75.20267242 89.44721771 -75.21589661 88.1438446 C-75.22406422 86.75605663 -75.23150791 85.36826423 -75.23828125 83.98046875 C-75.24235678 83.28245966 -75.2464323 82.58445057 -75.25063133 81.86528969 C-75.27149222 78.1702059 -75.28579334 74.47515924 -75.29516602 70.7800293 C-75.30622572 66.96666395 -75.34061953 63.15388291 -75.38033772 59.34072399 C-75.40650691 56.40585763 -75.4148581 53.47113037 -75.41844749 50.53615761 C-75.4233134 49.13075124 -75.43492771 47.72535109 -75.45348549 46.32005882 C-75.47787651 44.3504788 -75.47449215 42.38061453 -75.4699707 40.41088867 C-75.47583694 39.29107101 -75.48170319 38.17125336 -75.48774719 37.01750183 C-74.88969191 33.31756684 -73.58268294 31.66425976 -71 29 C-68.31041154 27.65520577 -66.0885229 27.89478315 -63.08203125 27.82421875 C-55.66867747 27.28982211 -50.8575461 24.77013481 -44.6875 20.8125 C-43.67494141 20.19624756 -42.66238281 19.57999512 -41.61914062 18.94506836 C-38.39889999 16.98499737 -35.19873501 14.99494103 -32 13 C-27.68364855 10.3251498 -23.34783868 7.68577132 -19 5.0625 C-18.01604248 4.44157471 -17.03208496 3.82064941 -16.01831055 3.1809082 C-10.17308322 -0.34639284 -6.67423585 -2.11497167 0 0 Z M-70 35 C-70.30728654 37.68979223 -70.30728654 37.68979223 -70.25878906 40.87084961 C-70.26509338 42.10230209 -70.27139771 43.33375458 -70.27789307 44.6025238 C-70.27431299 45.95246523 -70.27021095 47.30240536 -70.265625 48.65234375 C-70.26697189 50.03235442 -70.26891261 51.41236462 -70.27142334 52.79237366 C-70.2743745 55.68674226 -70.27007797 58.58098752 -70.26074219 61.4753418 C-70.2493582 65.18560853 -70.25590029 68.89558558 -70.26788712 72.60584164 C-70.2751151 75.45657024 -70.27281331 78.30723022 -70.26763153 81.15796089 C-70.26629707 82.52590532 -70.26793563 83.89385598 -70.27259064 85.26179314 C-70.27766978 87.17444617 -70.26855564 89.08712102 -70.25878906 90.99975586 C-70.25719788 92.08848495 -70.25560669 93.17721405 -70.25396729 94.29893494 C-70.19456114 97.22206399 -70.19456114 97.22206399 -68 100 C-65.2353343 100.30219146 -62.69360511 100.40939717 -59.92602539 100.38818359 C-59.09174515 100.39344055 -58.2574649 100.39869751 -57.39790344 100.40411377 C-54.63096575 100.41735316 -51.86460013 100.40856111 -49.09765625 100.3984375 C-47.17955922 100.4004573 -45.26146293 100.40336794 -43.34336853 100.40713501 C-39.31908879 100.41156386 -35.29500854 100.40511002 -31.27075195 100.39111328 C-26.10760371 100.37403259 -20.94492364 100.38385198 -15.78179264 100.40183067 C-11.81929487 100.4126632 -7.85690836 100.40922441 -3.89440727 100.4014473 C-1.99057396 100.39944322 -0.08673061 100.40191181 1.81709099 100.40888596 C4.4772103 100.41649044 7.13656835 100.40491002 9.79663086 100.38818359 C10.98198425 100.39729263 10.98198425 100.39729263 12.19128418 100.40658569 C16.31122781 100.37038939 16.31122781 100.37038939 19.99440002 98.71279907 C21.77877017 95.67355126 21.30385537 92.22857419 21.1875 88.8125 C21.17396484 88.06291016 21.16042969 87.31332031 21.14648438 86.54101562 C21.11118539 84.69370233 21.05737917 82.84675934 21 81 C19.77023438 80.97421875 18.54046875 80.9484375 17.2734375 80.921875 C15.64059068 80.86556994 14.00777955 80.80822315 12.375 80.75 C11.56675781 80.73582031 10.75851563 80.72164062 9.92578125 80.70703125 C3.50846076 80.44616456 -0.25585457 78.80228411 -4.84375 74.1171875 C-7.21775834 69.77018575 -6.68889704 64.77762858 -6 60 C-4.64816427 57.14076014 -3.49610244 56.09899524 -1 54 C1.77055336 53.08964483 4.42523977 52.82873801 7.328125 52.68359375 C8.12734375 52.64169922 8.9265625 52.59980469 9.75 52.55664062 C10.575 52.51732422 11.4 52.47800781 12.25 52.4375 C13.09046875 52.39431641 13.9309375 52.35113281 14.796875 52.30664062 C16.86440671 52.20091457 18.93218281 52.09998705 21 52 C21.02690104 49.20826945 21.04679053 46.41679652 21.0625 43.625 C21.07506836 42.43390625 21.07506836 42.43390625 21.08789062 41.21875 C21.23040151 36.97607778 21.23040151 36.97607778 20 33 C8.56078364 32.95373156 -2.87841059 32.91815881 -14.31770134 32.89637566 C-19.62898938 32.88592271 -24.94021356 32.87173603 -30.25146484 32.84912109 C-35.37372595 32.82744648 -40.4959255 32.81544277 -45.61822891 32.81024551 C-47.5759287 32.80654006 -49.53362498 32.79930459 -51.49129868 32.78853989 C-54.22588221 32.77409643 -56.9602089 32.77201904 -59.69482422 32.77294922 C-60.91833588 32.76216339 -60.91833588 32.76216339 -62.16656494 32.75115967 C-66.55135103 32.59057371 -66.55135103 32.59057371 -70 35 Z " fill="#41A8FA" transform="translate(90,13)"/>
<path d="M0 0 C7.13911619 0.23029407 7.13911619 0.23029407 9.94091797 2.73535156 C12.02238748 5.02462251 13.48696479 7.22944888 15.015625 9.9140625 C15.54414062 10.83960938 16.07265625 11.76515625 16.6171875 12.71875 C17.15601563 13.6778125 17.69484375 14.636875 18.25 15.625 C19.08144531 17.07519531 19.08144531 17.07519531 19.9296875 18.5546875 C24 25.73287408 24 25.73287408 24 28 C22.68 28 21.36 28 20 28 C20 28.66 20 29.32 20 30 C13.07 30 6.14 30 -1 30 C0.3434146 25.96975621 2.17757915 25.40906257 5.8125 23.3125 C6.87082031 22.68988281 7.92914063 22.06726563 9.01953125 21.42578125 C12 20 12 20 16 20 C16 19.34 16 18.68 16 18 C15.34 17.67 14.68 17.34 14 17 C14.66 17 15.32 17 16 17 C16 16.34 16 15.68 16 15 C1.60493355 21.18371002 1.60493355 21.18371002 -11 30 C-12.64107242 30.20839015 -14.28856293 30.36751725 -15.9375 30.5 C-19.60557465 30.75214943 -19.60557465 30.75214943 -23 32 C-23.66 31.67 -24.32 31.34 -25 31 C-25 30.01 -25 29.02 -25 28 C-25.66 28.33 -26.32 28.66 -27 29 C-28.87379605 29.07033769 -30.75001102 29.0843022 -32.625 29.0625 C-33.62789062 29.05347656 -34.63078125 29.04445313 -35.6640625 29.03515625 C-36.43492188 29.02355469 -37.20578125 29.01195313 -38 29 C-34.89738392 25.59274282 -31.6577163 23.45144007 -27.66015625 21.1796875 C-26.7541996 20.66258713 -26.7541996 20.66258713 -25.8299408 20.13504028 C-24.55837568 19.41100919 -23.28502751 18.69010153 -22.01000977 17.97216797 C-20.06812505 16.87816898 -18.13235059 15.77394215 -16.19726562 14.66796875 C-5.90049557 8.81905847 -5.90049557 8.81905847 -1 7 C-1 6.01 -1 5.02 -1 4 C0.65 3.67 2.3 3.34 4 3 C4 2.34 4 1.68 4 1 C2.02 1.33 0.04 1.66 -2 2 C-1.34 1.34 -0.68 0.68 0 0 Z " fill="#3AA6F9" transform="translate(82,12)"/>
<path d="M0 0 C0.99 0.33 1.98 0.66 3 1 C3 7.6 3 14.2 3 21 C1.68 21.66 0.36 22.32 -1 23 C-0.94779297 24.84464844 -0.94779297 24.84464844 -0.89453125 26.7265625 C-0.86637955 28.35936127 -0.83908087 29.9921749 -0.8125 31.625 C-0.78736328 32.43324219 -0.76222656 33.24148437 -0.73632812 34.07421875 C-0.6748028 39.11929526 -1.07726971 42.68062704 -4 47 C-7.69369703 48.23123234 -11.10975894 48.14754162 -14.95629883 48.14526367 C-15.76639908 48.14862228 -16.57649933 48.1519809 -17.41114807 48.15544128 C-20.09312467 48.16495117 -22.77503883 48.16689454 -25.45703125 48.16796875 C-27.32167079 48.17118174 -29.18631009 48.17454585 -31.0509491 48.17805481 C-34.9624388 48.18404648 -38.87390642 48.18589471 -42.78540039 48.18530273 C-47.7923016 48.18520121 -52.79906068 48.19884327 -57.80592823 48.21607494 C-61.65871325 48.22720668 -65.51146408 48.22922157 -69.36426353 48.22869301 C-71.20979997 48.22987174 -73.05533733 48.23428754 -74.90085793 48.24202538 C-77.4858449 48.25184714 -80.07052543 48.2489384 -82.65551758 48.24291992 C-83.41469482 48.24853943 -84.17387207 48.25415894 -84.95605469 48.25994873 C-89.33512626 48.23410389 -92.98542714 47.79856858 -97 46 C-98.375 43.375 -98.375 43.375 -99 41 C-98.01 41 -97.02 41 -96 41 C-95.67 41.99 -95.34 42.98 -95 44 C-83.82141647 43.91574855 -72.64297801 43.82092501 -61.46460152 43.71247292 C-56.2744427 43.66245327 -51.08430481 43.61612389 -45.89404297 43.578125 C-40.88839109 43.54134361 -35.88291188 43.49500349 -30.87740707 43.44193649 C-28.96440525 43.42335443 -27.05136636 43.40826068 -25.13830948 43.39665604 C-22.46588577 43.37985855 -19.79386084 43.35083995 -17.12158203 43.31884766 C-15.92612259 43.31560738 -15.92612259 43.31560738 -14.70651245 43.31230164 C-10.38878021 43.40442296 -10.38878021 43.40442296 -7 41 C-6.6936141 38.26565038 -6.4886664 35.61720179 -6.375 32.875 C-6.33632812 32.12089844 -6.29765625 31.36679688 -6.2578125 30.58984375 C-6.16348969 28.72696816 -6.08065338 26.86351745 -6 25 C-7.22976562 25.04640625 -8.45953125 25.0928125 -9.7265625 25.140625 C-11.3593506 25.17816036 -12.99216511 25.21455862 -14.625 25.25 C-15.43324219 25.28351563 -16.24148437 25.31703125 -17.07421875 25.3515625 C-23.8664055 25.46200456 -27.190407 23.36597305 -32.375 19 C-34.95993363 14.22781484 -34.30513838 9.31449348 -34 4 C-33.01 3.67 -32.02 3.34 -31 3 C-29.01016107 4.98983893 -29.62608426 8.85542617 -29.4765625 11.5546875 C-28.92759419 14.37152491 -28.08896252 15.13445593 -26 17 C-26 17.66 -26 18.32 -26 19 C-22.02084841 19.02886984 -18.04172347 19.04675406 -14.0625 19.0625 C-12.35803711 19.07506836 -12.35803711 19.07506836 -10.61914062 19.08789062 C-9.53955078 19.09111328 -8.45996094 19.09433594 -7.34765625 19.09765625 C-6.34742432 19.10289307 -5.34719238 19.10812988 -4.31665039 19.11352539 C-2.03792772 19.26181095 -2.03792772 19.26181095 -1 18 C-0.84417697 16.65984779 -0.74955858 15.31241097 -0.68359375 13.96484375 C-0.64169922 13.15595703 -0.59980469 12.34707031 -0.55664062 11.51367188 C-0.51732422 10.66353516 -0.47800781 9.81339844 -0.4375 8.9375 C-0.37272461 7.65649414 -0.37272461 7.65649414 -0.30664062 6.34960938 C-0.20023298 4.23327963 -0.09958269 2.11666187 0 0 Z " fill="#2D9FF8" transform="translate(117,69)"/>
<path d="M0 0 C1.06605469 0.01417969 2.13210937 0.02835937 3.23046875 0.04296875 C11.06772524 0.19272524 11.06772524 0.19272524 12.25 1.375 C12.34986975 4.21835048 12.38877881 7.03197163 12.375 9.875 C12.38080078 11.07189453 12.38080078 11.07189453 12.38671875 12.29296875 C12.37660767 18.24839233 12.37660767 18.24839233 11.25 19.375 C7.67611717 19.71063569 4.08761235 19.7000459 0.5 19.75 C-1.00433594 19.80607422 -1.00433594 19.80607422 -2.5390625 19.86328125 C-10.01300917 19.95249282 -10.01300917 19.95249282 -13.890625 16.9140625 C-14.50421875 16.07617188 -15.1178125 15.23828125 -15.75 14.375 C-16.08 14.045 -16.41 13.715 -16.75 13.375 C-17.44367664 6.43823362 -17.44367664 6.43823362 -14.9609375 2.6328125 C-10.13570419 -0.76011311 -5.74618557 -0.2044655 0 0 Z " fill="#F0F7FC" transform="translate(103.75,69.625)"/>
<path d="M0 0 C1.485 0.99 1.485 0.99 3 2 C3 2.66 3 3.32 3 4 C32.04 4 61.08 4 91 4 C91 4.66 91 5.32 91 6 C90.34 6 89.68 6 89 6 C89 6.66 89 7.32 89 8 C78.41217088 8.04637466 67.82436599 8.08189532 57.23645592 8.10362434 C52.31987287 8.11405405 47.40335941 8.12819849 42.48681641 8.15087891 C37.7406 8.17263616 32.99445045 8.18457474 28.24818802 8.18975449 C26.43892998 8.19344506 24.62967553 8.20065181 22.82044601 8.21146011 C20.28304941 8.22601331 17.74592783 8.22797634 15.20849609 8.22705078 C14.46330719 8.23424133 13.71811829 8.24143188 12.9503479 8.24884033 C8.60032899 8.23171131 4.98837434 7.78246636 1 6 C-0.375 3.375 -0.375 3.375 -1 1 C-0.67 0.67 -0.34 0.34 0 0 Z " fill="#1398FB" transform="translate(19,109)"/>
<path d="M0 0 C1.34780755 2.6956151 1.07853056 4.7180435 1.02172852 7.73486328 C1.00163223 8.93595734 0.98153595 10.13705139 0.96083069 11.37454224 C0.93379562 12.67664642 0.90676056 13.97875061 0.87890625 15.3203125 C0.85460676 16.66266079 0.83076311 18.00501741 0.80735779 19.34738159 C0.74449976 22.88203404 0.67543808 26.4165393 0.60510254 29.9510498 C0.53443455 33.55714205 0.46960842 37.16333872 0.40429688 40.76953125 C0.27526244 47.84646761 0.13967679 54.92326504 0 62 C0.99 62 1.98 62 3 62 C3 42.53 3 23.06 3 3 C3.33 3 3.66 3 4 3 C4 24.33333333 4 45.66666667 4 67 C4.33 67.66 4.66 68.32 5 69 C9.277032 70.27312301 13.66923187 70.17130422 18.0949707 70.20532227 C18.89549362 70.21522186 19.69601654 70.22512146 20.52079773 70.23532104 C23.15576258 70.26680277 25.79074544 70.29164055 28.42578125 70.31640625 C30.25709999 70.3369873 32.0884141 70.35798407 33.91972351 70.37937927 C38.73158004 70.43448111 43.54347859 70.48394267 48.35540771 70.53222656 C53.26887741 70.58252855 58.18228634 70.63816916 63.09570312 70.69335938 C72.73041679 70.80079548 82.3651833 70.90227257 92 71 C92 71.33 92 71.66 92 72 C80.89072931 72.11591761 69.7816028 72.20472764 58.6718502 72.25906086 C53.51294956 72.28513998 48.35446307 72.32050755 43.19580078 72.37719727 C38.21613121 72.43157671 33.23685966 72.46143322 28.25691605 72.47438622 C26.3582902 72.48361542 24.45968582 72.50163822 22.56122971 72.52865028 C19.89890449 72.56501995 17.23821779 72.56994212 14.57568359 72.56762695 C13.79309174 72.58560333 13.01049988 72.60357971 12.20419312 72.62210083 C8.16213817 72.58413982 5.72056781 72.17020338 2.52651978 69.58952332 C-1.14824187 65.82312456 -1.12576042 64.07312857 -1.12939453 58.91381836 C-1.13254669 57.63586899 -1.13569885 56.35791962 -1.13894653 55.04124451 C-1.13715689 53.64077724 -1.13510597 52.24031028 -1.1328125 50.83984375 C-1.13348579 49.41020186 -1.13445602 47.98056008 -1.13571167 46.55091858 C-1.137187 43.55403555 -1.13503906 40.55718231 -1.13037109 37.56030273 C-1.12466874 33.71091058 -1.12795704 29.86158806 -1.13394356 26.01219845 C-1.13754923 23.06034313 -1.13641065 20.10850444 -1.13381577 17.15664864 C-1.13314678 15.73681187 -1.13397393 14.31697362 -1.13629532 12.8971386 C-1.13882246 10.91702171 -1.13429071 8.93689955 -1.12939453 6.95678711 C-1.12859894 5.82808701 -1.12780334 4.6993869 -1.12698364 3.53648376 C-1 1 -1 1 0 0 Z " fill="#79C0FB" transform="translate(16,46)"/>
<path d="M0 0 C0.495 1.485 0.495 1.485 1 3 C-0.98 3 -2.96 3 -5 3 C-5 3.99 -5 4.98 -5 6 C-5.80630859 6.45850342 -6.61261719 6.91700684 -7.44335938 7.3894043 C-10.4708192 9.11202198 -13.49740586 10.83615493 -16.5234375 12.5612793 C-17.8264829 13.30373834 -19.12986086 14.04561407 -20.43359375 14.78686523 C-27.37116505 18.73181088 -34.27633703 22.69583696 -41 27 C-38.36 27.33 -35.72 27.66 -33 28 C-33 28.33 -33 28.66 -33 29 C-36.3 29 -39.6 29 -43 29 C-43 27.35 -43 25.7 -43 24 C-43.66 23.67 -44.32 23.34 -45 23 C-44.34104736 22.61779297 -43.68209473 22.23558594 -43.00317383 21.84179688 C-39.93860195 20.06293773 -36.87545415 18.28164317 -33.8125 16.5 C-32.71437988 15.86231689 -31.61625977 15.22463379 -30.48486328 14.56762695 C-23.74851188 10.64348556 -17.10271685 6.63609832 -10.5859375 2.35546875 C-7.13531476 0.54675864 -3.87671672 0 0 0 Z " fill="#33A3F8" transform="translate(86,13)"/>
<path d="M0 0 C0 1.32 0 2.64 0 4 C-2.04443359 5.64404297 -2.04443359 5.64404297 -4.8984375 7.2421875 C-5.93613281 7.83386719 -6.97382812 8.42554688 -8.04296875 9.03515625 C-9.69232422 9.94587891 -9.69232422 9.94587891 -11.375 10.875 C-13.50810257 12.08021591 -15.64091797 13.28594025 -17.7734375 14.4921875 C-18.81999512 15.07500488 -19.86655273 15.65782227 -20.94482422 16.25830078 C-24.62465303 18.35610314 -28.19969655 20.60094589 -31.75585938 22.90136719 C-35.57411537 24.77061784 -38.82984978 24.40356292 -43 24 C-39.90703147 20.59952138 -36.69650647 18.49108536 -32.6953125 16.25 C-32.09371307 15.91000977 -31.49211365 15.57001953 -30.87228394 15.21972656 C-28.95994864 14.14025689 -27.04281882 13.06969205 -25.125 12 C-23.21519351 10.92884556 -21.30649658 9.85578327 -19.3991394 8.78027344 C-17.6641967 7.80288986 -15.92617702 6.83097408 -14.18798828 5.859375 C-10.9427785 4.01909182 -10.9427785 4.01909182 -7.76904297 1.78125 C-4.81148045 -0.1212695 -3.43449078 -0.40405774 0 0 Z " fill="#E4F2FB" transform="translate(87,17)"/>
<path d="M0 0 C0.99 0.33 1.98 0.66 3 1 C2.51391769 1.70158737 2.02783539 2.40317474 1.52702332 3.12602234 C-0.19875234 6.37406749 -0.39326059 8.33053945 -0.43237305 11.98364258 C-0.46206429 13.75491264 -0.46206429 13.75491264 -0.49235535 15.56196594 C-0.49874527 16.82671249 -0.50513519 18.09145905 -0.51171875 19.39453125 C-0.52966995 20.69702316 -0.54762115 21.99951508 -0.56611633 23.34147644 C-0.61350911 26.7920939 -0.64338725 30.24264646 -0.66955566 33.69348145 C-0.69941575 37.21961276 -0.74592722 40.74552072 -0.79101562 44.27148438 C-0.87692625 51.1808621 -0.94432567 58.09031428 -1 65 C-1.99 65 -2.98 65 -4 65 C-4.0463608 57.2460781 -4.08188821 49.49218874 -4.10362434 41.73816299 C-4.11405713 38.13756664 -4.12820701 34.53706518 -4.15087891 30.93652344 C-4.17262545 27.46114927 -4.18457243 23.98586634 -4.18975449 20.51042938 C-4.19524282 18.54063404 -4.21085291 16.57087535 -4.22659302 14.60113525 C-4.22674408 13.40019226 -4.22689514 12.19924927 -4.22705078 10.96191406 C-4.231492 9.90490295 -4.23593323 8.84789185 -4.24050903 7.7588501 C-3.99661294 4.96114741 -3.53374985 3.33330213 -2 1 C-1.34 0.67 -0.68 0.34 0 0 Z " fill="#1798FB" transform="translate(20,43)"/>
<path d="M0 0 C0 1.65 0 3.3 0 5 C1.58367747 4.85795259 3.16693318 4.71119847 4.75 4.5625 C5.63171875 4.48128906 6.5134375 4.40007813 7.421875 4.31640625 C9.69350452 4.03761535 11.79851823 3.61209423 14 3 C14 3.99 14 4.98 14 6 C14.54140625 5.83628906 15.0828125 5.67257813 15.640625 5.50390625 C18.40222593 4.91409413 20.92818139 4.90390692 23.75 4.9375 C24.73484375 4.94652344 25.7196875 4.95554687 26.734375 4.96484375 C27.85585937 4.98224609 27.85585937 4.98224609 29 5 C29 5.66 29 6.32 29 7 C26.16987873 7.94337376 24.45700082 8.12172829 21.52856445 8.11352539 C20.17750359 8.11341209 20.17750359 8.11341209 18.79914856 8.11329651 C17.83031235 8.10813522 16.86147614 8.10297394 15.86328125 8.09765625 C14.37141548 8.09553383 14.37141548 8.09553383 12.84941101 8.09336853 C9.67041018 8.08776761 6.49147957 8.07521496 3.3125 8.0625 C1.15820414 8.05748512 -0.99609282 8.05292219 -3.15039062 8.04882812 C-8.43361774 8.03779788 -13.71680385 8.02105886 -19 8 C-19 7.01 -19 6.02 -19 5 C-15.7 5 -12.4 5 -9 5 C-8.67 4.01 -8.34 3.02 -8 2 C-5.01540871 0.04457812 -3.73585209 0 0 0 Z " fill="#1D9BF8" transform="translate(43,37)"/>
<path d="M0 0 C1.22351166 0.01078583 1.22351166 0.01078583 2.47174072 0.02178955 C3.33034698 0.0214975 4.18895325 0.02120544 5.07357788 0.02090454 C7.91977952 0.02230111 10.76572138 0.03787761 13.61187744 0.05352783 C15.58199928 0.0572568 17.55212296 0.06010432 19.52224731 0.06210327 C24.71400042 0.06974887 29.90564208 0.08940529 35.09735107 0.11151123 C40.39254244 0.13194973 45.68775177 0.14110071 50.98297119 0.15118408 C61.37755148 0.17265032 71.77204895 0.20679741 82.16656494 0.24884033 C81.83656494 0.90884033 81.50656494 1.56884033 81.16656494 2.24884033 C79.57589706 2.2421785 79.57589706 2.2421785 77.95309448 2.23538208 C67.97618455 2.19489922 57.99929121 2.1648864 48.02231789 2.14521599 C42.89263114 2.13476341 37.76301051 2.1205774 32.63336182 2.09796143 C27.68616457 2.07628551 22.73903106 2.06428282 17.79179001 2.05908585 C15.90107596 2.05538062 14.01036553 2.0481456 12.1196785 2.03738022 C9.47849138 2.02293501 6.83757014 2.02085945 4.1963501 2.02178955 C3.01491676 2.01100372 3.01491676 2.01100372 1.80961609 2 C-2.47469498 1.85734091 -2.47469498 1.85734091 -5.83343506 4.24884033 C-6.16553267 6.87781414 -6.16553267 6.87781414 -6.15228271 9.98370361 C-6.1721524 11.18479767 -6.19202209 12.38589172 -6.2124939 13.62338257 C-6.2240451 14.92548676 -6.23559631 16.22759094 -6.24749756 17.56915283 C-6.26620276 18.91152141 -6.28577568 20.25387815 -6.30618286 21.59622192 C-6.35757897 25.13070711 -6.39716432 28.66523045 -6.43432617 32.19989014 C-6.4743192 35.80614721 -6.52543289 39.41224456 -6.57562256 43.01837158 C-6.67247015 50.09507762 -6.75684648 57.17188372 -6.83343506 64.24884033 C-7.16343506 64.24884033 -7.49343506 64.24884033 -7.83343506 64.24884033 C-7.87972341 56.1996005 -7.91528632 48.15041604 -7.9370594 40.10107613 C-7.94750804 36.36366203 -7.96168676 32.62633883 -7.98431396 28.88897705 C-8.0060041 25.28393533 -8.01799555 21.67898117 -8.02318954 18.07387924 C-8.02689222 16.69672135 -8.0341224 15.31956839 -8.04489517 13.94244766 C-8.05935841 12.01744488 -8.06025154 10.09235446 -8.06048584 8.16729736 C-8.06492706 7.07031525 -8.06936829 5.97333313 -8.07394409 4.84310913 C-7.58781627 -0.40054518 -4.53527243 0.0167775 0 0 Z " fill="#C4E2FD" transform="translate(27.83343505859375,45.75115966796875)"/>
<path d="M0 0 C0 1.32 0 2.64 0 4 C-3.29350376 6.03259321 -6.61237035 8.0196411 -9.9375 10 C-10.86369141 10.57234375 -11.78988281 11.1446875 -12.74414062 11.734375 C-18.87157764 15.34633787 -22.8844395 16.70060903 -30 16 C-27.09292707 12.60841491 -24.16538202 10.99795931 -20.21484375 9.13671875 C-17.79895941 7.89682044 -15.61679332 6.46857301 -13.375 4.9375 C-4.09648127 -1.36549376 -4.09648127 -1.36549376 0 0 Z " fill="#E8F4FB" transform="translate(93,25)"/>
<path d="M0 0 C0.33 0 0.66 0 1 0 C1.02578125 1.25296875 1.0515625 2.5059375 1.078125 3.796875 C1.13441169 5.44795123 1.1917589 7.09899155 1.25 8.75 C1.26417969 9.575 1.27835937 10.4 1.29296875 11.25 C1.32855821 16.14765544 1.32855821 16.14765544 4.03125 19.96875 C6.83630744 22.86285689 6.41120919 25.19861044 6.3515625 29.10546875 C6.31804687 29.97816406 6.28453125 30.85085937 6.25 31.75 C6.23195313 32.63816406 6.21390625 33.52632812 6.1953125 34.44140625 C6.14827374 36.62870848 6.08257009 38.81379816 6 41 C5.67 41 5.34 41 5 41 C5 35.06 5 29.12 5 23 C4.34 23 3.68 23 3 23 C2.67 28.61 2.34 34.22 2 40 C1.67 40 1.34 40 1 40 C0.97421875 38.87980469 0.9484375 37.75960937 0.921875 36.60546875 C0.86559365 35.13277354 0.80824632 33.6601188 0.75 32.1875 C0.73582031 31.44951172 0.72164063 30.71152344 0.70703125 29.95117188 C0.56792343 25.50622421 0.56792343 25.50622421 -2.046875 22.11328125 C-3.01367188 21.56220703 -3.01367188 21.56220703 -4 21 C-4 20.34 -4 19.68 -4 19 C-4.66 18.67 -5.32 18.34 -6 18 C-5.34 18 -4.68 18 -4 18 C-4 12.72 -4 7.44 -4 2 C-3.67 2 -3.34 2 -3 2 C-2.67 6.95 -2.34 11.9 -2 17 C-1.67 17 -1.34 17 -1 17 C-0.67 11.39 -0.34 5.78 0 0 Z " fill="#58B2FA" transform="translate(115,47)"/>
<path d="M0 0 C4 6.75 4 6.75 4 9 C-2.27 9 -8.54 9 -15 9 C-15 8.34 -15 7.68 -15 7 C-12.48046875 5.2734375 -12.48046875 5.2734375 -9.1875 3.375 C-8.10855469 2.74335937 -7.02960938 2.11171875 -5.91796875 1.4609375 C-3 0 -3 0 0 0 Z " fill="#EFF7FB" transform="translate(97,32)"/>
<path d="M0 0 C1.485 0.99 1.485 0.99 3 2 C3 2.66 3 3.32 3 4 C31.05 4 59.1 4 88 4 C88 4.33 88 4.66 88 5 C59.29 5 30.58 5 1 5 C0.34 3.68 -0.32 2.36 -1 1 C-0.67 0.67 -0.34 0.34 0 0 Z " fill="#269FF5" transform="translate(19,109)"/>
<path d="M0 0 C0.33 0 0.66 0 1 0 C1.08144943 2.70894767 1.14070614 5.41541263 1.1875 8.125 C1.22520508 9.26582031 1.22520508 9.26582031 1.26367188 10.4296875 C1.32737796 15.35629156 0.80745241 18.76233598 -2 23 C-4.6875 23.875 -4.6875 23.875 -7 24 C-7 23.34 -7 22.68 -7 22 C-6.34 22 -5.68 22 -5 22 C-5 21.34 -5 20.68 -5 20 C-5.66 19.67 -6.32 19.34 -7 19 C-6.34 18.34 -5.68 17.68 -5 17 C-4.6936141 14.26565038 -4.4886664 11.61720179 -4.375 8.875 C-4.33632812 8.12089844 -4.29765625 7.36679688 -4.2578125 6.58984375 C-4.16348969 4.72696816 -4.08065338 2.86351745 -4 1 C-3.67 1 -3.34 1 -3 1 C-2.34 4.3 -1.68 7.6 -1 11 C-0.67 7.37 -0.34 3.74 0 0 Z " fill="#4BACF9" transform="translate(115,93)"/>
<path d="M0 0 C0 1.65 0 3.3 0 5 C-1.010625 5.4125 -2.02125 5.825 -3.0625 6.25 C-5.7800727 7.38643949 -8.15627991 8.71190126 -10.625 10.3125 C-14 12 -14 12 -16.9375 11.25 C-17.618125 10.8375 -18.29875 10.425 -19 10 C-16.32201996 6.89163031 -13.08573456 5.23862093 -9.5 3.3125 C-8.3553125 2.68988281 -7.210625 2.06726563 -6.03125 1.42578125 C-3 0 -3 0 0 0 Z " fill="#33A2F7" transform="translate(98,27)"/>
<path d="M0 0 C0.66 0.33 1.32 0.66 2 1 C1.525625 1.4125 1.05125 1.825 0.5625 2.25 C-1.15381592 3.86866919 -1.15381592 3.86866919 -1.375 6 C-2 8 -2 8 -4 9.75 C-8.06273416 11.4428059 -11.65923807 11.25533894 -16 11 C-12.94900596 7.67633258 -9.76550484 5.45775774 -5.875 3.1875 C-4.82054687 2.56230469 -3.76609375 1.93710937 -2.6796875 1.29296875 C-1.35324219 0.65294922 -1.35324219 0.65294922 0 0 Z " fill="#E2F1FA" transform="translate(60,30)"/>
<path d="M0 0 C1 1 1 1 1.1875 3.4375 C1 6 1 6 -1 8 C-3.5 8.3125 -3.5 8.3125 -6 8 C-8 5 -8 5 -7.75 2.375 C-7.5025 1.59125 -7.255 0.8075 -7 0 C-4.31633121 -1.3418344 -2.84719317 -0.73004953 0 0 Z " fill="#2FA0F7" transform="translate(100,76)"/>
<path d="M0 0 C6.95697674 0.2244186 6.95697674 0.2244186 10.4375 2.8125 C11.96729184 4.95420858 12.63075651 6.41529556 13 9 C12.236875 8.773125 11.47375 8.54625 10.6875 8.3125 C9.3571875 8.1578125 9.3571875 8.1578125 8 8 C6.45833358 9.37485532 6.45833358 9.37485532 5 11 C2.3125 11.6875 2.3125 11.6875 0 12 C1.25541557 9.48916886 2.50063488 9.12874554 5 8 C5 7.34 5 6.68 5 6 C3.02 6 1.04 6 -1 6 C-1 5.34 -1 4.68 -1 4 C0.65 3.67 2.3 3.34 4 3 C4 2.34 4 1.68 4 1 C2.02 1.33 0.04 1.66 -2 2 C-1.34 1.34 -0.68 0.68 0 0 Z " fill="#4CACF8" transform="translate(82,12)"/>
<path d="M0 0 C2.62506802 -0.02690844 5.24986173 -0.04679404 7.875 -0.0625 C8.62136719 -0.07087891 9.36773437 -0.07925781 10.13671875 -0.08789062 C15.7734375 -0.11328125 15.7734375 -0.11328125 18 1 C18 1.66 18 2.32 18 3 C18.66 3.33 19.32 3.66 20 4 C17.41638482 4.05407567 14.83390745 4.093707 12.25 4.125 C11.52039063 4.14175781 10.79078125 4.15851563 10.0390625 4.17578125 C6.1955376 4.21072239 3.25393228 4.17499684 0 2 C0 1.34 0 0.68 0 0 Z " fill="#1B9CFA" transform="translate(93,65)"/>
<path d="M0 0 C0.99 0.33 1.98 0.66 3 1 C3 7.6 3 14.2 3 21 C2.01 21 1.02 21 0 21 C0 14.07 0 7.14 0 0 Z " fill="#1A9AF8" transform="translate(117,69)"/>
<path d="M0 0 C3.63 0 7.26 0 11 0 C11.72437834 3.62189172 12.11585593 6.23765264 12.0625 9.8125 C12.05347656 10.60269531 12.04445313 11.39289063 12.03515625 12.20703125 C12.02355469 12.79871094 12.01195313 13.39039062 12 14 C11.01 14.495 11.01 14.495 10 15 C9.86722656 14.21753906 9.73445313 13.43507813 9.59765625 12.62890625 C9.33275391 11.11103516 9.33275391 11.11103516 9.0625 9.5625 C8.88847656 8.55316406 8.71445313 7.54382813 8.53515625 6.50390625 C8.25248903 4.0712562 8.25248903 4.0712562 7 3 C5.65252916 2.76924918 4.29622435 2.58846937 2.9375 2.4375 C1.638125 2.293125 0.33875 2.14875 -1 2 C-0.67 1.34 -0.34 0.68 0 0 Z " fill="#179AFA" transform="translate(103,90)"/>
<path d="M0 0 C-0.33 0.99 -0.66 1.98 -1 3 C1.97 3.495 1.97 3.495 5 4 C3 5 1 6 -1 7 C-1 8.98 -1 10.96 -1 13 C-1.99 12.67 -2.98 12.34 -4 12 C-4 11.01 -4 10.02 -4 9 C-4.66 8.67 -5.32 8.34 -6 8 C-6 9.65 -6 11.3 -6 13 C-6.33 13 -6.66 13 -7 13 C-7.61240935 5.7735697 -7.61240935 5.7735697 -4.625 2 C-2 0 -2 0 0 0 Z " fill="#D5EBFB" transform="translate(94,70)"/>
<path d="M0 0 C2.64 0.33 5.28 0.66 8 1 C8 1.66 8 2.32 8 3 C9.32 3.66 10.64 4.32 12 5 C11.67 5.66 11.34 6.32 11 7 C10.01 7.33 9.02 7.66 8 8 C8 7.34 8 6.68 8 6 C5.03 5.67 2.06 5.34 -1 5 C-0.67 3.35 -0.34 1.7 0 0 Z " fill="#1C9AF9" transform="translate(102,40)"/>
<path d="M0 0 C1.98 0.66 3.96 1.32 6 2 C6.33 3.65 6.66 5.3 7 7 C5.88625 6.814375 4.7725 6.62875 3.625 6.4375 C0.17431139 5.68319343 0.17431139 5.68319343 -2 7 C-3.99960012 7.039992 -6.00047242 7.04346799 -8 7 C-8 6.34 -8 5.68 -8 5 C-7.05125 4.54625 -6.1025 4.0925 -5.125 3.625 C-1.99686321 2.19761746 -1.99686321 2.19761746 0 0 Z " fill="#239DF9" transform="translate(90,19)"/>
<path d="M0 0 C1.8871875 0.0309375 1.8871875 0.0309375 3.8125 0.0625 C3.8125 0.3925 3.8125 0.7225 3.8125 1.0625 C5.5140625 1.248125 5.5140625 1.248125 7.25 1.4375 C8.425625 1.64375 9.60125 1.85 10.8125 2.0625 C11.1425 2.7225 11.4725 3.3825 11.8125 4.0625 C5.8725 4.0625 -0.0675 4.0625 -6.1875 4.0625 C-6.5175 3.0725 -6.8475 2.0825 -7.1875 1.0625 C-4.43671116 0.14557039 -2.82801087 -0.04636083 0 0 Z " fill="#3EA8FA" transform="translate(99.1875,89.9375)"/>
<path d="M0 0 C0.66 0.33 1.32 0.66 2 1 C1.01 2.485 1.01 2.485 0 4 C3.3 4.66 6.6 5.32 10 6 C10 6.33 10 6.66 10 7 C8.95199219 7.09087891 8.95199219 7.09087891 7.8828125 7.18359375 C6.97273438 7.26738281 6.06265625 7.35117187 5.125 7.4375 C4.22007813 7.51871094 3.31515625 7.59992187 2.3828125 7.68359375 C-0.01110861 7.86989285 -0.01110861 7.86989285 -2 9 C-2.66 8.67 -3.32 8.34 -4 8 C-4 7.01 -4 6.02 -4 5 C-5.32 5.33 -6.64 5.66 -8 6 C-5.63404067 3.38499232 -3.13950774 1.61000397 0 0 Z " fill="#4AADF7" transform="translate(61,35)"/>
<path d="M0 0 C6.27 0 12.54 0 19 0 C19 0.99 19 1.98 19 3 C12.34949576 3.24991456 6.43013467 2.73955334 0 1 C0 0.67 0 0.34 0 0 Z " fill="#1197FA" transform="translate(82,42)"/>
<path d="M0 0 C0.66 0.33 1.32 0.66 2 1 C1.01 3.31 0.02 5.62 -1 8 C-3.31 8 -5.62 8 -8 8 C-7.01 7.67 -6.02 7.34 -5 7 C-5.33 6.01 -5.66 5.02 -6 4 C-4.02 2.68 -2.04 1.36 0 0 Z " fill="#1E9AF6" transform="translate(77,37)"/>
<path d="M0 0 C0 0.66 0 1.32 0 2 C3.63 2.33 7.26 2.66 11 3 C11.33 2.01 11.66 1.02 12 0 C12.33 1.32 12.66 2.64 13 4 C6.73 4 0.46 4 -6 4 C-6 3.34 -6 2.68 -6 2 C-2.25 0 -2.25 0 0 0 Z " fill="#D8ECFB" transform="translate(88,37)"/>
<path d="M0 0 C0 1.32 0 2.64 0 4 C-3.08809695 5.76462683 -4.23312136 6 -8 6 C-6.15596224 0.86303767 -5.73213298 0 0 0 Z " fill="#289EF9" transform="translate(69,33)"/>
<path d="M0 0 C0.721875 0.391875 1.44375 0.78375 2.1875 1.1875 C0.48124499 3.97138975 -0.28876739 5.04134206 -3.5 5.9375 C-4.6446875 6.06125 -4.6446875 6.06125 -5.8125 6.1875 C-5.8125 5.1975 -5.8125 4.2075 -5.8125 3.1875 C-6.4725 2.8575 -7.1325 2.5275 -7.8125 2.1875 C-3.50480769 -1.0125 -3.50480769 -1.0125 0 0 Z " fill="#3CA6FA" transform="translate(74.8125,29.8125)"/>
<path d="M0 0 C3.3 0 6.6 0 10 0 C10.33 0.99 10.66 1.98 11 3 C7.37 3 3.74 3 0 3 C0 2.01 0 1.02 0 0 Z " fill="#1698FA" transform="translate(24,42)"/>
<path d="M0 0 C0.99 0 1.98 0 3 0 C3 1.65 3 3.3 3 5 C0.36 5.99 -2.28 6.98 -5 8 C-5 6.68 -5 5.36 -5 4 C-4.01 4 -3.02 4 -2 4 C-1.34 2.68 -0.68 1.36 0 0 Z " fill="#1F9BFB" transform="translate(95,27)"/>
<path d="M0 0 C0.66 0.33 1.32 0.66 2 1 C1.01 2.485 1.01 2.485 0 4 C0.99 4.33 1.98 4.66 3 5 C2 6 2 6 -0.06640625 6.09765625 C-0.89011719 6.08605469 -1.71382813 6.07445312 -2.5625 6.0625 C-3.38878906 6.05347656 -4.21507813 6.04445313 -5.06640625 6.03515625 C-5.70449219 6.02355469 -6.34257813 6.01195312 -7 6 C-4.74259377 3.66475218 -2.7194239 1.81294927 0 0 Z " fill="#D6EDFC" transform="translate(70,35)"/>
<path d="M0 0 C1.32 0.33 2.64 0.66 4 1 C4 1.66 4 2.32 4 3 C5.32 3.66 6.64 4.32 8 5 C7.67 5.66 7.34 6.32 7 7 C6.01 7.33 5.02 7.66 4 8 C4 7.34 4 6.68 4 6 C3.01 5.67 2.02 5.34 1 5 C1.33 4.01 1.66 3.02 2 2 C1.34 2 0.68 2 0 2 C0 1.34 0 0.68 0 0 Z " fill="#37A4F8" transform="translate(106,40)"/>
<path d="M0 0 C0.66 1.65 1.32 3.3 2 5 C0.02 5.33 -1.96 5.66 -4 6 C-4 5.34 -4 4.68 -4 4 C-4.66 3.34 -5.32 2.68 -6 2 C-3 0 -3 0 0 0 Z " fill="#D0EAFB" transform="translate(97,32)"/>
<path d="M0 0 C2.1875 0.3125 2.1875 0.3125 4 1 C4.33 2.32 4.66 3.64 5 5 C4.01 5.495 4.01 5.495 3 6 C2.34 5.67 1.68 5.34 1 5 C1 4.01 1 3.02 1 2 C-0.32 2.33 -1.64 2.66 -3 3 C-1.75 1.4375 -1.75 1.4375 0 0 Z " fill="#33A3F9" transform="translate(56,38)"/>
<path d="M0 0 C0.66 0.33 1.32 0.66 2 1 C1.2884375 1.6496875 1.2884375 1.6496875 0.5625 2.3125 C-1.23686957 4.02309613 -1.23686957 4.02309613 -2 7 C-2.66 7 -3.32 7 -4 7 C-4 6.34 -4 5.68 -4 5 C-5.32 5.33 -6.64 5.66 -8 6 C-5.63404067 3.38499232 -3.13950774 1.61000397 0 0 Z " fill="#47ABF8" transform="translate(68,20)"/>
<path d="M0 0 C0.33 0 0.66 0 1 0 C1.33 2.97 1.66 5.94 2 9 C1.01 9 0.02 9 -1 9 C-1.125 2.25 -1.125 2.25 0 0 Z " fill="#1899F7" transform="translate(85,77)"/>
<path d="M0 0 C0.66 0.33 1.32 0.66 2 1 C1.34 2.32 0.68 3.64 0 5 C-1.65 4.67 -3.3 4.34 -5 4 C-3.36587557 2.29159719 -2.13093906 1.06546953 0 0 Z " fill="#3BA6FB" transform="translate(77,37)"/>
<path d="M0 0 C0.66 0.33 1.32 0.66 2 1 C1.2884375 1.61875 1.2884375 1.61875 0.5625 2.25 C-1.16266518 4.182185 -1.56584875 5.48192275 -2 8 C-2.66 8 -3.32 8 -4 8 C-4.33 6.35 -4.66 4.7 -5 3 C-2.625 1.4375 -2.625 1.4375 0 0 Z " fill="#D3E9FB" transform="translate(60,30)"/>
<path d="M0 0 C0.33 0.99 0.66 1.98 1 3 C-3.455 3.495 -3.455 3.495 -8 4 C-6 1 -6 1 -4 0.3125 C-2 0 -2 0 0 0 Z " fill="#179AFA" transform="translate(86,13)"/>
<path d="M0 0 C0.66 0.99 1.32 1.98 2 3 C0.71034824 4.37562854 -0.62689293 5.70766393 -2 7 C-2.66 7 -3.32 7 -4 7 C-4 4 -4 4 -2 1.8125 C-1.34 1.214375 -0.68 0.61625 0 0 Z " fill="#E1F2FA" transform="translate(120,88)"/>
<path d="M0 0 C0.99 0.33 1.98 0.66 3 1 C3 1.99 3 2.98 3 4 C1.02 4 -0.96 4 -3 4 C-2.01 2.68 -1.02 1.36 0 0 Z " fill="#FBFCFA" transform="translate(96,36)"/>
<path d="M0 0 C1.65 0 3.3 0 5 0 C4.34 1.32 3.68 2.64 3 4 C1.68 3.34 0.36 2.68 -1 2 C-0.67 1.34 -0.34 0.68 0 0 Z " fill="#F1F8FB" transform="translate(83,18)"/>
</svg>
